<svg width="96" height="96" viewBox="0 0 96 96" fill="none" xmlns="http://www.w3.org/2000/svg">
  <path opacity=".6" d="m83.6791 71.9127-25.4792 15.298c-.7477.4488-1.5987.6883-2.4666.6942-.8679.006-1.7219-.2219-2.4755-.6604-.7536-.4385-1.3801-1.0722-1.8158-1.8367-.4358-.7645-.6654-1.6328-.6656-2.5169V44.6934c.0011-.8836.2313-1.7512.6674-2.5151.4362-.7638 1.0626-1.3967 1.8161-1.8347.7535-.4379 1.6072-.6653 2.4746-.6592.8675.0062 1.718.2457 2.4654.6943l25.4792 15.298 4.3267 2.75c3.94 2.5042 3.9393 8.2346-.0012 10.738l-4.3255 2.748Z" fill="#FF7D00"/>
  <path fill-rule="evenodd" clip-rule="evenodd" d="M60.8394 16.2258h2.7418c2.1795.0063 4.2682.8753 5.8096 2.4163 1.5409 1.5415 2.4099 3.6301 2.4163 5.8096v39.954c0 2.1818-.8666 4.2741-2.4095 5.8164-1.5423 1.5428-3.6346 2.4095-5.8164 2.4095H14.2259c-2.1818 0-4.27407-.8667-5.81642-2.4095C6.86666 68.6798 6 66.5875 6 64.4057v-39.954c.00635-2.1795.87535-4.2682 2.4163-5.8096 1.54153-1.541 3.6301-2.4099 5.8096-2.4163h2.7418c0-2.9388 1.5681-5.6544 4.1129-7.12377 2.5454-1.46937 5.6811-1.46937 8.2259 0 2.5454 1.46937 4.113 4.18497 4.113 7.12377h10.9681c0-2.9388 1.5677-5.6544 4.113-7.12377 2.5448-1.46937 5.6805-1.46937 8.2259 0 2.5448 1.46937 4.1129 4.18497 4.1129 7.12377Zm-32.9033 5.7856v-5.7856c0-.9796-.5228-1.8848-1.3711-2.3746-.8484-.4898-1.8935-.4898-2.7418 0s-1.3712 1.395-1.3712 2.3746v5.7856c0 .9796.5229 1.8848 1.3712 2.3746.8483.4898 1.8935.4898 2.7418 0s1.3711-1.395 1.3711-2.3746Zm27.4192 0v-5.7856c0-.9796-.5228-1.8848-1.3711-2.3746-.8483-.4898-1.8935-.4898-2.7418 0s-1.3711 1.395-1.3711 2.3746v5.7856c0 .9796.5228 1.8848 1.3711 2.3746.8483.4898 1.8935.4898 2.7418 0s1.3711-1.395 1.3711-2.3746Z" fill="url(#a)" style="mix-blend-mode:multiply"/>
  <defs>
    <linearGradient id="a" x1="12.2517" y1="78.9978" x2="91.0354" y2="25.8054" gradientUnits="userSpaceOnUse">
      <stop stop-color="#FF7D00"/>
      <stop offset=".1362" stop-color="#FC771C"/>
      <stop offset=".470306" stop-color="#F56565"/>
      <stop offset=".92371" stop-color="#EA4AD8"/>
      <stop offset=".981571" stop-color="#E640FF"/>
    </linearGradient>
  </defs>
</svg>