<svg width="90" height="36" viewBox="0 0 90 36" fill="none" xmlns="http://www.w3.org/2000/svg">
  <path d="M.25 23.7132c.182317-.0078.37256-.0157.554876-.0157H57.8937c.1586 0 .3171.0079.4756.0079-.1664.1255-.3567.0627-.531.0627-18.9768 0-37.9615 0-56.938302.0079-.665852 0-.562803-.0785-.562803.5572 0 1.4361.007927 2.8644.007927 4.3006-.031708 0-.063415.0078-.087195.0078C.25 27.0014.25 25.3534.25 23.7132ZM.25 11.031c.10315.1571.119019.3142 0 .4713v-.4713ZM.25 9.46948c.095216.05499.087281.10212 0 .15711v-.15711Z" fill="#333E67"/>
  <path fill-rule="evenodd" clip-rule="evenodd" d="M82.6024.311035h-.0792c-.1129.058797-.2302.051516-.3486.044167-.0396-.00246-.0794-.004928-.1191-.004928H63.5068c-.4836.054934-.6025.172651-.6342.627821-.0079.172655-.0079.337455-.0079.510105v18.0342c0 .2103.0123.4205.0388.6099-.0719-.3039-.1757-.6317-.2925-.9552-1.4268-4.0024-2.8457-8.0126-4.2646-12.02281-.1928-.54536-.385-1.09127-.5773-1.6373-.5271-1.4969-1.0545-2.99465-1.5946-4.48396-.1586-.431628-.3964-.706299-.8878-.674908h-5.4299c-.3805-.023544-.6104.180498-.7768.494409-.0951.172649-.1823.345299-.2458.533649-.7213 2.1032-1.4585 4.19071-2.1957 6.27821-.1775.50495-.353 1.00891-.5283 1.51222-.3179.91259-.6349 1.82299-.9619 2.73339-.0132.0352-.0252.0727-.0375.1108-.0617.192-.1287.4006-.3668.4072-.2495.0068-.3233-.2143-.3908-.4168-.0098-.0291-.0193-.0579-.0293-.0855-.3035-.874-.6114-1.7465-.9193-2.61877-.3999-1.13286-.7996-2.2654-1.1892-3.40044-.4432-1.29683-.9024-2.59366-1.3601-3.88614-.099-.27962-.1979-.55904-.2966-.83821-.2299-.651367-.4439-.800475-1.086-.824018h-5.3585c-.4836-.015696-.6976.306063-.8403.690608-.0792.21973-.1565.44143-.2338.66313-.0773.2217-.1546.4434-.2339.66314-.9312 2.60654-1.8561 5.21624-2.7807 7.8251-.5314 1.4992-1.0626 2.998-1.5948 4.4959-.3013.8397-.436.9417-1.3476.9417-1.7697 0-3.5404-.0008-5.3116-.0017-3.5441-.0018-7.0906-.0035-10.6371.0017-.5866 0-1.15735-.0549-1.72808-.1726-1.47438-.3061-2.63962-1.0202-3.26584-2.4407-.34085-.7691-.4439-1.5774-.4122-2.4092.06342-1.45189.49147-2.75461 1.63293-3.72774.87987-.75338 1.87865-1.27918 3.10729-1.24779.9045.02197 1.8089.01703 2.7133.01208.3877-.00211.7753-.00423 1.1629-.00423h9.1872c1.0543 0 1.2524-.14911 1.5933-1.14578.1109-.32961.2228-.65921.3347-.98882.2237-.65921.4474-1.31842.6641-1.97763.2695-.816171.0079-1.177168-.8482-1.177168-1.9325.005382-3.864-.000309-5.7953-.005998C15.7794.341221 12.0793.330321 8.37584.397361 6.2356.428752 4.43621 1.31555 2.96976 2.80662 1.45574 4.32909.560008 6.17332.353911 8.3236c-.010534.08604-.015818.17207-.021085.25782-.010587.17236-.021103.34356-.074037.51127v.39238c.047561.05494.047561.10203 0 .15696v1.41257c.063415.157.063415.3139 0 .4709v.7848c.061618.2396.074361.4841.087075.7281.010185.1954.020352.3905.055608.5824.324999 1.7501 1.133528 3.2647 2.354258 4.5674.96707 1.0281 2.14817 1.7658 3.45609 2.2916 1.08597.4395 2.21158.7063 3.41645.6984 5.24383-.0235 10.49213-.0206 15.73813-.0176 1.7484.001 3.4965.0019 5.2441.0019h.6738c.3963 0 .6738-.1804.8878-.4944.1268-.1962.222-.4159.3012-.6356.4025-1.1475.8139-2.289 1.2251-3.4301.261-.7242.5219-1.4481.7804-2.1732.6738-1.8913 1.3555-3.7827 2.0451-5.66612l.0045-.01273c.0624-.17793.1358-.38751.3681-.38751.2024 0 .2573.1765.3054.33119.0066.02096.013.04153.0196.0612.3726 1.04394.7432 2.08987 1.1139 3.13577.3705 1.0455.741 2.091 1.1135 3.1346l.0008.0023c.626 1.7571 1.2519 3.5143 1.8699 5.2714.2299.6671.6183.9339 1.3317.9339.3976 0 .7952-.003 1.1927-.006.8945-.0066 1.789-.0133 2.6835.0138 1.0702.0314 1.4507-.4708 1.7043-1.2007.4555-1.3004.9147-2.5984 1.3737-3.8958.7072-1.999 1.414-3.9967 2.1062-6.0002.0478-.133.0949-.26662.1422-.40053.1173-.33233.2351-.66635.3651-.99639.0634-.17265.1744-.3453.3805-.35315.1896-.00695.2423.15246.2905.29807.0062.01872.0123.03721.0186.05508.3007.80284.5831 1.61082.8651 2.41812.2088.5973.4173 1.1942.6331 1.7883.4004 1.1005.7889 2.207 1.1758 3.3091.0572.1632.1145.3262.1717.4892.1883.5317.3761 1.0633.5638 1.595.5633 1.5951 1.1266 3.1902 1.7033 4.7852.0043.0122.0089.0244.0134.0367.0454.1224.0925.2494-.0372.3636-.3091.1569-.6341.1569-.967.1569H1.13866c-.182312 0-.372555 0-.554872.0079-.206097.0078-.301219.0942-.301219.3139.006342.6216.005073 1.2419.003805 1.862-.001902.93-.003803 1.8594.019976 2.7917.087195.1413.237804.157.380487.1648.22195.0079.451823.0079.673773.0079H87.9689c.1982 0 .3963 0 .5945-.0079.4915-.0157.5707-.0942.5707-.5807v-3.7199c0-.0953.0015-.1814.0028-.2592.0115-.6651.0124-.7217-1.0095-.7217H69.4439c-.0584 0-.1159.0009-.1732.0017-.1136.0018-.226.0035-.342-.0017-.3805-.0157-.4756-.0942-.4756-.463-.0159-2.1032-.0159-4.1986 0-6.3018.0079-.5415.2378-.7534.7768-.7848.137-.0118.2785-.0103.4177-.0088.046.0005.0919.001.1372.001 1.0465 0 2.0937-.0034 3.1412-.0068 2.5149-.0082 5.0315-.0163 7.5441.0225 1.5775.0235 3.0677-.2904 4.5183-.8162 2.4573-.8946 3.6622-2.7781 4.0189-5.258.1348-.94174.103-1.89916.0713-2.84874-.0049-.13094-.0074-.26222-.01-.39355-.0098-.50623-.0196-1.01335-.1643-1.50561-.6025-2.09536-1.9976-3.46871-3.9714-4.339817-.6827-.309194-1.4054-.40756-2.1313-.506379-.0664-.009032-.1328-.018068-.1992-.027269ZM81.5009 5.63187H75.207c0-.01569 0-.03923-.0079-.05493-2.164 0-4.3281 0-6.4921-.00785-.2853 0-.3805.05494-.3805.361.0159 1.44399.0159 2.89583 0 4.33981-.0079.3218.111.3767.4043.3767 4.2329-.0078 8.4738-.0078 12.7067-.0078.1744 0 .3408-.0079.5073-.055 1.0463-.2904 1.7518-1.23208 1.8469-2.47988.111-1.45968-.8244-2.47205-2.2908-2.47205Z" fill="#333E67"/>
  <path d="M20.6767 32.7459c-.1902.8161-.3963 1.6323-.5549 2.4642-.0792.4002-.2378.5415-.65.5022-.2536-.0235-.3408-.102-.3884-.3296-.1506-.6984-.3091-1.3969-.4756-2.0953-.0317-.1334-.0317-.2826-.1744-.4474 0 .8633-.0158 1.6638.008 2.4721.0079.3531-.1348.4002-.4439.4002-.3092 0-.4043-.0863-.4043-.4002.0158-1.083.0158-2.166 0-3.249-.0079-.2982.0951-.3688.3884-.3688.864.0078.864-.0079 1.0622.8083.1744.7141.3409 1.4361.5787 2.1503.1981-.8476.4042-1.6873.5786-2.5348.0634-.3297.2061-.4395.547-.4317.7847.0236.7847.0079.7847.7926 0 .9653-.0079 1.9306.0079 2.8959.008.3139-.1506.3296-.3884.3217-.2298-.0078-.4359.0236-.428-.3296.0238-.8711.0079-1.7422.0079-2.6133-.0079 0-.0317-.0078-.0555-.0078ZM58.5821 35.265c-1.1494 1.0281-2.5128.4081-2.8933-.4473-.3567-.8005-.3487-1.6088.111-2.3622.6183-1.0359 2.3226-1.1693 3.0756-.2746.0555.0706.1189.1412.1585.2276.0714.1648.2458.3453.0793.5258-.1189.1255-.7293-.0079-.8085-.157-.1982-.3767-.5311-.4787-.9195-.463-.4122.0157-.7055.2197-.872.5729-.2299.5022-.2536 1.0359-.0555 1.5617.1586.4002.4836.6043.9195.6278.4202.0235.7452-.1177.9592-.4866.1347-.2276.1506-.4002-.2061-.3688-.0951.0078-.1823-.0079-.2774 0-.2537.0314-.3488-.0628-.3488-.3296.0079-.2433.0555-.361.3329-.3453.3567.0157.7134.0157 1.0701 0 .2378-.0079.325.0785.325.3139-.0158.4552.0079.9103-.0079 1.3655-.0079.157.1427.4081-.1903.463-.3012.055-.4439-.0785-.4518-.4238ZM5.23529 33.0756c0 .7691-.01585 1.5068.00793 2.2523.01585.3375-.13476.3767-.42012.3767-.27744 0-.39634-.0471-.39634-.361.01585-1.0908.01585-2.1895 0-3.2804 0-.2589.05549-.3531.34085-.3688.41219-.0235.64207.1177.83232.4709.38048.722.80853 1.4283 1.22072 2.1424.14269-.0863.09512-.204.09512-.2904.00793-.6278.01586-1.2478 0-1.8756-.00792-.2825.01586-.4473.38842-.4473.38841-.0078.41219.1648.41219.4709-.01585 1.0123 0 2.0325-.00792 3.0449 0 .1648.13475.4552-.15854.4787-.29329.0236-.64207.157-.8561-.2511-.38048-.7299-.81646-1.4283-1.23658-2.1346-.04756-.0942-.05548-.1962-.22195-.2276ZM30.1262 33.6875c0-.5493.0079-1.0987-.0079-1.6401-.0079-.2355.0475-.3532.325-.3453.7768.0156 1.5536.0156 2.3384 0 .2774-.0079.3329.102.325.3453 0 .2432-.0238.3923-.3329.3766-.4756-.0235-.9513.0157-1.4269-.0156-.3805-.0236-.3884.1648-.3884.4473 0 .2668.0079.4473.3647.4159.4201-.0314.8481.0079 1.2682-.0157.2616-.0157.3488.0706.3409.3296-.0079.2276 0 .4081-.325.3846-.436-.0236-.872.0078-1.3079-.0079-.2537-.0078-.3488.0628-.3409.3218.0238.8475-.0872.6749.6817.6906.4201.0078.8482.0157 1.2683 0 .2775-.0157.2933.1334.2854.3374-.0079.1962.0396.3924-.2854.3846-.8323-.0157-1.6646-.0079-2.4969 0-.222 0-.3012-.0707-.3012-.2904.0237-.5729.0158-1.1458.0158-1.7187ZM35.2791 31.5925c.7293 0 1.3.3061 1.4903.8162.0555.1491.1665.3218-.0079.463-.1427.1099-.658 0-.7452-.1334-.2536-.4002-.7054-.5572-1.1573-.3924-.1981.0706-.3408.1962-.3488.4238 0 .2197.1427.3296.333.3767.4201.1099.8402.2119 1.2603.3296.5787.1648.8324.4395.8799.926.0476.5337-.1902.9967-.6817 1.2164-.6738.2982-1.3634.2826-2.0213-.0471-.333-.1648-.539-.4551-.6104-.8161-.0396-.1962.0159-.2982.2378-.2904.2854.0079.5311-.0392.6896.3375.1744.4237 1.1891.4473 1.4744.0863.1982-.2511.1031-.5572-.2536-.6671-.4281-.1334-.872-.204-1.3-.3374-.5708-.1727-.7769-.4473-.8006-.981-.0238-.5493.2457-.981.7372-1.1772.2695-.102.5469-.1255.8243-.1334ZM47.0586 33.656c0-.5572.0079-1.1222 0-1.6794 0-.1962.0555-.2825.2695-.2747.8165.0079 1.6329.0079 2.4573 0 .3012-.0078.2537.1884.2616.3688.0079.1962.0159.361-.2774.3532-.5153-.0157-1.0305.0157-1.5458-.0078-.4122-.0157-.2933.2589-.3091.4708-.0159.2276-.0159.4081.3171.3846.4359-.0236.8719.0078 1.3079-.0157.2854-.0157.325.1177.3171.3453-.008.2119 0 .3845-.3013.3688-.4359-.0235-.8719.0079-1.3079-.0078-.2616-.0079-.3408.0863-.3329.3374.0238.8319-.0872.6592.6896.6749.4201.0079.8482.0157 1.2683 0 .2854-.0157.2774.157.2774.3453 0 .2041.0238.3846-.2853.3767-.8323-.0157-1.6646-.0157-2.497 0-.2536.0079-.3091-.102-.3012-.3217 0-.5729-.0079-1.1458-.0079-1.7187ZM3.65147 33.2874c-.02378.4081.04756.9182-.05549 1.4283-.12682.5965-.46768.9339-1.07804 1.0438-.30122.0549-.60244.0628-.90366.0157-.71341-.1099-1.141457-.4944-1.189018-1.2007-.047561-.8868-.023781-1.7736-.031707-2.6604 0-.1413.055487-.2041.206097-.2198.594508-.0784.665848-.0235.665848.5494 0 .7063-.00792 1.4047.00793 2.111.01585.5337.28537.7456.81646.722.43598-.0235.64207-.2197.67378-.7063.02378-.4002.01585-.8083.01585-1.2085 0-.4003.00793-.8083 0-1.2086-.00792-.3374.24573-.2511.4122-.2433.17439.0079.45975-.1334.45183.2355.00792.4159.00792.8318.00792 1.3419ZM13.9313 33.6954c0-.5571.0079-1.1222 0-1.6794-.0079-.2276.0555-.3296.3092-.3217.7926.0157 1.5774.0157 2.3701 0 .2774-.0079.2933.1334.2853.3374-.0079.1962.0397.4003-.2853.3846-.4439-.0157-.8958 0-1.3476-.0079-.3012-.0078-.5469-.0392-.539.4159.0079.4238.1823.4552.5152.4395.3964-.0235.7927.0079 1.189-.0078.2696-.0157.3092.1098.2933.3296-.0158.1883.0476.4002-.2774.3845-.4756-.0157-.9512 0-1.4189-.0078-.1982-.0079-.2695.0628-.2774.2668-.0317.7455-.0397.7455.7055.7455.4201 0 .8402.0157 1.2682-.0078.2933-.0157.2775.1648.2696.3531-.008.1727.0475.3767-.2537.3689-.8402-.0079-1.6884-.0079-2.5287 0-.214 0-.2695-.0942-.2695-.2825 0-.5651-.0079-1.138-.0079-1.7109ZM67.3184 33.2012c0 .4081.0159.8083 0 1.2164-.0317.8162-.4676 1.2635-1.2841 1.3733-.2378.0314-.4756.0236-.7134-.0078-.7531-.102-1.1811-.5101-1.2207-1.2556-.0397-.8555-.0238-1.7187-.0238-2.582 0-.4002.3091-.2119.4914-.2432.1982-.0314.3884-.0314.3805.2746-.0158.7848-.0158 1.5617 0 2.3465.0079.5494.2854.7769.8323.7455.4439-.0235.65-.2511.6659-.7533.0158-.7299.0238-1.4597 0-2.1896-.0079-.3374.0713-.4473.436-.4473.3725 0 .4835.1099.4518.463-.0396.3532-.0159.7063-.0159 1.0595ZM77.6073 33.7427c-.0079-.3532.0396-.6985.1744-1.0359.2774-.6985.8798-1.083 1.6646-1.083.8085 0 1.3793.361 1.6329 1.0045.111.2825.0951.4316-.2774.4081-.2775-.0157-.4835-.0079-.6579-.3296-.3013-.5651-1.1891-.4709-1.4824.1334-.2695.5493-.2774 1.1379-.0317 1.7029.1427.3375.4202.518.8086.5258.3646.0079.6262-.1569.7768-.4865.0951-.2041.6738-.3532.8482-.2198.1347.0942.0317.2198 0 .314-.2141.6906-.8244 1.1222-1.5775 1.1379-.7926.0235-1.4426-.3846-1.7122-1.083-.1189-.3139-.1664-.6435-.1664-.9888ZM50.7753 33.6486c0-.5494.0159-1.0987-.0079-1.6402-.0159-.3689.214-.3139.436-.3139.214 0 .4518-.0707.4439.306-.0238.8476.0158 1.6951-.0159 2.5427-.0159.3767.1189.463.4677.4395.4201-.0236.8402.0078 1.2683-.0079.2774-.0157.3012.1334.2853.3375-.0079.1883.0476.3924-.2774.3924-.761-.0157-1.5299-.0157-2.2909 0-.2536.0078-.3091-.102-.3012-.3296 0-.5729-.0079-1.1537-.0079-1.7265Z" fill="#333E67"/>
  <path fill-rule="evenodd" clip-rule="evenodd" d="M29.3137 35.6581c.0101-.0072.0215-.0153.0348-.0241-.1376-.1858-.1469-.3961-.1564-.6115-.0025-.0575-.005-.1154-.01-.1732-.0019-.04-.0031-.0804-.0043-.1208-.0091-.3083-.0185-.6216-.3128-.8367-.1189-.0863-.0634-.1334.0238-.204.4201-.3375.4914-.7769.317-1.2635-.1902-.5023-.6024-.7063-1.1176-.7142-.2894-.0039-.5787-.0039-.868-.0039-.2894 0-.5787 0-.868-.0039-.214-.0078-.3012.0549-.3012.2825.0079 1.1458.0158 2.2916 0 3.4373-.0067.3029.1652.2909.3331.2792.0322-.0023.0643-.0045.0949-.0045.0296 0 .0599.0015.09.0029.1792.0087.3516.017.3381-.2854-.0106-.2139-.0071-.4279-.0036-.6441.0018-.109.0036-.2186.0036-.329 0-.0152-.0006-.0308-.0011-.0464-.003-.0895-.0062-.1827.0883-.2362.5469-.3139 1.3158.1021 1.3396.722.0195.4448-.0072.6532.0841.7474.0939.097.3127.0729.8354.061.0171 0 .0343-.0123.0603-.0309Zm-1.59-3.2533c-.0608-.0035-.1216-.007-.1823-.0122-.354.0118-.5084-.01-.5764.0566-.0676.0661-.0499.2193-.0578.579 0 .0471.002.0923.004.1374s.004.0902.004.1373c.0079.102.0554.1727.1664.1727.0888 0 .1782.0032.2676.0064.2539.0091.5088.0182.755-.0457.2536-.0706.3488-.2511.3408-.5022-.0079-.2433-.0951-.4395-.3567-.4944-.1215-.021-.2431-.0279-.3646-.0349ZM62.3092 34.9199c.0159.8632.0555.8946 1.0067.7298-.1267-.2007-.1318-.4164-.1369-.6272-.0013-.0529-.0025-.1056-.0057-.1576-.0032-.0465-.0053-.0933-.0075-.14-.0143-.3081-.0285-.614-.3175-.8252-.111-.0864-.0635-.1334.0237-.2041.4202-.3374.4994-.7847.325-1.2635-.1902-.5022-.5945-.7141-1.1176-.722-.2894-.0039-.5787-.0039-.868-.0039s-.5787 0-.868-.0039c-.214-.0078-.3012.0549-.3012.2825.0079 1.1458.0158 2.2916 0 3.4373-.0067.2992.1686.2886.338.2784.0306-.0019.0609-.0037.09-.0037.0283 0 .0575.0014.0868.0029.176.0086.3537.0174.3333-.2854-.0142-.1932-.0114-.3891-.0085-.5845.0019-.1302.0038-.26.0006-.3886-.0079-.2119.0634-.3218.2933-.2982.069.0052.1415.0034.2129.0017.0352-.0009.0701-.0017.1042-.0017.7055 0 .8006.0941.8164.7769Zm-1.0599-1.4311c.0713-.0095.1416-.019.1972-.0052.0543-.0018.1069-.0023.1582-.0029.1737-.0019.3327-.0036.4918-.052.222-.0707.3091-.2276.3171-.4395 0-.2119-.0317-.4238-.2695-.5101-.2848-.102-.5742-.0847-.8646-.0675-.0896.0054-.1793.0107-.269.0126-.0317.0078-.0951.0627-.103.0941-.0036.0325-.0074.0653-.0113.0983-.0307.2633-.0635.5436.0351.7807.0514.1273.1863.1092.318.0915ZM75.5817 33.9405c.0067-.0738.013-.1434.0212-.2055-.0111-.1021-.017-.1923-.0226-.2769-.0064-.0976-.0123-.1878-.025-.2803-.1348-.7377-.4835-1.3184-1.2524-1.5068-.8006-.1962-1.5933-.1491-2.1561.5651-.5073.6513-.5153 1.4126-.3488 2.166.2061.9181.9116 1.4282 1.8707 1.4204.975-.0078 1.6409-.518 1.8549-1.4361.0312-.1493.0453-.3053.0581-.4459Zm-2.8331-1.1002c-.1427.2668-.1982.5572-.1902.7534 0 .4002.0475.6827.1743.9417.1903.3689.4994.5494.9196.5494.428 0 .7451-.1962.9115-.5729.2537-.5494.2537-1.1144-.0079-1.6559-.1665-.3532-.4677-.5415-.8799-.5494-.4201-.0078-.7292.1727-.9274.5337ZM43.0016 33.1373c-.0009.1866-.0018.3729-.0018.5584 0 .15.0021.3006.0043.452.005.3556.01.715-.0122 1.0783-.0238.3688.0634.5258.4677.4866.2796-.0272.5631-.0205.8477-.0138.1268.0029.2539.0059.3809.0059.8165 0 1.3079-.3453 1.5775-1.1065.1585-.4395.1981-.8947.1347-1.3498-.1506-1.0595-.7055-1.5303-1.7835-1.5382-.1869-.0034-.3737-.0024-.5606-.0014-.2491.0012-.4982.0025-.7473-.0064-.2458-.0157-.3171.0784-.3092.3139.0053.3717.0035.747.0018 1.121Zm.8166.2379c-.0009.1168-.0018.2339-.0018.3519v.9732c0 .0145-.0005.0293-.001.044-.0029.0884-.0058.1768.0961.2306.325.1805 1.2049-.0314 1.3951-.361.333-.5964.3488-1.2399.0555-1.8363-.1935-.4018-.574-.3898-.9438-.378-.0996.0031-.1985.0063-.2928.0013h-.0396c-.2061-.0236-.2774.0784-.2695.2746.0053.2352.0035.4668.0018.6997ZM40.9413 35.6929c.0507.0019.1045.0038.1633.0038-.017-.0674-.0311-.1261-.0442-.1805-.0173-.0722-.0329-.1369-.0509-.204-.1824-.5023-.3627-1.0045-.543-1.5068-.1804-.5022-.3607-1.0045-.543-1.5068-.235-.6437-.2378-.6436-.9188-.6132-.0081.0004-.0162.0008-.0245.0011-.1665.0079-.2616.055-.3171.2198-.21.5885-.4221 1.1771-.6341 1.7657-.2121.5886-.4241 1.1772-.6342 1.7658-.0047.0139-.0106.0281-.0166.0426-.0244.0587-.0501.1204.0008.1771.1268.1491.8244 0 .8957-.1884.2378-.5885.2378-.5885.8799-.5885.0452 0 .0904.0017.1353.0035.089.0035.1767.0069.261-.0035.3012-.0393.4836.0706.5153.3767.0396.3766.2536.4944.6183.4394.082-.0101.164-.0071.2568-.0038Zm-1.458-2.2047c-.0752-.2341-.1533-.4771-.2426-.7421-.1735.2445-.2347.4668-.2922.6761-.0108.0393-.0215.0781-.0328.1165-.1186.3642-.2077.5252-.1607.596.0471.0711.2313.0514.6601.0553h.0397c.1664.0079.2457-.0392.1823-.2275-.0517-.1567-.1021-.3134-.1538-.4743ZM10.7769 32.1181c-.111-.314-.2458-.518-.6263-.4081-.0538.0085-.113.0031-.17262-.0023-.15974-.0146-.32304-.0294-.39807.222-.25219.725-.51329 1.4442-.77421 2.1628-.16553.456-.331.9118-.49408 1.3687-.00476.0141-.01078.0283-.01681.0424-.02409.0565-.04819.113.00888.1695.15061.1413.84817-.0079.87988-.204.07927-.5023.36463-.6593.84813-.5808.1665.0236.3488.0157.5153 0 .2457-.0235.3805.0785.4122.3061.0555.4395.3091.5493.7292.5179.2933-.0235.3567-.0706.2458-.361-.4043-1.0673-.7848-2.1503-1.1573-3.2332Zm-.2142 1.8834c-.1347-.4158-.2694-.8317-.4359-1.3496l-.44386 1.3184c-.02378.0864-.03964.1962.09512.2041.22984.0078.46764.0078.70544 0 .1189 0 .1031-.0942.0793-.1727l-.0001-.0002ZM84.1232 32.1337c-.1189-.3375-.2615-.5337-.65-.4316-.0598.0148-.1259.0079-.1921.0009-.1443-.0151-.2891-.0303-.3707.1796-.2665.7568-.5394 1.5105-.8127 2.265-.1574.4347-.3149.8697-.4714 1.3057-.0041.0122-.0092.0247-.0143.0372-.0244.0601-.0499.1228.0222.1747.1506.1256.8403-.0079.864-.1805.0714-.5964.4598-.6592.9513-.6043.1347.0157.2695.0157.3963 0 .2457-.0314.3963.0471.436.3139.0555.4003.2853.5337.7055.5101.3725-.0157.3646-.1255.2616-.4081-.3885-1.0437-.769-2.1032-1.1257-3.1626Zm-.4658 1.1352c-.0529-.1629-.1061-.3266-.1606-.4916-.0237 0-.0554 0-.0792.0079-.0872.2433-.1744.4944-.2537.7377-.2378.7141-.2061.7534.5628.667h.0397c.1506 0 .1664-.0784.1268-.204-.0803-.2385-.1578-.4769-.2358-.717ZM68.1375 33.1161c-.0008.1822-.0017.3648-.0017.5482 0 .1432-.0005.2864-.001.4297-.0015.4296-.003.8593.0089 1.2889 0 .0172-.0011.0353-.0023.0538-.0057.0912-.0119.1922.1133.2444.3963.1727.7372-.0314.7451-.4551 0-.0816-.0065-.1685-.0131-.2558-.0174-.2319-.0351-.4671.0686-.6153.1116-.1474.3301-.1218.5503-.0961.1083.0126.217.0253.3137.0176.2299-.0157.4439-.0549.6579-.1334.1744-.0628.333-.1648.4281-.3296.2695-.4866.3012-.9967.0634-1.499-.214-.463-.65-.5885-1.1177-.6042-.2538-.0079-.5057-.0059-.7566-.004-.2505.002-.5.004-.7495-.0039-.2616-.0157-.3171.102-.3091.3218.0053.3659.0035.7284.0017 1.092Zm1.3382-.7152c-.4835 0-.4835 0-.4835.5729 0 .5964 0 .5964.4518.5964.6976 0 .9037-.1412.9037-.5964 0-.4473-.1982-.5729-.872-.5729ZM23.7686 31.696c-.1096.0016-.216.0032-.3175-.0015-.1038 0-.202.0019-.2969.0037-.1801.0034-.3481.0066-.5195-.0037-.2537-.0157-.3171.0785-.3171.314.0159 1.1222.0238 2.2444 0 3.3666-.0074.3394.1742.332.3869.3234.0136-.0006.0274-.0011.0412-.0016.0341-.0012.0697-.0003.1052.0006.1869.005.372.0099.3387-.3067-.0106-.0944-.0071-.1924-.0035-.2892.0017-.0479.0035-.0956.0035-.1424 0-.6906 0-.6906.6817-.6906.2219 0 .4439-.0078.6658-.0628.5787-.1491.8244-.4865.8403-1.1614.0158-.7142-.2379-1.1144-.8007-1.2792-.2727-.0772-.5494-.0731-.8081-.0692Zm-.4962.7691c-.0742.0692-.0742.2179-.0742.5321 0 .3043 0 .4469.0713.515.0629.0601.1813.062.4044.0657.6262 0 .8719-.1648.8719-.5964 0-.416-.2299-.5729-.8402-.5729-.2401-.0037-.3666-.0057-.4332.0565ZM87.3496 31.6953c-.1095.0019-.2154.0038-.3153-.0011-.0873 0-.1697.0014-.2486.0028-.1863.0031-.3533.0059-.5203-.0106-.2695-.0236-.3567.0785-.3567.3531.0158 1.083.0158 2.1582 0 3.2412-.0079.3217.0793.4316.4122.4237.3171-.0078.4677-.0784.4201-.4159-.0053-.0625-.0035-.1215-.0018-.1817.0009-.0305.0018-.0613.0018-.093 0-.7455 0-.7455.7372-.7455.214 0 .4201-.0079.6262-.0628.5866-.1491.8403-.5022.8482-1.1928.0079-.7063-.2537-1.0987-.8323-1.2557-.2581-.0707-.5237-.066-.7707-.0617Zm-.109.7052c-.4994 0-.4994 0-.4994.6043 0 .5651 0 .5651.4915.5651.6579 0 .8561-.1335.864-.5808.0079-.4552-.1902-.5886-.8561-.5886Z" fill="#333E67"/>
</svg>