<svg width="64" height="64" viewBox="0 0 64 64" fill="none" xmlns="http://www.w3.org/2000/svg">
<path opacity="0.6" d="M50.1706 50.1324L36.5094 58.3348C36.1085 58.5755 35.6522 58.7039 35.1869 58.7071C34.7215 58.7102 34.2636 58.5881 33.8595 58.3529C33.4555 58.1178 33.1196 57.7781 32.886 57.3682C32.6523 56.9582 32.5292 56.4927 32.5291 56.0187L32.5291 35.5383C32.5297 35.0645 32.6531 34.5993 32.887 34.1898C33.1208 33.7802 33.4567 33.4408 33.8607 33.206C34.2647 32.9712 34.7224 32.8493 35.1875 32.8526C35.6526 32.8559 36.1087 32.9843 36.5094 33.2248L50.1706 41.4272L52.4904 42.9017C54.6029 44.2444 54.6026 47.3168 52.4898 48.6591L50.1706 50.1324Z" fill="#FF7D00"></path>
<g style="mix-blend-mode:multiply">
<path d="M9 45.4628V6.59965C9 6.1751 9.16835 5.7684 9.46828 5.46847C9.76821 5.16854 10.1749 5 10.5995 5H42.0485C42.4731 5 42.8798 5.16854 43.1797 5.46847C43.4796 5.7684 43.6482 6.1751 43.6482 6.59965V45.4628C43.6471 45.9141 43.4554 46.344 43.1204 46.6465C41.9799 47.6688 40.2509 47.6627 39.1176 46.6324L38.2093 45.8067C37.9908 45.6071 37.7059 45.496 37.4095 45.495C37.1139 45.4975 36.8293 45.6085 36.6097 45.8067H36.61C34.9694 47.3022 32.4598 47.3022 30.8191 45.8067C30.3636 45.3996 29.6747 45.3996 29.2195 45.8067C27.5759 47.3049 25.0424 47.2937 23.3886 45.8067C22.9334 45.3996 22.2446 45.3996 21.789 45.8067H21.7893C20.1487 47.3022 17.6391 47.3022 15.9984 45.8067C15.5429 45.3996 14.8541 45.3996 14.3988 45.8067L13.4783 46.6458C12.3592 47.666 10.6473 47.6663 9.52774 46.6465C9.19282 46.344 9.00107 45.9141 9 45.4628Z" fill="url(#paint0_linear_501_667)"></path>
</g>
<path d="M25.3229 19.5377V18.3616C25.3229 17.8743 25.7185 17.4795 26.2066 17.4795C26.6947 17.4795 27.0903 17.8743 27.0903 18.3616V19.5377H28.0506C28.5387 19.5377 28.9342 19.9326 28.9342 20.4198C28.9342 20.9071 28.5387 21.3019 28.0506 21.3019H25.3229C24.8513 21.3019 24.4158 21.5529 24.1801 21.9606C23.9442 22.3681 23.9442 22.8703 24.1801 23.2778C24.4158 23.6855 24.8513 23.9365 25.3229 23.9365H27.0903C27.908 23.9365 28.6923 24.2604 29.2712 24.8369C29.8498 25.4137 30.1759 26.1958 30.1775 27.012V27.0886C30.1759 27.9054 29.85 28.6883 29.2714 29.2658C28.6928 29.8434 27.9086 30.1684 27.0903 30.17V31.3461C27.0903 31.8334 26.6947 32.2282 26.2066 32.2282C25.7185 32.2282 25.3229 31.8334 25.3229 31.3461V30.17H23.7381C23.2502 30.17 22.8544 29.7751 22.8544 29.2879C22.8544 28.8009 23.2502 28.4058 23.7381 28.4058H27.0903C27.4404 28.4058 27.776 28.2672 28.0234 28.0201C28.2709 27.7731 28.41 27.4378 28.41 27.0887V27.012C28.41 26.6634 28.2706 26.3289 28.0232 26.0827C27.7754 25.8367 27.4398 25.6991 27.0903 25.7007H25.3229C24.2201 25.7007 23.201 25.1134 22.6495 24.1599C22.098 23.2066 22.098 22.0318 22.6495 21.0785C23.201 20.125 24.2201 19.5377 25.3229 19.5377Z" fill="#F6FBFF"></path>
<defs>
<linearGradient id="paint0_linear_501_667" x1="12.2916" y1="52.7255" x2="59.4835" y2="27.7692" gradientUnits="userSpaceOnUse">
<stop stop-color="#FF7D00"></stop>
<stop offset="0.1362" stop-color="#FC771C"></stop>
<stop offset="0.470306" stop-color="#F56565"></stop>
<stop offset="0.92371" stop-color="#EA4AD8"></stop>
<stop offset="0.981571" stop-color="#E640FF"></stop>
</linearGradient>
</defs>
</svg>
