<svg width="129" height="31" viewBox="0 0 129 31" fill="none" xmlns="http://www.w3.org/2000/svg">
  <path fill-rule="evenodd" clip-rule="evenodd" d="M125.483.367432H9.21418c-1.08709 0-2.00123.587044-2.39654 1.467608-.07411.1223-.12353.26906-.14824.41582L.764549 27.4204c0 .0244-.006177.0489-.012353.0733-.006177.0245-.012353.049-.012353.0734-.024707.1957-.049413.3914-.049413.5382 0 1.4676 1.21062 2.6661 2.6683 2.6661H119.628c1.185 0 2.248-.8316 2.544-2.0057v-.0489l5.856-25.07171c.014-.02747.02-.05494.027-.08675v-.0001c.005-.0248.011-.05224.022-.08437v-.00009c.025-.14673.05-.29347.05-.51357 0-1.46761-1.162-2.592778-2.644-2.592778ZM9.21418 1.95734 125.483 1.93288c.031 0 .061.00104.091.0031-.03-.00205-.06-.00306-.091-.00306L9.21431 1.95738c-.49413 0-.88944.2446-1.01297.70935L2.27178 27.7873c0 .0341-.00532.0839-.01103.1374-.00658.0617-.01368.1282-.01368.1806.0172.4086.24981.7816.58957.9707-.33983-.189-.5725-.5621-.5897-.9707 0-.0525.0071-.119.01368-.1807.0057-.0534.01103-.1033.01103-.1373L8.20121 2.66669c.12353-.46475.51884-.70935 1.01297-.70935Zm117.33082.95395c0-.13373-.024-.2573-.069-.3684.045.11111.07.23467.07.36844 0 .07338 0 .1223-.025.19568l-5.905 25.21839v.0245c-.124.4647-.519.8561-1.013.8561H3.33416c-.07417 0-.1464-.008-.21607-.0233.06963.0152.14182.0233.21594.0233H119.603c.494 0 .889-.3914 1.013-.8561v-.0245l5.905-25.21843c.024-.07336.024-.12227.024-.19561v-.00007ZM63.7417 9.46665c1.1612-1.10071 2.5448-1.71221 4.6448-2.03019 2.8907-.46475 6.6214 0 8.2026.9784 1.1118.70935 1.5812 1.58994 1.5812 3.00864v.8561h-5.4354v-.2936c0-.4647-.3212-.9784-.7165-1.174-.9388-.4648-3.1624-.4159-4.0766.1223-.8153.4647-1.1365 1.492-.5929 1.8589.1482.0979 1.853.4648 3.7554.8072 1.9271.3425 3.7801.7338 4.1259.8806 1.7048.6604 2.3472 1.8834 1.9766 3.7179-.5189 2.6173-2.3966 4.4518-5.3366 5.2345-2.273.587-6.3002.6604-8.425.1223-2.4706-.636-3.5824-2.0546-3.3353-4.2071l.0741-.636h5.6578v.4647c.0247.954.8894 1.4187 2.6683 1.4187 1.0129 0 1.9518-.2201 2.3718-.5626.6671-.5625.9388-1.5654.5188-1.9079-.4447-.3669-.7906-.4647-3.9777-1.0273-3.286-.587-3.9778-.7827-4.6448-1.3453-1.5318-1.2719-1.0377-4.4028.9635-6.28625ZM10.5723 23.4579h4.7436l1.5318-6.2862h8.3261l.7659-3.1554h-8.3014l.7412-2.9108h8.9191l.7906-3.37546H14.4759L10.5723 23.4579Zm29.4509 0H26.6816c0-.0489 3.879-15.72786 3.879-15.72786h4.6942c-.1235.44028-3.0142 12.13226-3.0142 12.13226h8.6473l-.8647 3.5956Zm4.4218-7.8762-1.9518 7.8761h14.305l.8401-3.351h-9.5615l.6918-2.9108H57.7865l.7412-3.1309h-8.9932l.7165-2.9107h9.6108l.3459-1.44318c.0525-.20772.1049-.41372.1542-.60702l.0001-.00065c.1362-.5348.2476-.97231.2657-1.08008l.0742-.2446H46.3721L44.445 15.5817Zm41.1862 1.59h3.7554l-.5188-5.4536c-.0138.0875-3.2366 5.4536-3.2366 5.4536Zm-3.7554 6.2618h-5.0154L87.0147 7.70563H92.7713l2.2978 15.72787h-5.0896l-.1976-2.5438h-6.399l-1.5071 2.5438ZM99.8614 7.70543c0 .04892-3.7802 15.38547-3.879 15.72787h4.5706l2.545-9.9308 4.447 9.9064h5.263l3.854-15.72793h-4.522c-.024.07338-2.52 10.00423-2.52 10.00423l-4.274-9.97977h-5.4846Zm20.7546 1.56565h-.346v-.53813h.321c.148 0 .247 0 .297.02446.049.02446.098.04893.123.09785.025.04892.05.09784.05.14676 0 .07338-.05.14676-.099.19568-.074.04892-.173.07338-.346.07338Zm-.643-.78273.025 1.76115v.0489h.297v-.75826h.173c.098 0 .172 0 .222.04892.074.04892.173.19568.296.41584l.149.269h.346l-.223-.3424c-.057-.0678-.103-.13038-.144-.18533-.048-.06399-.088-.11763-.128-.15711-.024-.04892-.074-.07338-.148-.09784.148-.02446.272-.07338.371-.17122.074-.09784.123-.22014.123-.34244 0-.09785-.024-.19568-.074-.26907-.049-.07338-.123-.14676-.222-.17122-.074-.02446-.247-.04892-.445-.04892h-.618Zm.075-.34244c.222-.1223.444-.17122.667-.17122.222 0 .444.07338.716.17122.222.1223.395.29352.519.51366.123.22015.198.44029.198.68489 0 .2446-.05.46474-.173.68484-.124.2202-.297.3914-.519.5137-.223.1223-.445.1712-.692.1712-.247 0-.469-.0489-.692-.1712-.222-.1223-.395-.2935-.519-.5137-.123-.2201-.197-.44024-.197-.68484 0-.2446.049-.46474.173-.68489.123-.22014.296-.39136.519-.51366Zm1.482-.22014c-.272-.14676-.544-.22014-.815-.22014-.297 0-.569.07338-.791.22014-.272.14676-.469.34244-.618.6115-.148.26907-.222.53813-.222.83165 0 .26906.074.53812.222.80718.149.2691.346.4647.618.6115.247.1468.519.2201.815.2201.272 0 .544-.0733.816-.2201.247-.1468.444-.3424.593-.6115.148-.2446.222-.51366.222-.80718s-.074-.56258-.222-.83165c-.149-.26906-.346-.46474-.618-.6115Z" fill="#333E67"/>
</svg>