<svg width="64" height="64" viewBox="0 0 64 64" fill="none" xmlns="http://www.w3.org/2000/svg">
<rect opacity="0.6" x="35.5445" y="29.6506" width="20.5253" height="29.9428" rx="2.54437" fill="#FF7D00"/>
<path d="M42.7818 33.2846C42.7818 32.7309 43.2307 32.282 43.7844 32.282H47.7948C48.3485 32.282 48.7975 32.7309 48.7975 33.2846C48.7975 33.8383 48.3485 34.2872 47.7948 34.2872H43.7844C43.2307 34.2872 42.7818 33.8383 42.7818 33.2846Z" fill="#F6F8FC"/>
<path d="M46.7929 55.3417C46.7929 55.8954 46.3439 56.3444 45.7903 56.3444C45.2366 56.3444 44.7877 55.8954 44.7877 55.3417C44.7877 54.7881 45.2366 54.3391 45.7903 54.3391C46.3439 54.3391 46.7929 54.7881 46.7929 55.3417Z" fill="#F6F8FC"/>
<g style="mix-blend-mode:multiply">
<g style="mix-blend-mode:multiply">
<path d="M7.00006 44.4086C7.00089 45.1447 7.29376 45.8503 7.81383 46.3708C8.33432 46.8908 9.03989 47.1837 9.776 47.1845H38.4033C39.1394 47.1837 39.8449 46.8908 40.3654 46.3708C40.8855 45.8503 41.1784 45.1447 41.1792 44.4086V15.9761C41.1792 15.3374 40.6614 14.8196 40.0227 14.8196H8.15665C7.51792 14.8196 7.00012 15.3374 7.00012 15.9761L7.00006 44.4086Z" fill="url(#paint0_linear_501_652)"/>
</g>
<g style="mix-blend-mode:multiply">
<path d="M7 11.2459C7 11.8846 7.5178 12.4024 8.15653 12.4024H40.0225C40.6613 12.4024 41.1791 11.8846 41.1791 11.2459V8.7012V6.15653C41.1791 5.5178 40.6613 5 40.0225 5H8.15653C7.5178 5 7 5.5178 7 6.15653V11.2459ZM31.926 7.85521H36.5525C37.0635 7.85521 37.4779 8.26954 37.4779 8.78051C37.4779 9.29149 37.0635 9.70581 36.5525 9.70581H31.926C31.4151 9.70581 31.0007 9.29149 31.0007 8.78051C31.0007 8.26954 31.4151 7.85521 31.926 7.85521ZM11.6265 7.85521H16.253C16.764 7.85521 17.1783 8.26954 17.1783 8.78051C17.1783 9.29149 16.764 9.70581 16.253 9.70581H11.6265C11.1155 9.70581 10.7012 9.29149 10.7012 8.78051C10.7012 8.26954 11.1155 7.85521 11.6265 7.85521Z" fill="url(#paint1_linear_501_652)"/>
</g>
<path d="M15.0963 31.2947H12.281C11.6423 31.2947 11.1245 31.8125 11.1245 32.4512V34.9626C11.1245 35.6014 11.6423 36.1192 12.281 36.1192H15.0963C15.735 36.1192 16.2528 35.6014 16.2528 34.9626V32.4512C16.2528 31.8125 15.735 31.2947 15.0963 31.2947Z" fill="#FFFCFC"/>
<path d="M15.0963 21.7578H12.281C11.6423 21.7578 11.1245 22.2756 11.1245 22.9143V25.4258C11.1245 26.0645 11.6423 26.5823 12.281 26.5823H15.0963C15.735 26.5823 16.2528 26.0645 16.2528 25.4258V22.9143C16.2528 22.2756 15.735 21.7578 15.0963 21.7578Z" fill="#FFFCFC"/>
</g>
<defs>
<linearGradient id="paint0_linear_501_652" x1="10.2471" y1="50.3725" x2="50.2179" y2="22.3818" gradientUnits="userSpaceOnUse">
<stop stop-color="#FF7D00"/>
<stop offset="0.1362" stop-color="#FC771C"/>
<stop offset="0.470306" stop-color="#F56565"/>
<stop offset="0.92371" stop-color="#EA4AD8"/>
<stop offset="0.981571" stop-color="#E640FF"/>
</linearGradient>
<linearGradient id="paint1_linear_501_652" x1="10.247" y1="13.1315" x2="15.9892" y2="-4.44972" gradientUnits="userSpaceOnUse">
<stop stop-color="#FF7D00"/>
<stop offset="0.1362" stop-color="#FC771C"/>
<stop offset="0.470306" stop-color="#F56565"/>
<stop offset="0.92371" stop-color="#EA4AD8"/>
<stop offset="0.981571" stop-color="#E640FF"/>
</linearGradient>
</defs>
</svg>