<svg width="233" height="152" viewBox="0 0 233 152" fill="none" xmlns="http://www.w3.org/2000/svg">
<path opacity="0.4" d="M14.5497 53.7111L30.2289 19.7085C30.4201 19.291 30.7256 18.9368 31.1097 18.687C31.4938 18.4372 31.9407 18.3023 32.3982 18.2979L58.609 18.2979C59.0116 18.3007 59.4071 18.4049 59.7592 18.6009C60.1114 18.797 60.4089 19.0785 60.6247 19.4199C60.8405 19.7612 60.9677 20.1515 60.9945 20.5549C61.0214 20.9583 60.947 21.3621 60.7784 21.7292L45.0883 55.7046C44.8987 56.1233 44.5936 56.4787 44.2091 56.7287C43.8247 56.9787 43.377 57.1129 42.919 57.1153L16.7624 57.1153C16.3597 57.1176 15.9628 57.0185 15.6081 56.827C15.2534 56.6354 14.9522 56.3576 14.7321 56.019C14.5119 55.6803 14.3799 55.2916 14.348 54.8884C14.3162 54.4852 14.3855 54.0804 14.5497 53.7111Z" fill="white"/>
<path opacity="0.9" d="M3.57048 42.3403L19.2497 8.33769C19.4409 7.9202 19.7464 7.56591 20.1305 7.31614C20.5146 7.06637 20.9615 6.93141 21.419 6.927L47.6299 6.927C48.0325 6.92988 48.4279 7.03409 48.78 7.2301C49.1322 7.42611 49.4298 7.70767 49.6456 8.04902C49.8614 8.39037 49.9885 8.78061 50.0153 9.18405C50.0422 9.58749 49.9679 9.99125 49.7992 10.3584L34.1091 44.3338C33.9195 44.7525 33.6144 45.1078 33.2299 45.3579C32.8455 45.6079 32.3978 45.742 31.9398 45.7444L5.78319 45.7444C5.38049 45.7468 4.98362 45.6477 4.62893 45.4561C4.27423 45.2646 3.97304 44.9868 3.7529 44.6481C3.53276 44.3094 3.40071 43.9207 3.36884 43.5175C3.33697 43.1144 3.4063 42.7096 3.57048 42.3403Z" fill="white"/>
<path d="M77.0043 59.0005V48.8187H80.8224C81.6046 48.8187 82.2609 48.9645 82.7912 49.2562C83.3248 49.5478 83.7275 49.9489 83.9993 50.4593C84.2744 50.9664 84.4119 51.5431 84.4119 52.1894C84.4119 52.8423 84.2744 53.4224 83.9993 53.9295C83.7242 54.4366 83.3182 54.836 82.7812 55.1276C82.2443 55.416 81.5831 55.5601 80.7976 55.5601H78.267V54.0438H80.549C81.0064 54.0438 81.3809 53.9643 81.6726 53.8052C81.9643 53.6461 82.1797 53.4273 82.3189 53.1489C82.4614 52.8705 82.5327 52.5507 82.5327 52.1894C82.5327 51.8281 82.4614 51.51 82.3189 51.2349C82.1797 50.9598 81.9626 50.746 81.6676 50.5935C81.3759 50.4378 80.9998 50.3599 80.5391 50.3599H78.8487V59.0005H77.0043ZM85.9345 59.0005V51.3641H87.6795V52.6369H87.7591C87.8983 52.196 88.1369 51.8563 88.475 51.6177C88.8163 51.3757 89.2058 51.2547 89.6433 51.2547C89.7427 51.2547 89.8538 51.2597 89.9764 51.2697C90.1023 51.2763 90.2067 51.2879 90.2896 51.3045V52.96C90.2134 52.9335 90.0924 52.9103 89.9267 52.8904C89.7643 52.8672 89.6068 52.8556 89.4544 52.8556C89.1262 52.8556 88.8313 52.9269 88.5694 53.0694C88.3109 53.2086 88.1071 53.4025 87.9579 53.6511C87.8088 53.8996 87.7342 54.1863 87.7342 54.5111V59.0005H85.9345ZM94.5018 59.1496C93.756 59.1496 93.1097 58.9856 92.5629 58.6574C92.016 58.3293 91.5917 57.8703 91.2901 57.2803C90.9918 56.6904 90.8427 56.001 90.8427 55.2121C90.8427 54.4233 90.9918 53.7323 91.2901 53.139C91.5917 52.5457 92.016 52.085 92.5629 51.7569C93.1097 51.4288 93.756 51.2647 94.5018 51.2647C95.2475 51.2647 95.8938 51.4288 96.4407 51.7569C96.9876 52.085 97.4102 52.5457 97.7085 53.139C98.0101 53.7323 98.1609 54.4233 98.1609 55.2121C98.1609 56.001 98.0101 56.6904 97.7085 57.2803C97.4102 57.8703 96.9876 58.3293 96.4407 58.6574C95.8938 58.9856 95.2475 59.1496 94.5018 59.1496ZM94.5117 57.7079C94.9161 57.7079 95.2541 57.5968 95.5259 57.3748C95.7977 57.1494 95.9999 56.8478 96.1325 56.4699C96.2683 56.0921 96.3363 55.6712 96.3363 55.2072C96.3363 54.7398 96.2683 54.3172 96.1325 53.9394C95.9999 53.5583 95.7977 53.255 95.5259 53.0296C95.2541 52.8042 94.9161 52.6915 94.5117 52.6915C94.0974 52.6915 93.7527 52.8042 93.4776 53.0296C93.2058 53.255 93.002 53.5583 92.8661 53.9394C92.7335 54.3172 92.6673 54.7398 92.6673 55.2072C92.6673 55.6712 92.7335 56.0921 92.8661 56.4699C93.002 56.8478 93.2058 57.1494 93.4776 57.3748C93.7527 57.5968 94.0974 57.7079 94.5117 57.7079ZM101.488 54.5261V59.0005H99.6884V51.3641H101.409V52.6617H101.498C101.674 52.2342 101.954 51.8944 102.338 51.6425C102.726 51.3906 103.205 51.2647 103.775 51.2647C104.302 51.2647 104.761 51.3774 105.152 51.6028C105.547 51.8281 105.852 52.1546 106.067 52.5822C106.286 53.0097 106.393 53.5284 106.39 54.1383V59.0005H104.59V54.4167C104.59 53.9063 104.458 53.5069 104.193 53.2185C103.931 52.9302 103.568 52.786 103.104 52.786C102.789 52.786 102.509 52.8556 102.264 52.9948C102.022 53.1307 101.831 53.3279 101.692 53.5864C101.556 53.8449 101.488 54.1582 101.488 54.5261ZM112.033 51.3641V52.7562H107.643V51.3641H112.033ZM108.727 49.5346H110.526V56.7036C110.526 56.9456 110.563 57.1312 110.636 57.2604C110.712 57.3864 110.811 57.4726 110.934 57.519C111.057 57.5654 111.193 57.5886 111.342 57.5886C111.454 57.5886 111.557 57.5803 111.65 57.5637C111.746 57.5471 111.819 57.5322 111.869 57.519L112.172 58.9259C112.076 58.9591 111.938 58.9955 111.759 59.0353C111.584 59.0751 111.368 59.0983 111.113 59.1049C110.662 59.1181 110.256 59.0502 109.895 58.9011C109.534 58.7486 109.247 58.5133 109.035 58.1951C108.826 57.8769 108.723 57.4792 108.727 57.0019V49.5346ZM116.787 59.1496C116.041 59.1496 115.395 58.9856 114.848 58.6574C114.301 58.3293 113.877 57.8703 113.575 57.2803C113.277 56.6904 113.128 56.001 113.128 55.2121C113.128 54.4233 113.277 53.7323 113.575 53.139C113.877 52.5457 114.301 52.085 114.848 51.7569C115.395 51.4288 116.041 51.2647 116.787 51.2647C117.533 51.2647 118.179 51.4288 118.726 51.7569C119.273 52.085 119.695 52.5457 119.994 53.139C120.295 53.7323 120.446 54.4233 120.446 55.2121C120.446 56.001 120.295 56.6904 119.994 57.2803C119.695 57.8703 119.273 58.3293 118.726 58.6574C118.179 58.9856 117.533 59.1496 116.787 59.1496ZM116.797 57.7079C117.201 57.7079 117.539 57.5968 117.811 57.3748C118.083 57.1494 118.285 56.8478 118.418 56.4699C118.554 56.0921 118.621 55.6712 118.621 55.2072C118.621 54.7398 118.554 54.3172 118.418 53.9394C118.285 53.5583 118.083 53.255 117.811 53.0296C117.539 52.8042 117.201 52.6915 116.797 52.6915C116.383 52.6915 116.038 52.8042 115.763 53.0296C115.491 53.255 115.287 53.5583 115.151 53.9394C115.019 54.3172 114.952 54.7398 114.952 55.2072C114.952 55.6712 115.019 56.0921 115.151 56.4699C115.287 56.8478 115.491 57.1494 115.763 57.3748C116.038 57.5968 116.383 57.7079 116.797 57.7079ZM125.526 59.0005V48.8187H129.344C130.126 48.8187 130.782 48.9645 131.313 49.2562C131.846 49.5478 132.249 49.9489 132.521 50.4593C132.796 50.9664 132.933 51.5431 132.933 52.1894C132.933 52.8423 132.796 53.4224 132.521 53.9295C132.246 54.4366 131.84 54.836 131.303 55.1276C130.766 55.416 130.105 55.5601 129.319 55.5601H126.789V54.0438H129.07C129.528 54.0438 129.902 53.9643 130.194 53.8052C130.486 53.6461 130.701 53.4273 130.84 53.1489C130.983 52.8705 131.054 52.5507 131.054 52.1894C131.054 51.8281 130.983 51.51 130.84 51.2349C130.701 50.9598 130.484 50.746 130.189 50.5935C129.897 50.4378 129.521 50.3599 129.061 50.3599H127.37V59.0005H125.526ZM136.517 59.1546C136.033 59.1546 135.597 59.0684 135.209 58.8961C134.825 58.7204 134.52 58.4619 134.294 58.1205C134.072 57.7791 133.961 57.3582 133.961 56.8577C133.961 56.4269 134.041 56.0706 134.2 55.7888C134.359 55.5071 134.576 55.2817 134.851 55.1127C135.126 54.9437 135.436 54.8161 135.781 54.7299C136.129 54.6404 136.489 54.5758 136.86 54.536C137.307 54.4896 137.67 54.4482 137.949 54.4117C138.227 54.3719 138.429 54.3123 138.555 54.2327C138.684 54.1499 138.749 54.0223 138.749 53.8499V53.8201C138.749 53.4456 138.638 53.1556 138.416 52.9501C138.194 52.7446 137.874 52.6418 137.456 52.6418C137.016 52.6418 136.666 52.7379 136.407 52.9302C136.152 53.1224 135.98 53.3494 135.89 53.6113L134.21 53.3726C134.342 52.9086 134.561 52.5208 134.866 52.2093C135.171 51.8944 135.544 51.6591 135.985 51.5033C136.426 51.3442 136.913 51.2647 137.446 51.2647C137.814 51.2647 138.181 51.3078 138.545 51.394C138.91 51.4801 139.243 51.6226 139.544 51.8215C139.846 52.0171 140.088 52.2839 140.27 52.6219C140.456 52.96 140.549 53.3826 140.549 53.8897V59.0005H138.819V57.9515H138.759C138.65 58.1636 138.495 58.3625 138.297 58.5481C138.101 58.7304 137.854 58.8779 137.556 58.9905C137.261 59.0999 136.914 59.1546 136.517 59.1546ZM136.984 57.8322C137.345 57.8322 137.658 57.7609 137.924 57.6184C138.189 57.4726 138.393 57.2803 138.535 57.0417C138.681 56.803 138.754 56.5429 138.754 56.2611V55.3613C138.698 55.4077 138.601 55.4508 138.466 55.4905C138.333 55.5303 138.184 55.5651 138.018 55.5949C137.852 55.6248 137.688 55.6513 137.526 55.6745C137.364 55.6977 137.223 55.7176 137.103 55.7342C136.835 55.7706 136.595 55.8303 136.382 55.9131C136.17 55.996 136.003 56.112 135.88 56.2611C135.758 56.407 135.696 56.5959 135.696 56.8279C135.696 57.1593 135.817 57.4096 136.059 57.5786C136.301 57.7476 136.609 57.8322 136.984 57.8322ZM145.679 62.0232C145.033 62.0232 144.478 61.9354 144.014 61.7597C143.55 61.5874 143.177 61.3554 142.895 61.0637C142.614 60.772 142.418 60.4489 142.309 60.0942L143.929 59.7015C144.002 59.8506 144.108 59.9981 144.248 60.144C144.387 60.2931 144.574 60.4157 144.809 60.5119C145.048 60.6113 145.348 60.661 145.709 60.661C146.22 60.661 146.642 60.5367 146.977 60.2881C147.312 60.0429 147.479 59.6385 147.479 59.0751V57.6283H147.39C147.297 57.8139 147.161 58.0045 146.982 58.2001C146.806 58.3956 146.573 58.5597 146.281 58.6922C145.993 58.8248 145.63 58.8911 145.192 58.8911C144.605 58.8911 144.074 58.7536 143.596 58.4785C143.122 58.2001 142.744 57.7858 142.463 57.2356C142.184 56.6821 142.045 55.9894 142.045 55.1574C142.045 54.3189 142.184 53.6113 142.463 53.0346C142.744 52.4546 143.124 52.0154 143.601 51.7171C144.078 51.4155 144.61 51.2647 145.197 51.2647C145.645 51.2647 146.012 51.3409 146.301 51.4934C146.592 51.6425 146.824 51.8232 146.997 52.0353C147.169 52.2441 147.3 52.4413 147.39 52.6269H147.489V51.3641H149.264V59.1248C149.264 59.7777 149.108 60.318 148.797 60.7455C148.485 61.1731 148.059 61.4929 147.519 61.705C146.979 61.9172 146.365 62.0232 145.679 62.0232ZM145.694 57.4792C146.075 57.4792 146.4 57.3864 146.669 57.2008C146.937 57.0152 147.141 56.7484 147.28 56.4003C147.419 56.0523 147.489 55.6347 147.489 55.1475C147.489 54.6669 147.419 54.246 147.28 53.8847C147.144 53.5235 146.942 53.2434 146.674 53.0445C146.408 52.8423 146.082 52.7413 145.694 52.7413C145.293 52.7413 144.958 52.8457 144.69 53.0545C144.422 53.2633 144.219 53.55 144.083 53.9146C143.948 54.2758 143.88 54.6868 143.88 55.1475C143.88 55.6148 143.948 56.0242 144.083 56.3755C144.223 56.7235 144.426 56.9953 144.695 57.1908C144.967 57.3831 145.3 57.4792 145.694 57.4792ZM154.439 59.1496C153.694 59.1496 153.047 58.9856 152.5 58.6574C151.953 58.3293 151.529 57.8703 151.228 57.2803C150.929 56.6904 150.78 56.001 150.78 55.2121C150.78 54.4233 150.929 53.7323 151.228 53.139C151.529 52.5457 151.953 52.085 152.5 51.7569C153.047 51.4288 153.694 51.2647 154.439 51.2647C155.185 51.2647 155.831 51.4288 156.378 51.7569C156.925 52.085 157.348 52.5457 157.646 53.139C157.948 53.7323 158.098 54.4233 158.098 55.2121C158.098 56.001 157.948 56.6904 157.646 57.2803C157.348 57.8703 156.925 58.3293 156.378 58.6574C155.831 58.9856 155.185 59.1496 154.439 59.1496ZM154.449 57.7079C154.854 57.7079 155.192 57.5968 155.463 57.3748C155.735 57.1494 155.937 56.8478 156.07 56.4699C156.206 56.0921 156.274 55.6712 156.274 55.2072C156.274 54.7398 156.206 54.3172 156.07 53.9394C155.937 53.5583 155.735 53.255 155.463 53.0296C155.192 52.8042 154.854 52.6915 154.449 52.6915C154.035 52.6915 153.69 52.8042 153.415 53.0296C153.143 53.255 152.94 53.5583 152.804 53.9394C152.671 54.3172 152.605 54.7398 152.605 55.2072C152.605 55.6712 152.671 56.0921 152.804 56.4699C152.94 56.8478 153.143 57.1494 153.415 57.3748C153.69 57.5968 154.035 57.7079 154.449 57.7079Z" fill="white"/>
<path d="M78.5284 37.9995V8.9086H90.0057C92.2121 8.9086 94.0919 9.33 95.6449 10.1728C97.1979 11.0061 98.3816 12.1662 99.196 13.6529C100.02 15.1302 100.432 16.8347 100.432 18.7666C100.432 20.6984 100.015 22.4029 99.1818 23.8802C98.3485 25.3575 97.1411 26.508 95.5597 27.3319C93.9877 28.1558 92.0843 28.5677 89.8494 28.5677H82.5341V23.6387H88.8551C90.0388 23.6387 91.0142 23.4351 91.7812 23.0279C92.5578 22.6113 93.1354 22.0383 93.5142 21.3092C93.9025 20.5705 94.0966 19.723 94.0966 18.7666C94.0966 17.8006 93.9025 16.9578 93.5142 16.2381C93.1354 15.509 92.5578 14.9455 91.7812 14.5478C91.0047 14.1406 90.0199 13.937 88.8267 13.937H84.679V37.9995H78.5284ZM102.901 37.9995V8.9086H114.378C116.584 8.9086 118.464 9.33 120.017 10.1728C121.57 11.0061 122.754 12.1662 123.568 13.6529C124.392 15.1302 124.804 16.8347 124.804 18.7666C124.804 20.6984 124.387 22.4029 123.554 23.8802C122.721 25.3575 121.513 26.508 119.932 27.3319C118.36 28.1558 116.456 28.5677 114.222 28.5677H106.906V23.6387H113.227C114.411 23.6387 115.386 23.4351 116.153 23.0279C116.93 22.6113 117.508 22.0383 117.886 21.3092C118.275 20.5705 118.469 19.723 118.469 18.7666C118.469 17.8006 118.275 16.9578 117.886 16.2381C117.508 15.509 116.93 14.9455 116.153 14.5478C115.377 14.1406 114.392 13.937 113.199 13.937H109.051V37.9995H102.901Z" fill="white"/>
<path d="M131.5 37.9995C132.841 37.9995 133.988 36.8809 134 35.4883C133.988 34.1186 132.841 33 131.5 33C130.114 33 128.989 34.1186 129 35.4883C128.989 36.8809 130.114 37.9995 131.5 37.9995Z" fill="white"/>
<path opacity="0.4" d="M53.7428 127.796L28.348 143.106C27.6027 143.555 26.7546 143.795 25.8896 143.801C25.0245 143.806 24.1733 143.578 23.4222 143.14C22.6711 142.701 22.0467 142.067 21.6124 141.301C21.1781 140.536 20.9493 139.667 20.9491 138.783L20.9491 100.555C20.9501 99.6709 21.1796 98.8026 21.6143 98.0382C22.0489 97.2738 22.6734 96.6403 23.4243 96.2021C24.1753 95.7638 25.0262 95.5362 25.8908 95.5424C26.7554 95.5485 27.6031 95.7882 28.348 96.2371L53.7428 111.547L58.0552 114.299C61.9821 116.805 61.9815 122.54 58.054 125.046L53.7428 127.796Z" fill="white"/>
<path opacity="0.9" d="M39.1064 127.796L13.7115 143.106C12.9662 143.555 12.1181 143.795 11.2531 143.801C10.388 143.806 9.53685 143.578 8.78573 143.14C8.03461 142.701 7.41027 142.067 6.97596 141.301C6.54165 140.536 6.3128 139.667 6.31261 138.783L6.31262 100.555C6.31367 99.6709 6.54314 98.8026 6.97781 98.0382C7.41247 97.2738 8.03689 96.6403 8.78786 96.2021C9.53883 95.7638 10.3897 95.5362 11.2543 95.5424C12.1189 95.5485 12.9666 95.7882 13.7115 96.2371L39.1064 111.547L43.4187 114.299C47.3456 116.805 47.345 122.54 43.4175 125.046L39.1064 127.796Z" fill="white"/>
<path d="M77.0043 147V136.819H83.527V138.365H78.8487V141.129H83.0795V142.675H78.8487V147H77.0043ZM85.1278 147V139.364H86.9276V147H85.1278ZM86.0327 138.28C85.7476 138.28 85.5024 138.186 85.2969 137.997C85.0914 137.805 84.9886 137.574 84.9886 137.306C84.9886 137.034 85.0914 136.804 85.2969 136.615C85.5024 136.423 85.7476 136.326 86.0327 136.326C86.321 136.326 86.5663 136.423 86.7685 136.615C86.974 136.804 87.0767 137.034 87.0767 137.306C87.0767 137.574 86.974 137.805 86.7685 137.997C86.5663 138.186 86.321 138.28 86.0327 138.28ZM90.5779 142.526V147H88.7782V139.364H90.4984V140.662H90.5879C90.7636 140.234 91.0436 139.894 91.4281 139.643C91.8159 139.391 92.2948 139.265 92.8649 139.265C93.3919 139.265 93.8509 139.377 94.242 139.603C94.6364 139.828 94.9413 140.155 95.1568 140.582C95.3755 141.01 95.4833 141.528 95.4799 142.138V147H93.6802V142.417C93.6802 141.906 93.5476 141.507 93.2825 141.219C93.0207 140.93 92.6577 140.786 92.1937 140.786C91.8788 140.786 91.5988 140.856 91.3535 140.995C91.1116 141.131 90.921 141.328 90.7818 141.586C90.6459 141.845 90.5779 142.158 90.5779 142.526ZM99.5069 147.155C99.023 147.155 98.5872 147.068 98.1994 146.896C97.8149 146.72 97.51 146.462 97.2846 146.121C97.0626 145.779 96.9515 145.358 96.9515 144.858C96.9515 144.427 97.0311 144.071 97.1902 143.789C97.3493 143.507 97.5663 143.282 97.8414 143.113C98.1165 142.944 98.4264 142.816 98.7711 142.73C99.1191 142.64 99.4788 142.576 99.85 142.536C100.297 142.49 100.66 142.448 100.939 142.412C101.217 142.372 101.419 142.312 101.545 142.233C101.675 142.15 101.739 142.022 101.739 141.85V141.82C101.739 141.446 101.628 141.156 101.406 140.95C101.184 140.745 100.864 140.642 100.447 140.642C100.006 140.642 99.6561 140.738 99.3975 140.93C99.1423 141.122 98.97 141.349 98.8805 141.611L97.2001 141.373C97.3327 140.909 97.5514 140.521 97.8564 140.209C98.1613 139.894 98.5342 139.659 98.975 139.503C99.4158 139.344 99.903 139.265 100.437 139.265C100.805 139.265 101.171 139.308 101.535 139.394C101.9 139.48 102.233 139.623 102.535 139.822C102.836 140.017 103.078 140.284 103.26 140.622C103.446 140.96 103.539 141.383 103.539 141.89V147H101.809V145.951H101.749C101.64 146.164 101.486 146.362 101.287 146.548C101.091 146.73 100.844 146.878 100.546 146.991C100.251 147.1 99.9047 147.155 99.5069 147.155ZM99.9743 145.832C100.336 145.832 100.649 145.761 100.914 145.618C101.179 145.473 101.383 145.28 101.525 145.042C101.671 144.803 101.744 144.543 101.744 144.261V143.361C101.688 143.408 101.592 143.451 101.456 143.491C101.323 143.53 101.174 143.565 101.008 143.595C100.843 143.625 100.679 143.651 100.516 143.674C100.354 143.698 100.213 143.718 100.094 143.734C99.8251 143.771 99.5848 143.83 99.3727 143.913C99.1606 143.996 98.9932 144.112 98.8706 144.261C98.7479 144.407 98.6866 144.596 98.6866 144.828C98.6866 145.159 98.8076 145.41 99.0495 145.579C99.2915 145.748 99.5997 145.832 99.9743 145.832ZM107.148 142.526V147H105.349V139.364H107.069V140.662H107.158C107.334 140.234 107.614 139.894 107.998 139.643C108.386 139.391 108.865 139.265 109.435 139.265C109.962 139.265 110.421 139.377 110.812 139.603C111.207 139.828 111.512 140.155 111.727 140.582C111.946 141.01 112.054 141.528 112.05 142.138V147H110.251V142.417C110.251 141.906 110.118 141.507 109.853 141.219C109.591 140.93 109.228 140.786 108.764 140.786C108.449 140.786 108.169 140.856 107.924 140.995C107.682 141.131 107.491 141.328 107.352 141.586C107.216 141.845 107.148 142.158 107.148 142.526ZM117.211 147.15C116.448 147.15 115.794 146.982 115.247 146.648C114.703 146.313 114.284 145.85 113.989 145.26C113.698 144.667 113.552 143.984 113.552 143.212C113.552 142.437 113.701 141.752 113.999 141.159C114.297 140.562 114.718 140.098 115.262 139.767C115.809 139.432 116.455 139.265 117.201 139.265C117.821 139.265 118.369 139.379 118.846 139.608C119.327 139.833 119.71 140.153 119.995 140.567C120.28 140.978 120.442 141.459 120.482 142.009H118.762C118.692 141.641 118.527 141.335 118.265 141.089C118.006 140.841 117.66 140.716 117.226 140.716C116.858 140.716 116.535 140.816 116.256 141.015C115.978 141.21 115.761 141.492 115.605 141.86C115.452 142.228 115.376 142.669 115.376 143.182C115.376 143.703 115.452 144.15 115.605 144.525C115.757 144.896 115.971 145.183 116.246 145.385C116.525 145.584 116.851 145.683 117.226 145.683C117.491 145.683 117.728 145.633 117.937 145.534C118.149 145.431 118.326 145.284 118.469 145.091C118.611 144.899 118.709 144.665 118.762 144.39H120.482C120.439 144.931 120.28 145.41 120.005 145.827C119.73 146.241 119.355 146.566 118.881 146.802C118.407 147.034 117.85 147.15 117.211 147.15ZM121.96 147V139.364H123.76V147H121.96ZM122.865 138.28C122.58 138.28 122.334 138.186 122.129 137.997C121.923 137.805 121.821 137.574 121.821 137.306C121.821 137.034 121.923 136.804 122.129 136.615C122.334 136.423 122.58 136.326 122.865 136.326C123.153 136.326 123.398 136.423 123.6 136.615C123.806 136.804 123.909 137.034 123.909 137.306C123.909 137.574 123.806 137.805 123.6 137.997C123.398 138.186 123.153 138.28 122.865 138.28ZM127.808 147.155C127.324 147.155 126.888 147.068 126.5 146.896C126.116 146.72 125.811 146.462 125.585 146.121C125.363 145.779 125.252 145.358 125.252 144.858C125.252 144.427 125.332 144.071 125.491 143.789C125.65 143.507 125.867 143.282 126.142 143.113C126.417 142.944 126.727 142.816 127.072 142.73C127.42 142.64 127.78 142.576 128.151 142.536C128.598 142.49 128.961 142.448 129.24 142.412C129.518 142.372 129.72 142.312 129.846 142.233C129.975 142.15 130.04 142.022 130.04 141.85V141.82C130.04 141.446 129.929 141.156 129.707 140.95C129.485 140.745 129.165 140.642 128.747 140.642C128.307 140.642 127.957 140.738 127.698 140.93C127.443 141.122 127.271 141.349 127.181 141.611L125.501 141.373C125.633 140.909 125.852 140.521 126.157 140.209C126.462 139.894 126.835 139.659 127.276 139.503C127.717 139.344 128.204 139.265 128.737 139.265C129.105 139.265 129.472 139.308 129.836 139.394C130.201 139.48 130.534 139.623 130.835 139.822C131.137 140.017 131.379 140.284 131.561 140.622C131.747 140.96 131.84 141.383 131.84 141.89V147H130.11V145.951H130.05C129.941 146.164 129.786 146.362 129.588 146.548C129.392 146.73 129.145 146.878 128.847 146.991C128.552 147.1 128.205 147.155 127.808 147.155ZM128.275 145.832C128.636 145.832 128.95 145.761 129.215 145.618C129.48 145.473 129.684 145.28 129.826 145.042C129.972 144.803 130.045 144.543 130.045 144.261V143.361C129.989 143.408 129.892 143.451 129.757 143.491C129.624 143.53 129.475 143.565 129.309 143.595C129.143 143.625 128.979 143.651 128.817 143.674C128.655 143.698 128.514 143.718 128.394 143.734C128.126 143.771 127.886 143.83 127.673 143.913C127.461 143.996 127.294 144.112 127.171 144.261C127.049 144.407 126.987 144.596 126.987 144.828C126.987 145.159 127.108 145.41 127.35 145.579C127.592 145.748 127.901 145.832 128.275 145.832ZM133.649 147V139.364H135.369V140.662H135.459C135.618 140.224 135.882 139.883 136.249 139.638C136.617 139.389 137.057 139.265 137.567 139.265C138.084 139.265 138.52 139.391 138.874 139.643C139.232 139.891 139.484 140.231 139.63 140.662H139.71C139.879 140.237 140.164 139.899 140.565 139.648C140.969 139.392 141.448 139.265 142.002 139.265C142.704 139.265 143.278 139.487 143.722 139.931C144.166 140.375 144.388 141.023 144.388 141.875V147H142.583V142.153C142.583 141.679 142.457 141.333 142.205 141.114C141.954 140.892 141.645 140.781 141.281 140.781C140.847 140.781 140.507 140.917 140.262 141.189C140.02 141.457 139.899 141.807 139.899 142.238V147H138.134V142.079C138.134 141.684 138.014 141.369 137.776 141.134C137.54 140.899 137.232 140.781 136.851 140.781C136.593 140.781 136.357 140.847 136.145 140.98C135.933 141.109 135.764 141.293 135.638 141.532C135.512 141.767 135.449 142.042 135.449 142.357V147H133.649ZM146.214 147V139.364H148.013V147H146.214ZM147.119 138.28C146.834 138.28 146.588 138.186 146.383 137.997C146.177 137.805 146.075 137.574 146.075 137.306C146.075 137.034 146.177 136.804 146.383 136.615C146.588 136.423 146.834 136.326 147.119 136.326C147.407 136.326 147.652 136.423 147.854 136.615C148.06 136.804 148.163 137.034 148.163 137.306C148.163 137.574 148.06 137.805 147.854 137.997C147.652 138.186 147.407 138.28 147.119 138.28ZM153.245 147.15C152.479 147.15 151.818 146.991 151.261 146.672C150.708 146.351 150.282 145.897 149.983 145.31C149.685 144.72 149.536 144.026 149.536 143.227C149.536 142.442 149.685 141.752 149.983 141.159C150.285 140.562 150.706 140.098 151.246 139.767C151.787 139.432 152.421 139.265 153.15 139.265C153.621 139.265 154.065 139.341 154.483 139.493C154.904 139.643 155.275 139.875 155.596 140.189C155.921 140.504 156.176 140.905 156.362 141.393C156.548 141.876 156.64 142.453 156.64 143.123V143.674H150.381V142.461H154.915C154.912 142.117 154.837 141.81 154.692 141.542C154.546 141.27 154.342 141.056 154.08 140.9C153.822 140.745 153.52 140.667 153.175 140.667C152.807 140.667 152.484 140.756 152.206 140.935C151.927 141.111 151.71 141.343 151.555 141.631C151.402 141.916 151.324 142.229 151.321 142.571V143.63C151.321 144.074 151.402 144.455 151.564 144.773C151.727 145.088 151.954 145.33 152.246 145.499C152.537 145.665 152.879 145.748 153.27 145.748C153.532 145.748 153.769 145.711 153.981 145.638C154.193 145.562 154.377 145.451 154.532 145.305C154.688 145.159 154.806 144.979 154.885 144.763L156.566 144.952C156.46 145.396 156.258 145.784 155.959 146.116C155.664 146.444 155.287 146.699 154.826 146.881C154.365 147.06 153.838 147.15 153.245 147.15ZM159.963 142.526V147H158.163V139.364H159.883V140.662H159.973C160.148 140.234 160.428 139.894 160.813 139.643C161.201 139.391 161.68 139.265 162.25 139.265C162.777 139.265 163.236 139.377 163.627 139.603C164.021 139.828 164.326 140.155 164.542 140.582C164.76 141.01 164.868 141.528 164.865 142.138V147H163.065V142.417C163.065 141.906 162.932 141.507 162.667 141.219C162.405 140.93 162.042 140.786 161.578 140.786C161.264 140.786 160.984 140.856 160.738 140.995C160.496 141.131 160.306 141.328 160.167 141.586C160.031 141.845 159.963 142.158 159.963 142.526ZM170.507 139.364V140.756H166.118V139.364H170.507ZM167.201 137.535H169.001V144.704C169.001 144.946 169.038 145.131 169.11 145.26C169.187 145.386 169.286 145.473 169.409 145.519C169.531 145.565 169.667 145.589 169.816 145.589C169.929 145.589 170.032 145.58 170.125 145.564C170.221 145.547 170.294 145.532 170.343 145.519L170.647 146.926C170.551 146.959 170.413 146.996 170.234 147.035C170.058 147.075 169.843 147.098 169.588 147.105C169.137 147.118 168.731 147.05 168.37 146.901C168.008 146.749 167.722 146.513 167.51 146.195C167.301 145.877 167.198 145.479 167.201 145.002V137.535ZM175.262 147.15C174.516 147.15 173.869 146.986 173.323 146.657C172.776 146.329 172.352 145.87 172.05 145.28C171.752 144.69 171.602 144.001 171.602 143.212C171.602 142.423 171.752 141.732 172.05 141.139C172.352 140.546 172.776 140.085 173.323 139.757C173.869 139.429 174.516 139.265 175.262 139.265C176.007 139.265 176.654 139.429 177.2 139.757C177.747 140.085 178.17 140.546 178.468 141.139C178.77 141.732 178.921 142.423 178.921 143.212C178.921 144.001 178.77 144.69 178.468 145.28C178.17 145.87 177.747 146.329 177.2 146.657C176.654 146.986 176.007 147.15 175.262 147.15ZM175.271 145.708C175.676 145.708 176.014 145.597 176.286 145.375C176.557 145.149 176.76 144.848 176.892 144.47C177.028 144.092 177.096 143.671 177.096 143.207C177.096 142.74 177.028 142.317 176.892 141.939C176.76 141.558 176.557 141.255 176.286 141.03C176.014 140.804 175.676 140.692 175.271 140.692C174.857 140.692 174.512 140.804 174.237 141.03C173.966 141.255 173.762 141.558 173.626 141.939C173.493 142.317 173.427 142.74 173.427 143.207C173.427 143.671 173.493 144.092 173.626 144.47C173.762 144.848 173.966 145.149 174.237 145.375C174.512 145.597 174.857 145.708 175.271 145.708ZM187.451 147H184V136.819H187.52C188.531 136.819 189.4 137.023 190.125 137.43C190.855 137.835 191.415 138.416 191.806 139.175C192.197 139.934 192.392 140.842 192.392 141.9C192.392 142.96 192.195 143.872 191.801 144.634C191.41 145.396 190.845 145.981 190.105 146.389C189.37 146.797 188.485 147 187.451 147ZM185.845 145.405H187.361C188.07 145.405 188.662 145.275 189.136 145.017C189.61 144.755 189.966 144.366 190.205 143.848C190.444 143.328 190.563 142.679 190.563 141.9C190.563 141.121 190.444 140.474 190.205 139.961C189.966 139.444 189.613 139.058 189.146 138.802C188.682 138.544 188.105 138.415 187.416 138.415H185.845V145.405ZM194.065 147V139.364H195.865V147H194.065ZM194.97 138.28C194.685 138.28 194.44 138.186 194.234 137.997C194.029 137.805 193.926 137.574 193.926 137.306C193.926 137.034 194.029 136.804 194.234 136.615C194.44 136.423 194.685 136.326 194.97 136.326C195.259 136.326 195.504 136.423 195.706 136.615C195.911 136.804 196.014 137.034 196.014 137.306C196.014 137.574 195.911 137.805 195.706 137.997C195.504 138.186 195.259 138.28 194.97 138.28ZM197.716 147V139.364H199.461V140.637H199.54C199.68 140.196 199.918 139.856 200.256 139.618C200.598 139.376 200.987 139.255 201.425 139.255C201.524 139.255 201.635 139.26 201.758 139.27C201.884 139.276 201.988 139.288 202.071 139.304V140.96C201.995 140.933 201.874 140.91 201.708 140.89C201.546 140.867 201.388 140.856 201.236 140.856C200.907 140.856 200.613 140.927 200.351 141.069C200.092 141.209 199.888 141.402 199.739 141.651C199.59 141.9 199.515 142.186 199.515 142.511V147H197.716ZM206.333 147.15C205.567 147.15 204.906 146.991 204.349 146.672C203.796 146.351 203.37 145.897 203.071 145.31C202.773 144.72 202.624 144.026 202.624 143.227C202.624 142.442 202.773 141.752 203.071 141.159C203.373 140.562 203.794 140.098 204.334 139.767C204.874 139.432 205.509 139.265 206.238 139.265C206.709 139.265 207.153 139.341 207.571 139.493C207.992 139.643 208.363 139.875 208.684 140.189C209.009 140.504 209.264 140.905 209.45 141.393C209.636 141.876 209.728 142.453 209.728 143.123V143.674H203.469V142.461H208.003C208 142.117 207.925 141.81 207.779 141.542C207.634 141.27 207.43 141.056 207.168 140.9C206.909 140.745 206.608 140.667 206.263 140.667C205.895 140.667 205.572 140.756 205.294 140.935C205.015 141.111 204.798 141.343 204.642 141.631C204.49 141.916 204.412 142.229 204.409 142.571V143.63C204.409 144.074 204.49 144.455 204.652 144.773C204.815 145.088 205.042 145.33 205.333 145.499C205.625 145.665 205.967 145.748 206.358 145.748C206.619 145.748 206.856 145.711 207.069 145.638C207.281 145.562 207.465 145.451 207.62 145.305C207.776 145.159 207.894 144.979 207.973 144.763L209.654 144.952C209.548 145.396 209.346 145.784 209.047 146.116C208.752 146.444 208.374 146.699 207.914 146.881C207.453 147.06 206.926 147.15 206.333 147.15ZM214.582 147.15C213.82 147.15 213.165 146.982 212.618 146.648C212.075 146.313 211.655 145.85 211.36 145.26C211.069 144.667 210.923 143.984 210.923 143.212C210.923 142.437 211.072 141.752 211.37 141.159C211.669 140.562 212.089 140.098 212.633 139.767C213.18 139.432 213.826 139.265 214.572 139.265C215.192 139.265 215.74 139.379 216.218 139.608C216.698 139.833 217.081 140.153 217.366 140.567C217.651 140.978 217.813 141.459 217.853 142.009H216.133C216.063 141.641 215.898 141.335 215.636 141.089C215.377 140.841 215.031 140.716 214.597 140.716C214.229 140.716 213.906 140.816 213.627 141.015C213.349 141.21 213.132 141.492 212.976 141.86C212.824 142.228 212.747 142.669 212.747 143.182C212.747 143.703 212.824 144.15 212.976 144.525C213.128 144.896 213.342 145.183 213.617 145.385C213.896 145.584 214.222 145.683 214.597 145.683C214.862 145.683 215.099 145.633 215.308 145.534C215.52 145.431 215.697 145.284 215.84 145.091C215.982 144.899 216.08 144.665 216.133 144.39H217.853C217.81 144.931 217.651 145.41 217.376 145.827C217.101 146.241 216.726 146.566 216.252 146.802C215.778 147.034 215.222 147.15 214.582 147.15ZM223.144 139.364V140.756H218.754V139.364H223.144ZM219.838 137.535H221.638V144.704C221.638 144.946 221.674 145.131 221.747 145.26C221.823 145.386 221.923 145.473 222.045 145.519C222.168 145.565 222.304 145.589 222.453 145.589C222.566 145.589 222.669 145.58 222.761 145.564C222.857 145.547 222.93 145.532 222.98 145.519L223.283 146.926C223.187 146.959 223.05 146.996 222.871 147.035C222.695 147.075 222.48 147.098 222.224 147.105C221.774 147.118 221.368 147.05 221.006 146.901C220.645 146.749 220.358 146.513 220.146 146.195C219.938 145.877 219.835 145.479 219.838 145.002V137.535ZM227.898 147.15C227.153 147.15 226.506 146.986 225.959 146.657C225.412 146.329 224.988 145.87 224.687 145.28C224.388 144.69 224.239 144.001 224.239 143.212C224.239 142.423 224.388 141.732 224.687 141.139C224.988 140.546 225.412 140.085 225.959 139.757C226.506 139.429 227.153 139.265 227.898 139.265C228.644 139.265 229.29 139.429 229.837 139.757C230.384 140.085 230.807 140.546 231.105 141.139C231.407 141.732 231.557 142.423 231.557 143.212C231.557 144.001 231.407 144.69 231.105 145.28C230.807 145.87 230.384 146.329 229.837 146.657C229.29 146.986 228.644 147.15 227.898 147.15ZM227.908 145.708C228.313 145.708 228.651 145.597 228.922 145.375C229.194 145.149 229.396 144.848 229.529 144.47C229.665 144.092 229.733 143.671 229.733 143.207C229.733 142.74 229.665 142.317 229.529 141.939C229.396 141.558 229.194 141.255 228.922 141.03C228.651 140.804 228.313 140.692 227.908 140.692C227.494 140.692 227.149 140.804 226.874 141.03C226.602 141.255 226.398 141.558 226.263 141.939C226.13 142.317 226.064 142.74 226.064 143.207C226.064 143.671 226.13 144.092 226.263 144.47C226.398 144.848 226.602 145.149 226.874 145.375C227.149 145.597 227.494 145.708 227.908 145.708Z" fill="white"/>
<path d="M78.5284 126V96.9086H97.7898V101.98H84.679V108.911H96.5114V113.982H84.679V126H78.5284ZM110.713 126H100.401V96.9086H110.798C113.724 96.9086 116.243 97.491 118.355 98.6558C120.467 99.8111 122.091 101.473 123.227 103.642C124.373 105.81 124.946 108.405 124.946 111.426C124.946 114.456 124.373 117.06 123.227 119.238C122.091 121.416 120.457 123.088 118.327 124.252C116.206 125.417 113.668 126 110.713 126ZM106.551 120.73H110.457C112.276 120.73 113.805 120.408 115.046 119.764C116.296 119.11 117.233 118.102 117.858 116.738C118.492 115.365 118.81 113.594 118.81 111.426C118.81 109.276 118.492 107.519 117.858 106.156C117.233 104.792 116.3 103.788 115.06 103.144C113.819 102.5 112.29 102.178 110.472 102.178H106.551V120.73Z" fill="white"/>
<path d="M131.5 126C132.841 126 133.988 124.881 134 123.488C133.988 122.119 132.841 121 131.5 121C130.114 121 128.989 122.119 129 123.488C128.989 124.881 130.114 126 131.5 126Z" fill="white"/>
</svg>