<svg width="159" height="39" viewBox="0 0 159 39" fill="none" xmlns="http://www.w3.org/2000/svg">
  <g clip-path="url(#a)" fill="#333E67">
    <path d="M49.1252 16.2662h-6.5005v1.4417h6.0454v2.4167h-6.0454v1.5867h6.6127v2.5372h-9.8048V13.729h9.6926v2.5372ZM62.0082 15.8914l-2.7518 1.3665c-.255-.2979-.5796-.5431-.9513-.7189-.3718-.1758-.7819-.2779-1.2022-.2993-.4204-.0215-.8409.0382-1.2329.175-.3919.1368-.7459.3473-1.0376.6173-.5333.5396-.8274 1.2334-.8274 1.9518 0 .7184.2941 1.4122.8274 1.9518.2918.2698.6457.4802 1.0375.617.3918.1367.8122.1965 1.2324.1752.4202-.0212.8303-.1231 1.2021-.2985.3718-.1754.6966-.4202.952-.7177l2.7518 1.3646c-.5812.719-1.3472 1.304-2.2342 1.7064-.887.4024-1.8693.6104-2.8651.6068-3.4291 0-6.2147-2.4167-6.2147-5.4056-.0847-2.9268 2.8533-5.4583 6.2147-5.4056.9958-.0036 1.9781.2045 2.8651.6068.887.4024 1.653.9874 2.2342 1.7064ZM75.0088 24.2391h-3.1751V20.215h-4.8178v4.0241h-3.1751V13.729h3.1751v3.9526h4.8114V13.729h3.1752l.0063 10.5101ZM87.126 16.2662h-6.5111v1.4417h6.0454v2.4167h-6.0454v1.5867h6.6021v2.5372h-9.7941V13.729h9.7031v2.5372ZM96.8631 24.2391h-4.1764L88.2119 13.729h3.7996l2.7708 7.1918 2.7857-7.1918h3.8l-4.5049 10.5101ZM112.663 16.2662h-6.5v1.4417h6.045v2.4167h-6.045v1.5867h6.602v2.5372h-9.794V13.729h9.692v2.5372ZM114.554 13.729h5.319c3.85 0 5.404 1.0804 5.404 3.6495 0 1.7411-.726 2.7913-2.347 3.2882l2.652 3.5761h-3.649l-2.297-3.2128-.54.015h-1.35v3.1997h-3.192V13.729Zm3.192 2.5522v2.5824h2.296c1.385 0 1.925-.3765 1.925-1.2912 0-.9147-.54-1.2912-1.925-1.2912h-2.296ZM127.184 13.729h5.319c3.85 0 5.404 1.0804 5.404 3.6495 0 1.7411-.728 2.7913-2.347 3.2882l2.65 3.5761h-3.647l-2.297-3.2128-.54.015h-1.35v3.1997h-3.192V13.729Zm3.192 2.5522v2.5824h2.296c1.385 0 1.924-.3765 1.924-1.2912 0-.9147-.539-1.2912-1.924-1.2912h-2.296ZM143.008 24.2391h-3.195V13.729h3.195v10.5101ZM158.152 24.2391h-3.799l-.76-1.8464h-4.424l-.76 1.8464h-3.81l4.678-10.5101h4.153l4.722 10.5101Zm-8.139-4.0994h2.733l-1.384-3.2581-1.349 3.2581ZM60.2858 37.9786h-3.192V27.4685h3.192v10.5101ZM72.2897 29.4504l-5.656 6.0362h5.8592v2.492H62.0742v-2.0271l5.4718-5.991h-5.0802v-2.492h9.826l-.0021 1.9819ZM85.3593 35.982l1.74 1.5622-1.7061 1.3965-1.8056-1.5923c-.9865.5193-2.1135.7893-3.2598.7811-1.1153.0071-2.2138-.2411-3.19-.7209-.9426-.4627-1.7317-1.1378-2.2882-1.9574-.5528-.8214-.8447-1.7607-.8447-2.7179 0-.9572.2919-1.8965.8447-2.7178.5574-.8241 1.3497-1.5026 2.2967-1.9669.9761-.4797 2.0747-.728 3.1899-.7209 3.4122-.0602 6.4011 2.4788 6.3334 5.4056.0053 1.186-.4585 2.336-1.3103 3.2487Zm-5.0315-.5101c.3226.0073.642-.0574.9292-.1882l-1.2827-1.1557 1.704-1.4116 1.3018 1.1556c.2355-.3433.3579-.7384.3535-1.1406.0108-.3613-.0601-.7209-.2084-1.0575-.1484-.3366-.3712-.6432-.6553-.9018-.2764-.2611-.612-.467-.9845-.6042-.3726-.1373-.7736-.2027-1.1767-.192-.4026-.0078-.8027.059-1.1747.1961-.3721.137-.708.3414-.9865.6001-.5594.5266-.8635 1.2276-.8467 1.9518.0043 1.517 1.2553 2.748 3.027 2.748ZM99.7124 27.4685v5.6748c0 3.3484-1.9939 4.9858-5.4379 4.9858-3.4439 0-5.421-1.6374-5.421-4.9858v-5.6748h3.1921v5.6748c0 1.6375.8276 2.4035 2.2458 2.4035 1.4183 0 2.2459-.766 2.2459-2.4035v-5.6748h3.1751ZM105.216 37.9786h-3.192V27.4685h3.192v10.5101ZM117.307 30.0057h-6.503v1.4417h6.046v2.4167h-6.046v1.5867h6.604v2.5372h-9.794V27.4685h9.693v2.5372ZM119.197 27.4685h5.32c3.848 0 5.402 1.0804 5.402 3.6495 0 1.7411-.726 2.7913-2.346 3.2882l2.65 3.5761h-3.647l-2.296-3.2128-.54.015h-1.353v3.1997h-3.19V27.4685Zm3.19 2.5522v2.5824h2.297c1.386 0 1.926-.3765 1.926-1.2912 0-.9147-.54-1.2912-1.926-1.2912h-2.297ZM131.825 27.4689h5.08c3.427-.0602 6.382 2.3282 6.315 5.2701.067 2.9136-2.888 5.3002-6.315 5.24h-5.08V27.4689Zm3.192 2.524v5.4583h1.757c.417.0094.831-.0549 1.22-.189.388-.134.743-.3353 1.043-.5921.303-.2478.544-.5497.708-.8861.163-.3363.244-.6995.238-1.0657.006-.364-.076-.7249-.239-1.0588-.163-.3339-.404-.6332-.707-.878-.3-.2571-.655-.4591-1.043-.5944-.388-.1353-.803-.2013-1.22-.1942h-1.757ZM151.329 27.3183c1.095-.0119 2.176.2296 3.135.7008.959.4711 1.764 1.1558 2.336 1.9869.569.816.867 1.7581.86 2.7179-.005.9609-.3 1.903-.855 2.7273-.556.8243-1.351 1.5005-2.301 1.9574-.97.4812-2.065.7297-3.175.7209-1.116.0071-2.216-.2412-3.192-.7209-.946-.4617-1.738-1.1368-2.297-1.9574-.557-.8198-.85-1.76-.847-2.7179.002-.9598.295-1.9015.847-2.7259.553-.8244 1.346-1.5011 2.294-1.9588.977-.4833 2.077-.7348 3.195-.7303Zm-.017 2.6576c-.404-.0083-.804.0582-1.177.1953s-.71.3417-.989.6009c-.543.5351-.844 1.2306-.844 1.9518 0 .7212.301 1.4167.844 1.9518.279.2587.615.4631.987.6001.372.1371.772.2039 1.174.1961.404.0107.805-.0547 1.177-.192.373-.1372.708-.3431.985-.6042.553-.5308.861-1.2279.861-1.9518s-.308-1.4211-.861-1.9518c-.276-.2606-.611-.4663-.983-.6035-.372-.1372-.772-.2029-1.174-.1927ZM.762695.254395H29.3388L.868533 25.5697.762695.254395Z"/>
  </g>
  <defs>
    <clipPath id="a">
      <path fill="#fff" transform="translate(.764648 .254395)" d="M0 0h157.389v38.6862H0z"/>
    </clipPath>
  </defs>
</svg>