<svg width="405" height="116" viewBox="0 0 405 116" fill="none" xmlns="http://www.w3.org/2000/svg">
<path d="M8.2498 5.81818H9.48275V12.5597C9.48275 13.2557 9.31869 13.8771 8.99056 14.424C8.66575 14.9676 8.20671 15.3968 7.61343 15.7116C7.02015 16.0232 6.32413 16.179 5.52536 16.179C4.72659 16.179 4.03057 16.0232 3.43729 15.7116C2.84402 15.3968 2.38332 14.9676 2.05519 14.424C1.73038 13.8771 1.56798 13.2557 1.56798 12.5597V5.81818H2.80093V12.4602C2.80093 12.9574 2.91031 13.3999 3.12906 13.7876C3.34781 14.1721 3.65936 14.4754 4.06372 14.6974C4.47139 14.9162 4.9586 15.0256 5.52536 15.0256C6.09212 15.0256 6.57934 14.9162 6.98701 14.6974C7.39468 14.4754 7.70623 14.1721 7.92167 13.7876C8.14042 13.3999 8.2498 12.9574 8.2498 12.4602V5.81818ZM15.1069 8.36364V9.35795H11.1495V8.36364H15.1069ZM12.3029 6.53409H13.4762V13.8125C13.4762 14.1439 13.5242 14.3925 13.6204 14.5582C13.7198 14.7206 13.8457 14.83 13.9982 14.8864C14.154 14.9394 14.318 14.9659 14.4904 14.9659C14.6196 14.9659 14.7257 14.9593 14.8086 14.946C14.8914 14.9295 14.9577 14.9162 15.0074 14.9062L15.2461 15.9602C15.1665 15.9901 15.0555 16.0199 14.913 16.0497C14.7705 16.0829 14.5898 16.0994 14.3711 16.0994C14.0396 16.0994 13.7148 16.0282 13.3966 15.8857C13.0818 15.7431 12.8199 15.526 12.6111 15.2344C12.4056 14.9427 12.3029 14.5748 12.3029 14.1307V6.53409ZM16.8718 16V8.36364H18.0451V16H16.8718ZM17.4684 7.09091C17.2397 7.09091 17.0425 7.01302 16.8767 6.85724C16.7143 6.70147 16.6331 6.5142 16.6331 6.29545C16.6331 6.0767 16.7143 5.88944 16.8767 5.73366C17.0425 5.57789 17.2397 5.5 17.4684 5.5C17.6971 5.5 17.8926 5.57789 18.055 5.73366C18.2207 5.88944 18.3036 6.0767 18.3036 6.29545C18.3036 6.5142 18.2207 6.70147 18.055 6.85724C17.8926 7.01302 17.6971 7.09091 17.4684 7.09091ZM21.3673 5.81818V16H20.194V5.81818H21.3673ZM23.5163 16V8.36364H24.6896V16H23.5163ZM24.1129 7.09091C23.8842 7.09091 23.687 7.01302 23.5213 6.85724C23.3589 6.70147 23.2777 6.5142 23.2777 6.29545C23.2777 6.0767 23.3589 5.88944 23.5213 5.73366C23.687 5.57789 23.8842 5.5 24.1129 5.5C24.3416 5.5 24.5371 5.57789 24.6995 5.73366C24.8653 5.88944 24.9481 6.0767 24.9481 6.29545C24.9481 6.5142 24.8653 6.70147 24.6995 6.85724C24.5371 7.01302 24.3416 7.09091 24.1129 7.09091ZM26.6198 16V15.1051L30.9551 9.53693V9.45739H26.759V8.36364H32.4664V9.2983L28.2505 14.8267V14.9062H32.6056V16H26.6198ZM36.66 16.179C36.176 16.179 35.7369 16.0878 35.3425 15.9055C34.9481 15.7199 34.6349 15.4531 34.4028 15.1051C34.1708 14.7538 34.0548 14.3295 34.0548 13.8324C34.0548 13.3949 34.141 13.0402 34.3134 12.7685C34.4857 12.4934 34.7161 12.2779 35.0044 12.1222C35.2928 11.9664 35.6109 11.8504 35.959 11.7741C36.3103 11.6946 36.6633 11.6316 37.0179 11.5852C37.4819 11.5256 37.8581 11.4808 38.1465 11.451C38.4381 11.4179 38.6502 11.3632 38.7828 11.2869C38.9187 11.2107 38.9867 11.0781 38.9867 10.8892V10.8494C38.9867 10.3589 38.8524 9.97775 38.584 9.70597C38.3188 9.43419 37.9161 9.2983 37.3759 9.2983C36.8157 9.2983 36.3766 9.42093 36.0584 9.66619C35.7402 9.91146 35.5165 10.1733 35.3872 10.4517L34.2736 10.054C34.4725 9.58996 34.7376 9.22869 35.069 8.97017C35.4038 8.70833 35.7684 8.52604 36.1628 8.4233C36.5605 8.31723 36.9516 8.2642 37.3361 8.2642C37.5814 8.2642 37.8631 8.29403 38.1813 8.35369C38.5028 8.41004 38.8126 8.5277 39.1109 8.70668C39.4126 8.88565 39.6628 9.15578 39.8617 9.51705C40.0605 9.87831 40.16 10.3622 40.16 10.9688V16H38.9867V14.9659H38.927C38.8475 15.1316 38.7149 15.3089 38.5293 15.4979C38.3437 15.6868 38.0967 15.8475 37.7885 15.9801C37.4803 16.1127 37.1041 16.179 36.66 16.179ZM36.8389 15.125C37.3029 15.125 37.694 15.0339 38.0122 14.8516C38.3337 14.6693 38.5757 14.4339 38.7381 14.1456C38.9038 13.8572 38.9867 13.554 38.9867 13.2358V12.1619C38.9369 12.2216 38.8276 12.2763 38.6585 12.326C38.4928 12.3724 38.3006 12.4138 38.0818 12.4503C37.8664 12.4834 37.6559 12.5133 37.4504 12.5398C37.2483 12.563 37.0842 12.5829 36.9582 12.5994C36.6533 12.6392 36.3683 12.7038 36.1031 12.7933C35.8413 12.8795 35.6292 13.0104 35.4668 13.1861C35.3077 13.3584 35.2281 13.5937 35.2281 13.892C35.2281 14.2997 35.3789 14.608 35.6805 14.8168C35.9855 15.0223 36.3716 15.125 36.8389 15.125ZM45.185 16.1591C44.5486 16.1591 43.9868 15.9983 43.4996 15.6768C43.0124 15.352 42.6312 14.8946 42.3562 14.3047C42.0811 13.7114 41.9435 13.0104 41.9435 12.2017C41.9435 11.3996 42.0811 10.7036 42.3562 10.1136C42.6312 9.52367 43.0141 9.06794 43.5046 8.74645C43.9951 8.42495 44.5619 8.2642 45.2049 8.2642C45.702 8.2642 46.0948 8.34706 46.3831 8.51278C46.6748 8.67519 46.8969 8.8608 47.0493 9.0696C47.2051 9.27509 47.3261 9.44413 47.4123 9.5767H47.5117V5.81818H48.685V16H47.5515V14.8267H47.4123C47.3261 14.9659 47.2035 15.1416 47.0444 15.3537C46.8853 15.5625 46.6582 15.7498 46.3633 15.9155C46.0683 16.0779 45.6755 16.1591 45.185 16.1591ZM45.3441 15.1051C45.8147 15.1051 46.2124 14.9825 46.5373 14.7372C46.8621 14.4886 47.109 14.1456 47.278 13.7081C47.4471 13.2673 47.5316 12.7585 47.5316 12.1818C47.5316 11.6117 47.4487 11.1129 47.283 10.6854C47.1173 10.2545 46.872 9.91974 46.5472 9.68111C46.2224 9.43916 45.8214 9.31818 45.3441 9.31818C44.8469 9.31818 44.4326 9.44579 44.1012 9.70099C43.7731 9.95289 43.5261 10.2959 43.3604 10.7301C43.198 11.161 43.1168 11.6449 43.1168 12.1818C43.1168 12.7254 43.1997 13.2192 43.3654 13.6634C43.5344 14.1042 43.783 14.4555 44.1111 14.7173C44.4426 14.9759 44.8535 15.1051 45.3441 15.1051ZM54.099 16.1591C53.4097 16.1591 52.8048 15.995 52.2844 15.6669C51.7674 15.3388 51.363 14.8797 51.0714 14.2898C50.783 13.6998 50.6388 13.0104 50.6388 12.2216C50.6388 11.4261 50.783 10.7318 51.0714 10.1385C51.363 9.54522 51.7674 9.08452 52.2844 8.75639C52.8048 8.42827 53.4097 8.2642 54.099 8.2642C54.7884 8.2642 55.3917 8.42827 55.9087 8.75639C56.4291 9.08452 56.8334 9.54522 57.1218 10.1385C57.4134 10.7318 57.5593 11.4261 57.5593 12.2216C57.5593 13.0104 57.4134 13.6998 57.1218 14.2898C56.8334 14.8797 56.4291 15.3388 55.9087 15.6669C55.3917 15.995 54.7884 16.1591 54.099 16.1591ZM54.099 15.1051C54.6227 15.1051 55.0536 14.9709 55.3917 14.7024C55.7297 14.4339 55.98 14.081 56.1424 13.6435C56.3048 13.206 56.386 12.732 56.386 12.2216C56.386 11.7112 56.3048 11.2356 56.1424 10.7947C55.98 10.3539 55.7297 9.99763 55.3917 9.72585C55.0536 9.45407 54.6227 9.31818 54.099 9.31818C53.5754 9.31818 53.1445 9.45407 52.8064 9.72585C52.4684 9.99763 52.2181 10.3539 52.0557 10.7947C51.8933 11.2356 51.8121 11.7112 51.8121 12.2216C51.8121 12.732 51.8933 13.206 52.0557 13.6435C52.2181 14.081 52.4684 14.4339 52.8064 14.7024C53.1445 14.9709 53.5754 15.1051 54.099 15.1051Z" fill="white"/>
<path d="M340.113 16H336.971V5.81818H340.252C341.24 5.81818 342.085 6.02202 342.788 6.42969C343.491 6.83404 344.029 7.41572 344.404 8.17472C344.778 8.9304 344.966 9.83523 344.966 10.8892C344.966 11.9498 344.777 12.8629 344.399 13.6286C344.021 14.3909 343.471 14.9775 342.748 15.3885C342.026 15.7962 341.147 16 340.113 16ZM338.204 14.9062H340.034C340.876 14.9062 341.573 14.7438 342.127 14.419C342.68 14.0942 343.093 13.6319 343.365 13.032C343.636 12.4321 343.772 11.7178 343.772 10.8892C343.772 10.0672 343.638 9.35961 343.37 8.76633C343.101 8.16974 342.7 7.71236 342.167 7.39418C341.633 7.07268 340.968 6.91193 340.173 6.91193H338.204V14.9062ZM346.875 16V8.36364H348.048V16H346.875ZM347.471 7.09091C347.243 7.09091 347.045 7.01302 346.88 6.85724C346.717 6.70147 346.636 6.5142 346.636 6.29545C346.636 6.0767 346.717 5.88944 346.88 5.73366C347.045 5.57789 347.243 5.5 347.471 5.5C347.7 5.5 347.895 5.57789 348.058 5.73366C348.224 5.88944 348.306 6.0767 348.306 6.29545C348.306 6.5142 348.224 6.70147 348.058 6.85724C347.895 7.01302 347.7 7.09091 347.471 7.09091ZM355.606 10.0739L354.552 10.3722C354.486 10.1965 354.388 10.0258 354.259 9.86009C354.133 9.69105 353.96 9.55185 353.742 9.44247C353.523 9.3331 353.243 9.27841 352.901 9.27841C352.434 9.27841 352.045 9.38613 351.733 9.60156C351.425 9.81368 351.271 10.0838 351.271 10.4119C351.271 10.7036 351.377 10.9339 351.589 11.103C351.801 11.272 352.133 11.4129 352.583 11.5256L353.717 11.804C354.4 11.9697 354.908 12.2232 355.243 12.5646C355.578 12.9027 355.745 13.3385 355.745 13.8722C355.745 14.3097 355.619 14.7008 355.367 15.0455C355.119 15.3902 354.771 15.6619 354.323 15.8608C353.876 16.0597 353.356 16.1591 352.762 16.1591C351.983 16.1591 351.339 15.9901 350.828 15.652C350.318 15.3139 349.995 14.8201 349.859 14.1705L350.972 13.892C351.079 14.303 351.279 14.6113 351.574 14.8168C351.872 15.0223 352.262 15.125 352.742 15.125C353.289 15.125 353.723 15.009 354.045 14.777C354.37 14.5417 354.532 14.2599 354.532 13.9318C354.532 13.6667 354.439 13.4446 354.254 13.2656C354.068 13.0833 353.783 12.9474 353.399 12.858L352.126 12.5597C351.427 12.3939 350.913 12.1371 350.585 11.7891C350.26 11.4377 350.097 10.9986 350.097 10.4716C350.097 10.0407 350.218 9.65956 350.46 9.32812C350.706 8.99669 351.039 8.73651 351.46 8.54758C351.884 8.35866 352.365 8.2642 352.901 8.2642C353.657 8.2642 354.25 8.42992 354.681 8.76136C355.115 9.0928 355.424 9.5303 355.606 10.0739ZM357.511 18.8636V8.36364H358.645V9.5767H358.784C358.87 9.44413 358.99 9.27509 359.142 9.0696C359.298 8.8608 359.52 8.67519 359.808 8.51278C360.1 8.34706 360.494 8.2642 360.991 8.2642C361.634 8.2642 362.201 8.42495 362.692 8.74645C363.182 9.06794 363.565 9.52367 363.84 10.1136C364.115 10.7036 364.253 11.3996 364.253 12.2017C364.253 13.0104 364.115 13.7114 363.84 14.3047C363.565 14.8946 363.184 15.352 362.697 15.6768C362.21 15.9983 361.648 16.1591 361.011 16.1591C360.521 16.1591 360.128 16.0779 359.833 15.9155C359.538 15.7498 359.311 15.5625 359.152 15.3537C358.993 15.1416 358.87 14.9659 358.784 14.8267H358.685V18.8636H357.511ZM358.665 12.1818C358.665 12.7585 358.749 13.2673 358.918 13.7081C359.087 14.1456 359.334 14.4886 359.659 14.7372C359.984 14.9825 360.382 15.1051 360.852 15.1051C361.343 15.1051 361.752 14.9759 362.08 14.7173C362.412 14.4555 362.66 14.1042 362.826 13.6634C362.995 13.2192 363.08 12.7254 363.08 12.1818C363.08 11.6449 362.997 11.161 362.831 10.7301C362.669 10.2959 362.422 9.95289 362.09 9.70099C361.762 9.44579 361.349 9.31818 360.852 9.31818C360.375 9.31818 359.974 9.43916 359.649 9.68111C359.324 9.91974 359.079 10.2545 358.913 10.6854C358.748 11.1129 358.665 11.6117 358.665 12.1818ZM369.145 16.1591C368.456 16.1591 367.851 15.995 367.33 15.6669C366.813 15.3388 366.409 14.8797 366.117 14.2898C365.829 13.6998 365.685 13.0104 365.685 12.2216C365.685 11.4261 365.829 10.7318 366.117 10.1385C366.409 9.54522 366.813 9.08452 367.33 8.75639C367.851 8.42827 368.456 8.2642 369.145 8.2642C369.834 8.2642 370.438 8.42827 370.955 8.75639C371.475 9.08452 371.879 9.54522 372.168 10.1385C372.459 10.7318 372.605 11.4261 372.605 12.2216C372.605 13.0104 372.459 13.6998 372.168 14.2898C371.879 14.8797 371.475 15.3388 370.955 15.6669C370.438 15.995 369.834 16.1591 369.145 16.1591ZM369.145 15.1051C369.669 15.1051 370.099 14.9709 370.438 14.7024C370.776 14.4339 371.026 14.081 371.188 13.6435C371.351 13.206 371.432 12.732 371.432 12.2216C371.432 11.7112 371.351 11.2356 371.188 10.7947C371.026 10.3539 370.776 9.99763 370.438 9.72585C370.099 9.45407 369.669 9.31818 369.145 9.31818C368.621 9.31818 368.19 9.45407 367.852 9.72585C367.514 9.99763 367.264 10.3539 367.102 10.7947C366.939 11.2356 366.858 11.7112 366.858 12.2216C366.858 12.732 366.939 13.206 367.102 13.6435C367.264 14.081 367.514 14.4339 367.852 14.7024C368.19 14.9709 368.621 15.1051 369.145 15.1051ZM375.569 11.4062V16H374.396V8.36364H375.53V9.55682H375.629C375.808 9.16903 376.08 8.85748 376.444 8.62216C376.809 8.38352 377.28 8.2642 377.856 8.2642C378.373 8.2642 378.826 8.37027 379.214 8.58239C379.601 8.79119 379.903 9.10938 380.118 9.53693C380.334 9.96117 380.442 10.4981 380.442 11.1477V16H379.268V11.2273C379.268 10.6274 379.113 10.16 378.801 9.82528C378.489 9.48722 378.062 9.31818 377.518 9.31818C377.144 9.31818 376.809 9.39938 376.514 9.56179C376.222 9.72419 375.992 9.96117 375.823 10.2727C375.654 10.5843 375.569 10.9621 375.569 11.4062ZM382.586 16V8.36364H383.759V16H382.586ZM383.182 7.09091C382.953 7.09091 382.756 7.01302 382.591 6.85724C382.428 6.70147 382.347 6.5142 382.347 6.29545C382.347 6.0767 382.428 5.88944 382.591 5.73366C382.756 5.57789 382.953 5.5 383.182 5.5C383.411 5.5 383.606 5.57789 383.769 5.73366C383.935 5.88944 384.017 6.0767 384.017 6.29545C384.017 6.5142 383.935 6.70147 383.769 6.85724C383.606 7.01302 383.411 7.09091 383.182 7.09091ZM386.067 16V5.81818H387.24V9.5767H387.34C387.426 9.44413 387.545 9.27509 387.698 9.0696C387.853 8.8608 388.075 8.67519 388.364 8.51278C388.655 8.34706 389.05 8.2642 389.547 8.2642C390.19 8.2642 390.757 8.42495 391.247 8.74645C391.738 9.06794 392.121 9.52367 392.396 10.1136C392.671 10.7036 392.808 11.3996 392.808 12.2017C392.808 13.0104 392.671 13.7114 392.396 14.3047C392.121 14.8946 391.74 15.352 391.252 15.6768C390.765 15.9983 390.203 16.1591 389.567 16.1591C389.076 16.1591 388.684 16.0779 388.389 15.9155C388.094 15.7498 387.867 15.5625 387.708 15.3537C387.548 15.1416 387.426 14.9659 387.34 14.8267H387.2V16H386.067ZM387.22 12.1818C387.22 12.7585 387.305 13.2673 387.474 13.7081C387.643 14.1456 387.89 14.4886 388.215 14.7372C388.539 14.9825 388.937 15.1051 389.408 15.1051C389.898 15.1051 390.308 14.9759 390.636 14.7173C390.967 14.4555 391.216 14.1042 391.382 13.6634C391.551 13.2192 391.635 12.7254 391.635 12.1818C391.635 11.6449 391.552 11.161 391.387 10.7301C391.224 10.2959 390.977 9.95289 390.646 9.70099C390.318 9.44579 389.905 9.31818 389.408 9.31818C388.931 9.31818 388.53 9.43916 388.205 9.68111C387.88 9.91974 387.635 10.2545 387.469 10.6854C387.303 11.1129 387.22 11.6117 387.22 12.1818ZM395.776 5.81818V16H394.603V5.81818H395.776ZM401.127 16.1591C400.391 16.1591 399.757 15.9967 399.223 15.6719C398.693 15.3438 398.283 14.8864 397.995 14.2997C397.71 13.7098 397.567 13.0237 397.567 12.2415C397.567 11.4593 397.71 10.7699 397.995 10.1733C398.283 9.57339 398.684 9.10606 399.198 8.77131C399.715 8.43324 400.318 8.2642 401.008 8.2642C401.406 8.2642 401.798 8.33049 402.186 8.46307C402.574 8.59564 402.927 8.81108 403.245 9.10938C403.563 9.40436 403.817 9.79545 404.006 10.2827C404.195 10.7699 404.289 11.3698 404.289 12.0824V12.5795H398.403V11.5653H403.096C403.096 11.1345 403.01 10.75 402.837 10.4119C402.668 10.0739 402.426 9.80705 402.112 9.61151C401.8 9.41596 401.432 9.31818 401.008 9.31818C400.54 9.31818 400.136 9.43419 399.795 9.66619C399.457 9.89489 399.197 10.1932 399.014 10.5611C398.832 10.929 398.741 11.3234 398.741 11.7443V12.4205C398.741 12.9972 398.84 13.486 399.039 13.8871C399.241 14.2848 399.521 14.5881 399.879 14.7969C400.237 15.0024 400.653 15.1051 401.127 15.1051C401.435 15.1051 401.714 15.062 401.962 14.9759C402.214 14.8864 402.431 14.7538 402.614 14.5781C402.796 14.3991 402.937 14.1771 403.036 13.9119L404.17 14.2301C404.05 14.6146 403.85 14.9527 403.568 15.2443C403.286 15.5327 402.938 15.758 402.524 15.9205C402.11 16.0795 401.644 16.1591 401.127 16.1591Z" fill="white"/>
<rect y="61.3962" width="405" height="6.46277" rx="3.23138" fill="#4F5A84"/>
<rect y="61.3962" width="70.875" height="6.46277" rx="3.23138" fill="url(#paint0_linear_737_728)"/>
<path d="M5.11911 47.3056V32.7602H6.05093V47.3056H5.11911ZM7.80661 37.4136C7.75358 36.9174 7.5301 36.531 7.13616 36.2545C6.74601 35.978 6.23843 35.8397 5.61343 35.8397C5.17404 35.8397 4.79714 35.906 4.48275 36.0386C4.16836 36.1711 3.92783 36.3511 3.76116 36.5783C3.59449 36.8056 3.50926 37.0651 3.50548 37.3568C3.50548 37.5992 3.5604 37.8094 3.67025 37.9874C3.78389 38.1655 3.93729 38.317 4.13048 38.442C4.32366 38.5632 4.53767 38.6655 4.77252 38.7488C5.00737 38.8321 5.24411 38.9022 5.48275 38.959L6.57366 39.2318C7.01305 39.334 7.4354 39.4723 7.8407 39.6465C8.24979 39.8208 8.61532 40.0405 8.93729 40.3056C9.26305 40.5708 9.52063 40.8908 9.71002 41.2658C9.89942 41.6408 9.99411 42.0802 9.99411 42.584C9.99411 43.2658 9.81987 43.8662 9.47139 44.3852C9.1229 44.9003 8.61911 45.3037 7.96002 45.5954C7.30472 45.8833 6.51116 46.0272 5.57934 46.0272C4.67404 46.0272 3.88805 45.8871 3.22139 45.6068C2.55851 45.3265 2.03957 44.9174 1.66457 44.3795C1.29336 43.8416 1.0926 43.1863 1.06229 42.4136H3.13616C3.16646 42.8189 3.29146 43.156 3.51116 43.4249C3.73086 43.6939 4.01684 43.8946 4.36911 44.0272C4.72517 44.1598 5.1229 44.2261 5.56229 44.2261C6.02063 44.2261 6.42214 44.1579 6.76684 44.0215C7.11533 43.8814 7.38805 43.6882 7.58502 43.442C7.78199 43.192 7.88237 42.9003 7.88616 42.567C7.88237 42.264 7.79336 42.014 7.61911 41.817C7.44487 41.6162 7.20055 41.4496 6.88616 41.317C6.57555 41.1806 6.21192 41.0594 5.79525 40.9533L4.47139 40.6124C3.51305 40.3662 2.75548 39.9931 2.19866 39.4931C1.64563 38.9893 1.36911 38.3208 1.36911 37.4874C1.36911 36.8018 1.55472 36.2015 1.92593 35.6863C2.30093 35.1711 2.8104 34.7715 3.45434 34.4874C4.09828 34.1996 4.82745 34.0556 5.64184 34.0556C6.4676 34.0556 7.19108 34.1996 7.81229 34.4874C8.43729 34.7715 8.92783 35.1674 9.28389 35.6749C9.63995 36.1787 9.82366 36.7583 9.83502 37.4136H7.80661ZM11.9363 45.8511V44.3283L15.976 40.3681C16.3624 39.978 16.6844 39.6314 16.9419 39.3283C17.1995 39.0253 17.3927 38.7318 17.5215 38.4477C17.6503 38.1636 17.7147 37.8605 17.7147 37.5386C17.7147 37.1711 17.6313 36.8568 17.4647 36.5954C17.298 36.3302 17.0688 36.1257 16.7772 35.9818C16.4855 35.8378 16.1541 35.7658 15.7829 35.7658C15.4003 35.7658 15.0651 35.8454 14.7772 36.0045C14.4893 36.1598 14.2658 36.3814 14.1067 36.6693C13.9514 36.9571 13.8738 37.2999 13.8738 37.6977H11.8681C11.8681 36.959 12.0366 36.317 12.3738 35.7715C12.7109 35.2261 13.1749 34.8037 13.7658 34.5045C14.3605 34.2052 15.0423 34.0556 15.8113 34.0556C16.5916 34.0556 17.2772 34.2015 17.8681 34.4931C18.459 34.7848 18.9173 35.1844 19.2431 35.692C19.5726 36.1996 19.7374 36.7791 19.7374 37.4306C19.7374 37.8662 19.6541 38.2943 19.4874 38.7147C19.3207 39.1352 19.0272 39.6011 18.6067 40.1124C18.19 40.6238 17.6048 41.2431 16.851 41.9704L14.8454 44.0102V44.0897H19.9135V45.8511H11.9363ZM23.3401 45.9761C22.9954 45.9761 22.6999 45.8549 22.4537 45.6124C22.2075 45.37 22.0863 45.0746 22.0901 44.7261C22.0863 44.3852 22.2075 44.0935 22.4537 43.8511C22.6999 43.6086 22.9954 43.4874 23.3401 43.4874C23.6734 43.4874 23.9632 43.6086 24.2094 43.8511C24.4594 44.0935 24.5863 44.3852 24.5901 44.7261C24.5863 44.9571 24.5257 45.1674 24.4082 45.3568C24.2946 45.5461 24.1431 45.6977 23.9537 45.8113C23.7681 45.9211 23.5635 45.9761 23.3401 45.9761ZM30.7154 46.0727C29.7798 46.0727 28.9768 45.8359 28.3064 45.3624C27.6397 44.8852 27.1264 44.1977 26.7666 43.2999C26.4105 42.3984 26.2325 41.3132 26.2325 40.0443C26.2363 38.7753 26.4162 37.6958 26.7723 36.8056C27.1321 35.9117 27.6454 35.2299 28.312 34.7602C28.9825 34.2905 29.7836 34.0556 30.7154 34.0556C31.6473 34.0556 32.4484 34.2905 33.1189 34.7602C33.7893 35.2299 34.3026 35.9117 34.6586 36.8056C35.0185 37.6996 35.1984 38.7791 35.1984 40.0443C35.1984 41.317 35.0185 42.4041 34.6586 43.3056C34.3026 44.2033 33.7893 44.889 33.1189 45.3624C32.4522 45.8359 31.6511 46.0727 30.7154 46.0727ZM30.7154 44.2943C31.4427 44.2943 32.0166 43.9363 32.437 43.2204C32.8613 42.5007 33.0734 41.442 33.0734 40.0443C33.0734 39.12 32.9768 38.3435 32.7836 37.7147C32.5904 37.0859 32.3177 36.6124 31.9654 36.2943C31.6132 35.9723 31.1965 35.8113 30.7154 35.8113C29.992 35.8113 29.42 36.1711 28.9995 36.8908C28.5791 37.6068 28.367 38.6579 28.3632 40.0443C28.3594 40.9723 28.4522 41.7526 28.6416 42.3852C28.8348 43.0177 29.1075 43.495 29.4598 43.817C29.812 44.1352 30.2306 44.2943 30.7154 44.2943ZM41.5638 46.0727C40.6282 46.0727 39.8252 45.8359 39.1548 45.3624C38.4881 44.8852 37.9748 44.1977 37.615 43.2999C37.2589 42.3984 37.0809 41.3132 37.0809 40.0443C37.0847 38.7753 37.2646 37.6958 37.6207 36.8056C37.9805 35.9117 38.4938 35.2299 39.1604 34.7602C39.8309 34.2905 40.632 34.0556 41.5638 34.0556C42.4957 34.0556 43.2968 34.2905 43.9673 34.7602C44.6377 35.2299 45.151 35.9117 45.507 36.8056C45.8669 37.6996 46.0468 38.7791 46.0468 40.0443C46.0468 41.317 45.8669 42.4041 45.507 43.3056C45.151 44.2033 44.6377 44.889 43.9673 45.3624C43.3006 45.8359 42.4995 46.0727 41.5638 46.0727ZM41.5638 44.2943C42.2911 44.2943 42.865 43.9363 43.2854 43.2204C43.7097 42.5007 43.9218 41.442 43.9218 40.0443C43.9218 39.12 43.8252 38.3435 43.632 37.7147C43.4388 37.0859 43.1661 36.6124 42.8138 36.2943C42.4616 35.9723 42.0449 35.8113 41.5638 35.8113C40.8404 35.8113 40.2684 36.1711 39.8479 36.8908C39.4275 37.6068 39.2154 38.6579 39.2116 40.0443C39.2078 40.9723 39.3006 41.7526 39.49 42.3852C39.6832 43.0177 39.9559 43.495 40.3082 43.817C40.6604 44.1352 41.079 44.2943 41.5638 44.2943ZM52.4122 46.0727C51.4766 46.0727 50.6736 45.8359 50.0032 45.3624C49.3365 44.8852 48.8232 44.1977 48.4634 43.2999C48.1073 42.3984 47.9293 41.3132 47.9293 40.0443C47.9331 38.7753 48.113 37.6958 48.4691 36.8056C48.8289 35.9117 49.3422 35.2299 50.0088 34.7602C50.6793 34.2905 51.4804 34.0556 52.4122 34.0556C53.3441 34.0556 54.1452 34.2905 54.8157 34.7602C55.4861 35.2299 55.9994 35.9117 56.3554 36.8056C56.7153 37.6996 56.8952 38.7791 56.8952 40.0443C56.8952 41.317 56.7153 42.4041 56.3554 43.3056C55.9994 44.2033 55.4861 44.889 54.8157 45.3624C54.149 45.8359 53.3479 46.0727 52.4122 46.0727ZM52.4122 44.2943C53.1395 44.2943 53.7134 43.9363 54.1338 43.2204C54.5581 42.5007 54.7702 41.442 54.7702 40.0443C54.7702 39.12 54.6736 38.3435 54.4804 37.7147C54.2872 37.0859 54.0145 36.6124 53.6622 36.2943C53.31 35.9723 52.8933 35.8113 52.4122 35.8113C51.6888 35.8113 51.1168 36.1711 50.6963 36.8908C50.2759 37.6068 50.0638 38.6579 50.06 40.0443C50.0562 40.9723 50.149 41.7526 50.3384 42.3852C50.5316 43.0177 50.8043 43.495 51.1566 43.817C51.5088 44.1352 51.9274 44.2943 52.4122 44.2943ZM59.7962 45.9761C59.4515 45.9761 59.156 45.8549 58.9098 45.6124C58.6636 45.37 58.5424 45.0746 58.5462 44.7261C58.5424 44.3852 58.6636 44.0935 58.9098 43.8511C59.156 43.6086 59.4515 43.4874 59.7962 43.4874C60.1295 43.4874 60.4193 43.6086 60.6655 43.8511C60.9155 44.0935 61.0424 44.3852 61.0462 44.7261C61.0424 44.9571 60.9818 45.1674 60.8643 45.3568C60.7507 45.5461 60.5992 45.6977 60.4098 45.8113C60.2242 45.9211 60.0196 45.9761 59.7962 45.9761ZM67.1715 46.0727C66.2359 46.0727 65.4329 45.8359 64.7625 45.3624C64.0958 44.8852 63.5825 44.1977 63.2227 43.2999C62.8666 42.3984 62.6886 41.3132 62.6886 40.0443C62.6924 38.7753 62.8723 37.6958 63.2284 36.8056C63.5882 35.9117 64.1015 35.2299 64.7681 34.7602C65.4386 34.2905 66.2397 34.0556 67.1715 34.0556C68.1034 34.0556 68.9045 34.2905 69.575 34.7602C70.2454 35.2299 70.7587 35.9117 71.1147 36.8056C71.4746 37.6996 71.6545 38.7791 71.6545 40.0443C71.6545 41.317 71.4746 42.4041 71.1147 43.3056C70.7587 44.2033 70.2454 44.889 69.575 45.3624C68.9083 45.8359 68.1071 46.0727 67.1715 46.0727ZM67.1715 44.2943C67.8988 44.2943 68.4727 43.9363 68.8931 43.2204C69.3174 42.5007 69.5295 41.442 69.5295 40.0443C69.5295 39.12 69.4329 38.3435 69.2397 37.7147C69.0465 37.0859 68.7738 36.6124 68.4215 36.2943C68.0693 35.9723 67.6526 35.8113 67.1715 35.8113C66.4481 35.8113 65.8761 36.1711 65.4556 36.8908C65.0352 37.6068 64.8231 38.6579 64.8193 40.0443C64.8155 40.9723 64.9083 41.7526 65.0977 42.3852C65.2909 43.0177 65.5636 43.495 65.9159 43.817C66.2681 44.1352 66.6867 44.2943 67.1715 44.2943ZM78.0199 46.0727C77.0843 46.0727 76.2813 45.8359 75.6109 45.3624C74.9442 44.8852 74.4309 44.1977 74.0711 43.2999C73.715 42.3984 73.537 41.3132 73.537 40.0443C73.5408 38.7753 73.7207 37.6958 74.0768 36.8056C74.4366 35.9117 74.9499 35.2299 75.6165 34.7602C76.287 34.2905 77.0881 34.0556 78.0199 34.0556C78.9518 34.0556 79.7529 34.2905 80.4234 34.7602C81.0938 35.2299 81.6071 35.9117 81.9631 36.8056C82.323 37.6996 82.5029 38.7791 82.5029 40.0443C82.5029 41.317 82.323 42.4041 81.9631 43.3056C81.6071 44.2033 81.0938 44.889 80.4234 45.3624C79.7567 45.8359 78.9555 46.0727 78.0199 46.0727ZM78.0199 44.2943C78.7472 44.2943 79.3211 43.9363 79.7415 43.2204C80.1658 42.5007 80.3779 41.442 80.3779 40.0443C80.3779 39.12 80.2813 38.3435 80.0881 37.7147C79.8949 37.0859 79.6222 36.6124 79.2699 36.2943C78.9177 35.9723 78.501 35.8113 78.0199 35.8113C77.2965 35.8113 76.7245 36.1711 76.304 36.8908C75.8836 37.6068 75.6715 38.6579 75.6677 40.0443C75.6639 40.9723 75.7567 41.7526 75.9461 42.3852C76.1393 43.0177 76.412 43.495 76.7643 43.817C77.1165 44.1352 77.5351 44.2943 78.0199 44.2943ZM88.8683 46.0727C87.9327 46.0727 87.1297 45.8359 86.4592 45.3624C85.7926 44.8852 85.2793 44.1977 84.9195 43.2999C84.5634 42.3984 84.3854 41.3132 84.3854 40.0443C84.3892 38.7753 84.5691 37.6958 84.9252 36.8056C85.285 35.9117 85.7983 35.2299 86.4649 34.7602C87.1354 34.2905 87.9365 34.0556 88.8683 34.0556C89.8002 34.0556 90.6013 34.2905 91.2717 34.7602C91.9422 35.2299 92.4555 35.9117 92.8115 36.8056C93.1714 37.6996 93.3513 38.7791 93.3513 40.0443C93.3513 41.317 93.1714 42.4041 92.8115 43.3056C92.4555 44.2033 91.9422 44.889 91.2717 45.3624C90.6051 45.8359 89.8039 46.0727 88.8683 46.0727ZM88.8683 44.2943C89.5956 44.2943 90.1695 43.9363 90.5899 43.2204C91.0142 42.5007 91.2263 41.442 91.2263 40.0443C91.2263 39.12 91.1297 38.3435 90.9365 37.7147C90.7433 37.0859 90.4706 36.6124 90.1183 36.2943C89.7661 35.9723 89.3494 35.8113 88.8683 35.8113C88.1449 35.8113 87.5729 36.1711 87.1524 36.8908C86.732 37.6068 86.5199 38.6579 86.5161 40.0443C86.5123 40.9723 86.6051 41.7526 86.7945 42.3852C86.9877 43.0177 87.2604 43.495 87.6127 43.817C87.9649 44.1352 88.3835 44.2943 88.8683 44.2943Z" fill="white"/>
<path d="M1.20099 104.785V90.9665H4.12251V102.376H10.0465V104.785H1.20099ZM12.6259 104.785V94.421H15.5002V104.785H12.6259ZM13.0375 93.0851L14.4679 90.0151H17.1263L15.0684 93.0851H13.0375ZM21.3756 98.7932V104.785H18.5013V94.421H21.2406V96.2495H21.3621C21.5915 95.6468 21.9761 95.17 22.5159 94.8191C23.0556 94.4638 23.7101 94.2861 24.4793 94.2861C25.199 94.2861 25.8265 94.4435 26.3617 94.7584C26.897 95.0733 27.3131 95.5231 27.61 96.1078C27.9068 96.6881 28.0553 97.3808 28.0553 98.1859V104.785H25.181V98.6987C25.1855 98.0645 25.0235 97.5697 24.6952 97.2144C24.3668 96.8545 23.9148 96.6746 23.339 96.6746C22.9522 96.6746 22.6103 96.7578 22.3134 96.9242C22.0211 97.0907 21.7917 97.3336 21.6252 97.6529C21.4633 97.9678 21.3801 98.3479 21.3756 98.7932ZM35.7423 104.987C34.6762 104.987 33.7586 104.771 32.9894 104.339C32.2247 103.903 31.6355 103.287 31.2217 102.491C30.8078 101.69 30.6009 100.743 30.6009 99.6501C30.6009 98.584 30.8078 97.6484 31.2217 96.8433C31.6355 96.0381 32.218 95.4106 32.9692 94.9608C33.7249 94.511 34.611 94.2861 35.6276 94.2861C36.3113 94.2861 36.9478 94.3963 37.537 94.6167C38.1308 94.8326 38.648 95.1587 39.0889 95.595C39.5342 96.0314 39.8805 96.5801 40.1279 97.2413C40.3753 97.8981 40.499 98.6672 40.499 99.5489V100.338H31.7479V98.557H37.7934C37.7934 98.1432 37.7034 97.7766 37.5235 97.4573C37.3436 97.1379 37.0939 96.8882 36.7746 96.7083C36.4597 96.5239 36.0931 96.4317 35.6748 96.4317C35.2385 96.4317 34.8516 96.5329 34.5143 96.7353C34.1814 96.9332 33.9205 97.2009 33.7316 97.5382C33.5427 97.8711 33.446 98.2422 33.4415 98.6515V100.345C33.4415 100.858 33.5359 101.301 33.7249 101.674C33.9183 102.048 34.1904 102.335 34.5413 102.538C34.8921 102.74 35.3082 102.841 35.7895 102.841C36.1089 102.841 36.4012 102.797 36.6666 102.707C36.932 102.617 37.1592 102.482 37.3481 102.302C37.537 102.122 37.6809 101.901 37.7799 101.64L40.4383 101.816C40.3033 102.455 40.0267 103.012 39.6084 103.489C39.1946 103.962 38.6593 104.33 38.0026 104.596C37.3503 104.857 36.5969 104.987 35.7423 104.987ZM46.0286 104.98C45.3674 104.98 44.7781 104.866 44.2608 104.636C43.7436 104.402 43.3342 104.058 43.0329 103.604C42.736 103.145 42.5875 102.574 42.5875 101.89C42.5875 101.314 42.6933 100.831 42.9047 100.439C43.1161 100.048 43.404 99.7333 43.7683 99.4949C44.1326 99.2565 44.5465 99.0766 45.0098 98.9551C45.4776 98.8337 45.9679 98.7482 46.4807 98.6987C47.0834 98.6358 47.5692 98.5773 47.938 98.5233C48.3069 98.4648 48.5745 98.3794 48.741 98.2669C48.9074 98.1545 48.9906 97.988 48.9906 97.7676V97.7271C48.9906 97.2998 48.8557 96.9692 48.5858 96.7353C48.3204 96.5014 47.9425 96.3845 47.4522 96.3845C46.935 96.3845 46.5234 96.4992 46.2175 96.7286C45.9116 96.9535 45.7092 97.2368 45.6103 97.5787L42.9519 97.3628C43.0868 96.7331 43.3522 96.1888 43.7481 95.73C44.1439 95.2667 44.6544 94.9113 45.2797 94.6639C45.9094 94.412 46.6381 94.2861 47.4657 94.2861C48.0415 94.2861 48.5925 94.3536 49.1188 94.4885C49.6496 94.6234 50.1196 94.8326 50.529 95.116C50.9428 95.3994 51.2689 95.7637 51.5073 96.209C51.7457 96.6498 51.8649 97.1784 51.8649 97.7946V104.785H49.139V103.348H49.0581C48.8916 103.671 48.669 103.957 48.3901 104.204C48.1112 104.447 47.7761 104.638 47.3848 104.778C46.9934 104.913 46.5414 104.98 46.0286 104.98ZM46.8517 102.997C47.2746 102.997 47.6479 102.913 47.9718 102.747C48.2956 102.576 48.5498 102.347 48.7342 102.059C48.9186 101.771 49.0108 101.445 49.0108 101.08V99.9807C48.9209 100.039 48.7972 100.093 48.6397 100.143C48.4868 100.188 48.3136 100.23 48.1202 100.271C47.9268 100.307 47.7334 100.341 47.54 100.372C47.3465 100.399 47.1711 100.424 47.0137 100.446C46.6763 100.496 46.3817 100.574 46.1298 100.682C45.8779 100.79 45.6822 100.937 45.5428 101.121C45.4034 101.301 45.3336 101.526 45.3336 101.796C45.3336 102.187 45.4753 102.486 45.7587 102.693C46.0466 102.895 46.4109 102.997 46.8517 102.997ZM63.7084 104.953C62.9213 104.953 62.2083 104.751 61.5696 104.346C60.9353 103.937 60.4316 103.336 60.0582 102.545C59.6894 101.748 59.5049 100.772 59.5049 99.6163C59.5049 98.4288 59.6961 97.4415 60.0784 96.6543C60.4608 95.8627 60.9691 95.2712 61.6033 94.8798C62.242 94.484 62.9415 94.2861 63.7017 94.2861C64.2819 94.2861 64.7655 94.385 65.1523 94.583C65.5436 94.7764 65.8585 95.0193 66.0969 95.3117C66.3398 95.5995 66.5242 95.8829 66.6502 96.1618H66.7379V90.9665H69.6054V104.785H66.7716V103.125H66.6502C66.5152 103.413 66.3241 103.698 66.0767 103.982C65.8338 104.261 65.5167 104.492 65.1253 104.677C64.7385 104.861 64.2662 104.953 63.7084 104.953ZM64.6193 102.666C65.0826 102.666 65.4739 102.54 65.7933 102.288C66.1172 102.032 66.3646 101.674 66.5355 101.215C66.7109 100.757 66.7986 100.219 66.7986 99.6028C66.7986 98.9866 66.7132 98.4513 66.5422 97.997C66.3713 97.5427 66.1239 97.1919 65.8 96.9445C65.4762 96.6971 65.0826 96.5734 64.6193 96.5734C64.147 96.5734 63.7489 96.7016 63.425 96.958C63.1012 97.2144 62.856 97.5697 62.6896 98.024C62.5232 98.4783 62.44 99.0046 62.44 99.6028C62.44 100.206 62.5232 100.739 62.6896 101.202C62.8605 101.661 63.1057 102.021 63.425 102.281C63.7489 102.538 64.147 102.666 64.6193 102.666ZM77.3903 104.987C76.3242 104.987 75.4066 104.771 74.6374 104.339C73.8727 103.903 73.2835 103.287 72.8697 102.491C72.4558 101.69 72.2489 100.743 72.2489 99.6501C72.2489 98.584 72.4558 97.6484 72.8697 96.8433C73.2835 96.0381 73.866 95.4106 74.6172 94.9608C75.3729 94.511 76.259 94.2861 77.2756 94.2861C77.9593 94.2861 78.5958 94.3963 79.185 94.6167C79.7788 94.8326 80.296 95.1587 80.7369 95.595C81.1822 96.0314 81.5285 96.5801 81.7759 97.2413C82.0233 97.8981 82.147 98.6672 82.147 99.5489V100.338H73.3959V98.557H79.4414C79.4414 98.1432 79.3514 97.7766 79.1715 97.4573C78.9916 97.1379 78.7419 96.8882 78.4226 96.7083C78.1077 96.5239 77.7411 96.4317 77.3228 96.4317C76.8865 96.4317 76.4996 96.5329 76.1623 96.7353C75.8294 96.9332 75.5685 97.2009 75.3796 97.5382C75.1907 97.8711 75.094 98.2422 75.0895 98.6515V100.345C75.0895 100.858 75.1839 101.301 75.3729 101.674C75.5663 102.048 75.8384 102.335 76.1893 102.538C76.5401 102.74 76.9562 102.841 77.4375 102.841C77.7569 102.841 78.0492 102.797 78.3146 102.707C78.58 102.617 78.8072 102.482 78.9961 102.302C79.185 102.122 79.3289 101.901 79.4279 101.64L82.0863 101.816C81.9513 102.455 81.6747 103.012 81.2564 103.489C80.8426 103.962 80.3073 104.33 79.6506 104.596C78.9983 104.857 78.2449 104.987 77.3903 104.987ZM94.5 104.987C93.4384 104.987 92.5253 104.762 91.7606 104.312C91.0004 103.858 90.4157 103.228 90.0063 102.423C89.6015 101.618 89.3991 100.691 89.3991 99.6433C89.3991 98.5818 89.6038 97.6507 90.0131 96.85C90.4269 96.0448 91.0139 95.4174 91.7741 94.9676C92.5343 94.5132 93.4384 94.2861 94.4865 94.2861C95.3906 94.2861 96.1822 94.4503 96.8615 94.7786C97.5407 95.107 98.0782 95.568 98.474 96.1618C98.8699 96.7555 99.088 97.4528 99.1285 98.2534H96.4161C96.3397 97.7361 96.1373 97.3201 95.8089 97.0052C95.485 96.6858 95.06 96.5261 94.5337 96.5261C94.0884 96.5261 93.6993 96.6476 93.3664 96.8905C93.0381 97.1289 92.7817 97.4775 92.5973 97.9363C92.4128 98.3951 92.3206 98.9506 92.3206 99.6028C92.3206 100.264 92.4106 100.826 92.5905 101.29C92.7749 101.753 93.0336 102.106 93.3664 102.349C93.6993 102.592 94.0884 102.713 94.5337 102.713C94.8621 102.713 95.1567 102.646 95.4176 102.511C95.683 102.376 95.9011 102.18 96.072 101.924C96.2475 101.663 96.3622 101.35 96.4161 100.986H99.1285C99.0835 101.778 98.8676 102.475 98.4808 103.078C98.0984 103.676 97.5699 104.144 96.8952 104.481C96.2205 104.818 95.4221 104.987 94.5 104.987ZM101.667 104.785V94.421H104.454V96.2293H104.562C104.751 95.586 105.068 95.1002 105.513 94.7719C105.959 94.439 106.471 94.2726 107.052 94.2726C107.196 94.2726 107.351 94.2816 107.517 94.2996C107.684 94.3176 107.83 94.3423 107.956 94.3738V96.9242C107.821 96.8837 107.634 96.8478 107.396 96.8163C107.157 96.7848 106.939 96.769 106.741 96.769C106.318 96.769 105.941 96.8613 105.608 97.0457C105.279 97.2256 105.018 97.4775 104.825 97.8014C104.636 98.1252 104.542 98.4986 104.542 98.9214V104.785H101.667ZM114.381 104.987C113.315 104.987 112.397 104.771 111.628 104.339C110.864 103.903 110.274 103.287 109.86 102.491C109.447 101.69 109.24 100.743 109.24 99.6501C109.24 98.584 109.447 97.6484 109.86 96.8433C110.274 96.0381 110.857 95.4106 111.608 94.9608C112.364 94.511 113.25 94.2861 114.266 94.2861C114.95 94.2861 115.587 94.3963 116.176 94.6167C116.77 94.8326 117.287 95.1587 117.728 95.595C118.173 96.0314 118.519 96.5801 118.767 97.2413C119.014 97.8981 119.138 98.6672 119.138 99.5489V100.338H110.387V98.557H116.432C116.432 98.1432 116.342 97.7766 116.162 97.4573C115.982 97.1379 115.733 96.8882 115.413 96.7083C115.098 96.5239 114.732 96.4317 114.314 96.4317C113.877 96.4317 113.49 96.5329 113.153 96.7353C112.82 96.9332 112.559 97.2009 112.37 97.5382C112.181 97.8711 112.085 98.2422 112.08 98.6515V100.345C112.08 100.858 112.175 101.301 112.364 101.674C112.557 102.048 112.829 102.335 113.18 102.538C113.531 102.74 113.947 102.841 114.428 102.841C114.748 102.841 115.04 102.797 115.305 102.707C115.571 102.617 115.798 102.482 115.987 102.302C116.176 102.122 116.32 101.901 116.419 101.64L119.077 101.816C118.942 102.455 118.665 103.012 118.247 103.489C117.833 103.962 117.298 104.33 116.641 104.596C115.989 104.857 115.236 104.987 114.381 104.987ZM113.167 93.0851L114.597 90.0151H117.255L115.197 93.0851H113.167ZM125.531 104.953C124.744 104.953 124.031 104.751 123.392 104.346C122.758 103.937 122.254 103.336 121.881 102.545C121.512 101.748 121.328 100.772 121.328 99.6163C121.328 98.4288 121.519 97.4415 121.901 96.6543C122.283 95.8627 122.792 95.2712 123.426 94.8798C124.065 94.484 124.764 94.2861 125.524 94.2861C126.105 94.2861 126.588 94.385 126.975 94.583C127.366 94.7764 127.681 95.0193 127.92 95.3117C128.162 95.5995 128.347 95.8829 128.473 96.1618H128.56V90.9665H131.428V104.785H128.594V103.125H128.473C128.338 103.413 128.147 103.698 127.899 103.982C127.656 104.261 127.339 104.492 126.948 104.677C126.561 104.861 126.089 104.953 125.531 104.953ZM126.442 102.666C126.905 102.666 127.297 102.54 127.616 102.288C127.94 102.032 128.187 101.674 128.358 101.215C128.533 100.757 128.621 100.219 128.621 99.6028C128.621 98.9866 128.536 98.4513 128.365 97.997C128.194 97.5427 127.946 97.1919 127.623 96.9445C127.299 96.6971 126.905 96.5734 126.442 96.5734C125.97 96.5734 125.571 96.7016 125.248 96.958C124.924 97.2144 124.679 97.5697 124.512 98.024C124.346 98.4783 124.263 99.0046 124.263 99.6028C124.263 100.206 124.346 100.739 124.512 101.202C124.683 101.661 124.928 102.021 125.248 102.281C125.571 102.538 125.97 102.666 126.442 102.666ZM134.49 104.785V94.421H137.364V104.785H134.49ZM135.934 93.0851C135.506 93.0851 135.14 92.9434 134.834 92.66C134.533 92.3721 134.382 92.028 134.382 91.6277C134.382 91.2319 134.533 90.8923 134.834 90.6089C135.14 90.321 135.506 90.1771 135.934 90.1771C136.361 90.1771 136.725 90.321 137.027 90.6089C137.333 90.8923 137.486 91.2319 137.486 91.6277C137.486 92.028 137.333 92.3721 137.027 92.66C136.725 92.9434 136.361 93.0851 135.934 93.0851ZM145.878 94.421V96.5801H139.637V94.421H145.878ZM141.053 91.9381H143.928V101.6C143.928 101.865 143.968 102.072 144.049 102.221C144.13 102.365 144.243 102.466 144.387 102.524C144.535 102.583 144.706 102.612 144.899 102.612C145.034 102.612 145.169 102.601 145.304 102.578C145.439 102.551 145.543 102.531 145.615 102.518L146.067 104.656C145.923 104.701 145.72 104.753 145.459 104.812C145.198 104.875 144.881 104.913 144.508 104.926C143.815 104.953 143.208 104.861 142.686 104.65C142.169 104.438 141.766 104.11 141.478 103.665C141.191 103.219 141.049 102.657 141.053 101.978V91.9381ZM153.02 104.987C151.972 104.987 151.065 104.764 150.301 104.319C149.541 103.869 148.954 103.244 148.54 102.443C148.126 101.638 147.919 100.705 147.919 99.6433C147.919 98.5728 148.126 97.6372 148.54 96.8365C148.954 96.0314 149.541 95.4061 150.301 94.9608C151.065 94.511 151.972 94.2861 153.02 94.2861C154.068 94.2861 154.972 94.511 155.732 94.9608C156.497 95.4061 157.086 96.0314 157.5 96.8365C157.914 97.6372 158.121 98.5728 158.121 99.6433C158.121 100.705 157.914 101.638 157.5 102.443C157.086 103.244 156.497 103.869 155.732 104.319C154.972 104.764 154.068 104.987 153.02 104.987ZM153.033 102.761C153.51 102.761 153.908 102.626 154.228 102.356C154.547 102.081 154.788 101.708 154.949 101.236C155.116 100.763 155.199 100.226 155.199 99.6231C155.199 99.0203 155.116 98.4828 154.949 98.0105C154.788 97.5382 154.547 97.1649 154.228 96.8905C153.908 96.6161 153.51 96.4789 153.033 96.4789C152.552 96.4789 152.147 96.6161 151.819 96.8905C151.495 97.1649 151.25 97.5382 151.083 98.0105C150.921 98.4828 150.84 99.0203 150.84 99.6231C150.84 100.226 150.921 100.763 151.083 101.236C151.25 101.708 151.495 102.081 151.819 102.356C152.147 102.626 152.552 102.761 153.033 102.761ZM162.368 104.96C161.923 104.96 161.541 104.803 161.221 104.488C160.906 104.168 160.749 103.786 160.749 103.341C160.749 102.9 160.906 102.522 161.221 102.207C161.541 101.892 161.923 101.735 162.368 101.735C162.8 101.735 163.178 101.892 163.502 102.207C163.826 102.522 163.988 102.9 163.988 103.341C163.988 103.638 163.911 103.91 163.758 104.157C163.61 104.4 163.414 104.596 163.171 104.744C162.928 104.888 162.661 104.96 162.368 104.96ZM162.368 97.7002C161.923 97.7002 161.541 97.5427 161.221 97.2278C160.906 96.913 160.749 96.5306 160.749 96.0808C160.749 95.64 160.906 95.2644 161.221 94.9541C161.541 94.6392 161.923 94.4818 162.368 94.4818C162.8 94.4818 163.178 94.6392 163.502 94.9541C163.826 95.2644 163.988 95.64 163.988 96.0808C163.988 96.3822 163.911 96.6566 163.758 96.904C163.61 97.1469 163.414 97.3403 163.171 97.4842C162.928 97.6282 162.661 97.7002 162.368 97.7002ZM176.757 106.512V89.2392H177.864V106.512H176.757ZM179.692 94.9406C179.638 94.3963 179.407 93.9735 178.997 93.6721C178.588 93.3707 178.032 93.22 177.331 93.22C176.854 93.22 176.451 93.2875 176.123 93.4225C175.795 93.5529 175.543 93.7351 175.367 93.969C175.196 94.2029 175.111 94.4683 175.111 94.7651C175.102 95.0125 175.154 95.2284 175.266 95.4129C175.383 95.5973 175.543 95.757 175.745 95.8919C175.948 96.0224 176.181 96.1371 176.447 96.236C176.712 96.3305 176.996 96.4114 177.297 96.4789L178.538 96.7758C179.141 96.9107 179.694 97.0907 180.198 97.3156C180.702 97.5405 181.138 97.8171 181.507 98.1455C181.876 98.4738 182.162 98.8607 182.364 99.306C182.571 99.7513 182.677 100.262 182.681 100.838C182.677 101.683 182.461 102.416 182.033 103.037C181.611 103.653 180.999 104.132 180.198 104.474C179.402 104.812 178.442 104.98 177.317 104.98C176.202 104.98 175.23 104.809 174.402 104.468C173.579 104.126 172.936 103.62 172.473 102.949C172.014 102.275 171.773 101.44 171.751 100.446H174.578C174.609 100.91 174.742 101.296 174.976 101.607C175.214 101.913 175.531 102.144 175.927 102.302C176.328 102.455 176.78 102.531 177.283 102.531C177.778 102.531 178.208 102.459 178.572 102.315C178.941 102.171 179.227 101.971 179.429 101.715C179.631 101.458 179.733 101.164 179.733 100.831C179.733 100.52 179.64 100.26 179.456 100.048C179.276 99.8368 179.011 99.6568 178.66 99.5084C178.314 99.36 177.888 99.225 177.385 99.1036L175.88 98.7257C174.715 98.4423 173.795 97.9993 173.12 97.3965C172.446 96.7938 172.111 95.9819 172.115 94.9608C172.111 94.1242 172.333 93.3932 172.783 92.768C173.237 92.1427 173.86 91.6547 174.652 91.3038C175.444 90.953 176.343 90.7776 177.351 90.7776C178.377 90.7776 179.272 90.953 180.036 91.3038C180.805 91.6547 181.404 92.1427 181.831 92.768C182.258 93.3932 182.479 94.1174 182.492 94.9406H179.692ZM191.276 90.9665V104.785H188.354V93.7396H188.273L185.109 95.7232V93.1323L188.53 90.9665H191.276ZM200.305 104.974C199.352 104.974 198.502 104.798 197.755 104.447C197.013 104.096 196.423 103.613 195.987 102.997C195.551 102.38 195.324 101.674 195.306 100.878H198.14C198.171 101.413 198.396 101.847 198.814 102.18C199.233 102.513 199.73 102.68 200.305 102.68C200.764 102.68 201.169 102.578 201.52 102.376C201.875 102.169 202.152 101.883 202.35 101.519C202.552 101.15 202.653 100.727 202.653 100.251C202.653 99.7648 202.55 99.3375 202.343 98.9686C202.141 98.5998 201.859 98.3119 201.5 98.105C201.14 97.8981 200.728 97.7924 200.265 97.7879C199.86 97.7879 199.466 97.8711 199.084 98.0375C198.706 98.2039 198.412 98.4311 198.2 98.719L195.603 98.2534L196.257 90.9665H204.704V93.355H198.666L198.308 96.8163H198.389C198.632 96.4744 198.999 96.191 199.489 95.9661C199.979 95.7412 200.528 95.6288 201.135 95.6288C201.967 95.6288 202.71 95.8244 203.362 96.2158C204.014 96.6071 204.529 97.1446 204.907 97.8283C205.285 98.5076 205.471 99.2902 205.467 100.176C205.471 101.107 205.256 101.935 204.819 102.659C204.387 103.379 203.782 103.946 203.004 104.36C202.231 104.769 201.331 104.974 200.305 104.974ZM209.465 104.96C209.02 104.96 208.637 104.803 208.318 104.488C208.003 104.168 207.846 103.786 207.846 103.341C207.846 102.9 208.003 102.522 208.318 102.207C208.637 101.892 209.02 101.735 209.465 101.735C209.897 101.735 210.275 101.892 210.598 102.207C210.922 102.522 211.084 102.9 211.084 103.341C211.084 103.638 211.008 103.91 210.855 104.157C210.706 104.4 210.511 104.596 210.268 104.744C210.025 104.888 209.757 104.96 209.465 104.96ZM218.977 105.088C217.816 105.084 216.818 104.798 215.981 104.231C215.149 103.665 214.508 102.844 214.058 101.769C213.613 100.694 213.393 99.4004 213.397 97.8891C213.397 96.3822 213.62 95.098 214.065 94.0364C214.515 92.9749 215.156 92.1675 215.988 91.6142C216.825 91.0564 217.821 90.7776 218.977 90.7776C220.133 90.7776 221.127 91.0564 221.959 91.6142C222.796 92.172 223.439 92.9816 223.889 94.0432C224.339 95.1002 224.561 96.3822 224.557 97.8891C224.557 99.4049 224.332 100.7 223.882 101.775C223.437 102.85 222.798 103.671 221.966 104.238C221.134 104.805 220.138 105.088 218.977 105.088ZM218.977 102.666C219.769 102.666 220.401 102.268 220.873 101.472C221.345 100.676 221.579 99.4814 221.575 97.8891C221.575 96.841 221.467 95.9684 221.251 95.2712C221.039 94.574 220.738 94.0499 220.347 93.6991C219.96 93.3482 219.503 93.1728 218.977 93.1728C218.19 93.1728 217.56 93.5664 217.088 94.3536C216.616 95.1407 216.377 96.3192 216.373 97.8891C216.373 98.9506 216.478 99.8368 216.69 100.547C216.906 101.254 217.209 101.784 217.601 102.14C217.992 102.491 218.451 102.666 218.977 102.666ZM232.757 105.088C231.596 105.084 230.598 104.798 229.761 104.231C228.929 103.665 228.288 102.844 227.838 101.769C227.393 100.694 227.172 99.4004 227.177 97.8891C227.177 96.3822 227.399 95.098 227.845 94.0364C228.295 92.9749 228.936 92.1675 229.768 91.6142C230.604 91.0564 231.601 90.7776 232.757 90.7776C233.913 90.7776 234.907 91.0564 235.739 91.6142C236.576 92.172 237.219 92.9816 237.669 94.0432C238.118 95.1002 238.341 96.3822 238.337 97.8891C238.337 99.4049 238.112 100.7 237.662 101.775C237.217 102.85 236.578 103.671 235.746 104.238C234.914 104.805 233.917 105.088 232.757 105.088ZM232.757 102.666C233.548 102.666 234.18 102.268 234.653 101.472C235.125 100.676 235.359 99.4814 235.354 97.8891C235.354 96.841 235.246 95.9684 235.03 95.2712C234.819 94.574 234.518 94.0499 234.126 93.6991C233.74 93.3482 233.283 93.1728 232.757 93.1728C231.97 93.1728 231.34 93.5664 230.867 94.3536C230.395 95.1407 230.157 96.3192 230.152 97.8891C230.152 98.9506 230.258 99.8368 230.469 100.547C230.685 101.254 230.989 101.784 231.38 102.14C231.772 102.491 232.23 102.666 232.757 102.666ZM246.536 105.088C245.376 105.084 244.377 104.798 243.541 104.231C242.708 103.665 242.067 102.844 241.618 101.769C241.172 100.694 240.952 99.4004 240.956 97.8891C240.956 96.3822 241.179 95.098 241.624 94.0364C242.074 92.9749 242.715 92.1675 243.547 91.6142C244.384 91.0564 245.38 90.7776 246.536 90.7776C247.692 90.7776 248.686 91.0564 249.519 91.6142C250.355 92.172 250.998 92.9816 251.448 94.0432C251.898 95.1002 252.121 96.3822 252.116 97.8891C252.116 99.4049 251.891 100.7 251.442 101.775C250.996 102.85 250.358 103.671 249.525 104.238C248.693 104.805 247.697 105.088 246.536 105.088ZM246.536 102.666C247.328 102.666 247.96 102.268 248.432 101.472C248.905 100.676 249.139 99.4814 249.134 97.8891C249.134 96.841 249.026 95.9684 248.81 95.2712C248.599 94.574 248.297 94.0499 247.906 93.6991C247.519 93.3482 247.063 93.1728 246.536 93.1728C245.749 93.1728 245.119 93.5664 244.647 94.3536C244.175 95.1407 243.936 96.3192 243.932 97.8891C243.932 98.9506 244.038 99.8368 244.249 100.547C244.465 101.254 244.769 101.784 245.16 102.14C245.551 102.491 246.01 102.666 246.536 102.666ZM256.048 104.96C255.603 104.96 255.221 104.803 254.901 104.488C254.587 104.168 254.429 103.786 254.429 103.341C254.429 102.9 254.587 102.522 254.901 102.207C255.221 101.892 255.603 101.735 256.048 101.735C256.48 101.735 256.858 101.892 257.182 102.207C257.506 102.522 257.668 102.9 257.668 103.341C257.668 103.638 257.591 103.91 257.438 104.157C257.29 104.4 257.094 104.596 256.851 104.744C256.608 104.888 256.341 104.96 256.048 104.96ZM265.561 105.088C264.4 105.084 263.401 104.798 262.565 104.231C261.733 103.665 261.092 102.844 260.642 101.769C260.197 100.694 259.976 99.4004 259.981 97.8891C259.981 96.3822 260.203 95.098 260.649 94.0364C261.098 92.9749 261.739 92.1675 262.572 91.6142C263.408 91.0564 264.405 90.7776 265.561 90.7776C266.717 90.7776 267.711 91.0564 268.543 91.6142C269.379 92.172 270.023 92.9816 270.472 94.0432C270.922 95.1002 271.145 96.3822 271.14 97.8891C271.14 99.4049 270.916 100.7 270.466 101.775C270.02 102.85 269.382 103.671 268.55 104.238C267.717 104.805 266.721 105.088 265.561 105.088ZM265.561 102.666C266.352 102.666 266.984 102.268 267.457 101.472C267.929 100.676 268.163 99.4814 268.158 97.8891C268.158 96.841 268.05 95.9684 267.834 95.2712C267.623 94.574 267.322 94.0499 266.93 93.6991C266.543 93.3482 266.087 93.1728 265.561 93.1728C264.773 93.1728 264.144 93.5664 263.671 94.3536C263.199 95.1407 262.961 96.3192 262.956 97.8891C262.956 98.9506 263.062 99.8368 263.273 100.547C263.489 101.254 263.793 101.784 264.184 102.14C264.575 102.491 265.034 102.666 265.561 102.666ZM279.34 105.088C278.18 105.084 277.181 104.798 276.345 104.231C275.512 103.665 274.871 102.844 274.422 101.769C273.976 100.694 273.756 99.4004 273.76 97.8891C273.76 96.3822 273.983 95.098 274.428 94.0364C274.878 92.9749 275.519 92.1675 276.351 91.6142C277.188 91.0564 278.184 90.7776 279.34 90.7776C280.496 90.7776 281.49 91.0564 282.322 91.6142C283.159 92.172 283.802 92.9816 284.252 94.0432C284.702 95.1002 284.925 96.3822 284.92 97.8891C284.92 99.4049 284.695 100.7 284.245 101.775C283.8 102.85 283.161 103.671 282.329 104.238C281.497 104.805 280.501 105.088 279.34 105.088ZM279.34 102.666C280.132 102.666 280.764 102.268 281.236 101.472C281.708 100.676 281.942 99.4814 281.938 97.8891C281.938 96.841 281.83 95.9684 281.614 95.2712C281.403 94.574 281.101 94.0499 280.71 93.6991C280.323 93.3482 279.867 93.1728 279.34 93.1728C278.553 93.1728 277.923 93.5664 277.451 94.3536C276.979 95.1407 276.74 96.3192 276.736 97.8891C276.736 98.9506 276.842 99.8368 277.053 100.547C277.269 101.254 277.572 101.784 277.964 102.14C278.355 102.491 278.814 102.666 279.34 102.666ZM293.12 105.088C291.959 105.084 290.961 104.798 290.124 104.231C289.292 103.665 288.651 102.844 288.201 101.769C287.756 100.694 287.536 99.4004 287.54 97.8891C287.54 96.3822 287.763 95.098 288.208 94.0364C288.658 92.9749 289.299 92.1675 290.131 91.6142C290.968 91.0564 291.964 90.7776 293.12 90.7776C294.276 90.7776 295.27 91.0564 296.102 91.6142C296.939 92.172 297.582 92.9816 298.032 94.0432C298.482 95.1002 298.704 96.3822 298.7 97.8891C298.7 99.4049 298.475 100.7 298.025 101.775C297.58 102.85 296.941 103.671 296.109 104.238C295.277 104.805 294.28 105.088 293.12 105.088ZM293.12 102.666C293.912 102.666 294.544 102.268 295.016 101.472C295.488 100.676 295.722 99.4814 295.718 97.8891C295.718 96.841 295.61 95.9684 295.394 95.2712C295.182 94.574 294.881 94.0499 294.49 93.6991C294.103 93.3482 293.646 93.1728 293.12 93.1728C292.333 93.1728 291.703 93.5664 291.231 94.3536C290.758 95.1407 290.52 96.3192 290.516 97.8891C290.516 98.9506 290.621 99.8368 290.833 100.547C291.049 101.254 291.352 101.784 291.743 102.14C292.135 102.491 292.594 102.666 293.12 102.666Z" fill="#FF9129"/>
<path d="M305.155 47.3056V32.7602H306.087V47.3056H305.155ZM308.291 37.1238C308.223 36.548 307.947 36.1011 307.462 35.7829C306.977 35.4647 306.382 35.3056 305.678 35.3056C305.163 35.3056 304.712 35.389 304.325 35.5556C303.943 35.7223 303.644 35.9515 303.428 36.2431C303.216 36.5348 303.11 36.8662 303.11 37.2374C303.11 37.548 303.183 37.8151 303.331 38.0386C303.483 38.2583 303.676 38.442 303.911 38.5897C304.146 38.7336 304.392 38.853 304.649 38.9477C304.907 39.0386 305.144 39.1124 305.36 39.1693L306.541 39.4874C306.844 39.567 307.181 39.6768 307.553 39.817C307.928 39.9571 308.286 40.1484 308.627 40.3908C308.971 40.6295 309.255 40.9363 309.479 41.3113C309.702 41.6863 309.814 42.1465 309.814 42.692C309.814 43.3208 309.649 43.889 309.32 44.3965C308.994 44.9041 308.517 45.3075 307.888 45.6068C307.263 45.906 306.503 46.0556 305.61 46.0556C304.776 46.0556 304.055 45.9211 303.445 45.6522C302.839 45.3833 302.361 45.0083 302.013 44.5272C301.668 44.0462 301.473 43.4874 301.428 42.8511H302.882C302.92 43.2905 303.068 43.6541 303.325 43.942C303.587 44.2261 303.916 44.4382 304.314 44.5783C304.716 44.7147 305.147 44.7829 305.61 44.7829C306.147 44.7829 306.63 44.6958 307.058 44.5215C307.486 44.3435 307.825 44.0973 308.075 43.7829C308.325 43.4647 308.45 43.0935 308.45 42.6693C308.45 42.2829 308.342 41.9685 308.127 41.7261C307.911 41.4836 307.627 41.2867 307.274 41.1352C306.922 40.9836 306.541 40.8511 306.132 40.7374L304.7 40.3283C303.791 40.067 303.072 39.6939 302.541 39.209C302.011 38.7242 301.746 38.0897 301.746 37.3056C301.746 36.6541 301.922 36.0859 302.274 35.6011C302.63 35.1124 303.108 34.7336 303.706 34.4647C304.308 34.192 304.981 34.0556 305.723 34.0556C306.473 34.0556 307.14 34.1901 307.723 34.459C308.306 34.7242 308.769 35.0878 309.11 35.5499C309.454 36.0121 309.636 36.5367 309.655 37.1238H308.291ZM316.194 34.2147V45.8511H314.785V35.692H314.716L311.876 37.5783V36.1465L314.785 34.2147H316.194ZM323.649 46.0102C322.899 46.0102 322.23 45.8814 321.643 45.6238C321.06 45.3662 320.596 45.0083 320.251 44.5499C319.91 44.0878 319.724 43.5518 319.694 42.942H321.126C321.156 43.317 321.285 43.6408 321.512 43.9136C321.74 44.1825 322.037 44.3908 322.404 44.5386C322.772 44.6863 323.179 44.7602 323.626 44.7602C324.126 44.7602 324.569 44.673 324.955 44.4988C325.342 44.3246 325.645 44.0821 325.865 43.7715C326.084 43.4609 326.194 43.1011 326.194 42.692C326.194 42.264 326.088 41.8871 325.876 41.5613C325.664 41.2318 325.353 40.9742 324.944 40.7886C324.535 40.603 324.035 40.5102 323.444 40.5102H322.512V39.2602H323.444C323.906 39.2602 324.312 39.1768 324.66 39.0102C325.012 38.8435 325.287 38.6086 325.484 38.3056C325.685 38.0026 325.785 37.6465 325.785 37.2374C325.785 36.8435 325.698 36.5007 325.524 36.209C325.349 35.9174 325.103 35.6901 324.785 35.5272C324.471 35.3643 324.099 35.2829 323.671 35.2829C323.27 35.2829 322.891 35.3568 322.535 35.5045C322.183 35.6484 321.895 35.8586 321.671 36.1352C321.448 36.4079 321.327 36.7374 321.308 37.1238H319.944C319.967 36.514 320.151 35.9799 320.495 35.5215C320.84 35.0594 321.291 34.6996 321.848 34.442C322.408 34.1844 323.024 34.0556 323.694 34.0556C324.414 34.0556 325.031 34.2015 325.546 34.4931C326.062 34.781 326.457 35.1617 326.734 35.6352C327.01 36.1086 327.149 36.62 327.149 37.1693C327.149 37.8246 326.976 38.3833 326.632 38.8454C326.291 39.3075 325.827 39.6276 325.24 39.8056V39.8965C325.974 40.0177 326.548 40.3302 326.961 40.834C327.374 41.334 327.58 41.9533 327.58 42.692C327.58 43.3246 327.408 43.8927 327.063 44.3965C326.723 44.8965 326.257 45.2905 325.666 45.5783C325.075 45.8662 324.402 46.0102 323.649 46.0102ZM330.721 45.942C330.441 45.942 330.201 45.8416 330 45.6408C329.799 45.4401 329.699 45.1996 329.699 44.9193C329.699 44.639 329.799 44.3984 330 44.1977C330.201 43.9969 330.441 43.8965 330.721 43.8965C331.002 43.8965 331.242 43.9969 331.443 44.1977C331.644 44.3984 331.744 44.639 331.744 44.9193C331.744 45.1049 331.697 45.2753 331.602 45.4306C331.511 45.5859 331.388 45.7109 331.233 45.8056C331.081 45.8965 330.911 45.942 330.721 45.942ZM337.693 46.0102C336.837 46.0102 336.108 45.7772 335.506 45.3113C334.904 44.8416 334.443 44.1617 334.125 43.2715C333.807 42.3776 333.648 41.298 333.648 40.0329C333.648 38.7753 333.807 37.7015 334.125 36.8113C334.447 35.9174 334.909 35.2355 335.512 34.7658C336.118 34.2924 336.845 34.0556 337.693 34.0556C338.542 34.0556 339.267 34.2924 339.87 34.7658C340.476 35.2355 340.938 35.9174 341.256 36.8113C341.578 37.7015 341.739 38.7753 341.739 40.0329C341.739 41.298 341.58 42.3776 341.262 43.2715C340.943 44.1617 340.483 44.8416 339.881 45.3113C339.279 45.7772 338.55 46.0102 337.693 46.0102ZM337.693 44.7602C338.542 44.7602 339.201 44.3511 339.671 43.5329C340.14 42.7147 340.375 41.548 340.375 40.0329C340.375 39.0253 340.267 38.1674 340.051 37.459C339.839 36.7507 339.532 36.2109 339.131 35.8397C338.733 35.4685 338.254 35.2829 337.693 35.2829C336.853 35.2829 336.195 35.6977 335.722 36.5272C335.248 37.353 335.012 38.5215 335.012 40.0329C335.012 41.0405 335.118 41.8965 335.33 42.6011C335.542 43.3056 335.847 43.8416 336.245 44.209C336.646 44.5765 337.129 44.7602 337.693 44.7602ZM347.87 46.0102C347.014 46.0102 346.285 45.7772 345.682 45.3113C345.08 44.8416 344.62 44.1617 344.302 43.2715C343.984 42.3776 343.825 41.298 343.825 40.0329C343.825 38.7753 343.984 37.7015 344.302 36.8113C344.624 35.9174 345.086 35.2355 345.688 34.7658C346.294 34.2924 347.022 34.0556 347.87 34.0556C348.718 34.0556 349.444 34.2924 350.046 34.7658C350.652 35.2355 351.114 35.9174 351.432 36.8113C351.754 37.7015 351.915 38.7753 351.915 40.0329C351.915 41.298 351.756 42.3776 351.438 43.2715C351.12 44.1617 350.66 44.8416 350.057 45.3113C349.455 45.7772 348.726 46.0102 347.87 46.0102ZM347.87 44.7602C348.718 44.7602 349.378 44.3511 349.847 43.5329C350.317 42.7147 350.552 41.548 350.552 40.0329C350.552 39.0253 350.444 38.1674 350.228 37.459C350.016 36.7507 349.709 36.2109 349.307 35.8397C348.91 35.4685 348.431 35.2829 347.87 35.2829C347.029 35.2829 346.372 35.6977 345.898 36.5272C345.425 37.353 345.188 38.5215 345.188 40.0329C345.188 41.0405 345.294 41.8965 345.506 42.6011C345.718 43.3056 346.023 43.8416 346.421 44.209C346.823 44.5765 347.306 44.7602 347.87 44.7602ZM358.047 46.0102C357.19 46.0102 356.461 45.7772 355.859 45.3113C355.257 44.8416 354.797 44.1617 354.478 43.2715C354.16 42.3776 354.001 41.298 354.001 40.0329C354.001 38.7753 354.16 37.7015 354.478 36.8113C354.8 35.9174 355.262 35.2355 355.865 34.7658C356.471 34.2924 357.198 34.0556 358.047 34.0556C358.895 34.0556 359.62 34.2924 360.223 34.7658C360.829 35.2355 361.291 35.9174 361.609 36.8113C361.931 37.7015 362.092 38.7753 362.092 40.0329C362.092 41.298 361.933 42.3776 361.615 43.2715C361.297 44.1617 360.836 44.8416 360.234 45.3113C359.632 45.7772 358.903 46.0102 358.047 46.0102ZM358.047 44.7602C358.895 44.7602 359.554 44.3511 360.024 43.5329C360.493 42.7147 360.728 41.548 360.728 40.0329C360.728 39.0253 360.62 38.1674 360.404 37.459C360.192 36.7507 359.886 36.2109 359.484 35.8397C359.086 35.4685 358.607 35.2829 358.047 35.2829C357.206 35.2829 356.548 35.6977 356.075 36.5272C355.601 37.353 355.365 38.5215 355.365 40.0329C355.365 41.0405 355.471 41.8965 355.683 42.6011C355.895 43.3056 356.2 43.8416 356.598 44.209C356.999 44.5765 357.482 44.7602 358.047 44.7602ZM365.021 45.942C364.741 45.942 364.5 45.8416 364.3 45.6408C364.099 45.4401 363.999 45.1996 363.999 44.9193C363.999 44.639 364.099 44.3984 364.3 44.1977C364.5 43.9969 364.741 43.8965 365.021 43.8965C365.302 43.8965 365.542 43.9969 365.743 44.1977C365.944 44.3984 366.044 44.639 366.044 44.9193C366.044 45.1049 365.997 45.2753 365.902 45.4306C365.811 45.5859 365.688 45.7109 365.533 45.8056C365.381 45.8965 365.211 45.942 365.021 45.942ZM371.993 46.0102C371.137 46.0102 370.408 45.7772 369.806 45.3113C369.204 44.8416 368.743 44.1617 368.425 43.2715C368.107 42.3776 367.948 41.298 367.948 40.0329C367.948 38.7753 368.107 37.7015 368.425 36.8113C368.747 35.9174 369.209 35.2355 369.811 34.7658C370.418 34.2924 371.145 34.0556 371.993 34.0556C372.842 34.0556 373.567 34.2924 374.169 34.7658C374.776 35.2355 375.238 35.9174 375.556 36.8113C375.878 37.7015 376.039 38.7753 376.039 40.0329C376.039 41.298 375.88 42.3776 375.561 43.2715C375.243 44.1617 374.783 44.8416 374.181 45.3113C373.579 45.7772 372.849 46.0102 371.993 46.0102ZM371.993 44.7602C372.842 44.7602 373.501 44.3511 373.971 43.5329C374.44 42.7147 374.675 41.548 374.675 40.0329C374.675 39.0253 374.567 38.1674 374.351 37.459C374.139 36.7507 373.832 36.2109 373.431 35.8397C373.033 35.4685 372.554 35.2829 371.993 35.2829C371.152 35.2829 370.495 35.6977 370.022 36.5272C369.548 37.353 369.311 38.5215 369.311 40.0329C369.311 41.0405 369.418 41.8965 369.63 42.6011C369.842 43.3056 370.147 43.8416 370.544 44.209C370.946 44.5765 371.429 44.7602 371.993 44.7602ZM382.17 46.0102C381.314 46.0102 380.585 45.7772 379.982 45.3113C379.38 44.8416 378.92 44.1617 378.602 43.2715C378.283 42.3776 378.124 41.298 378.124 40.0329C378.124 38.7753 378.283 37.7015 378.602 36.8113C378.924 35.9174 379.386 35.2355 379.988 34.7658C380.594 34.2924 381.321 34.0556 382.17 34.0556C383.018 34.0556 383.744 34.2924 384.346 34.7658C384.952 35.2355 385.414 35.9174 385.732 36.8113C386.054 37.7015 386.215 38.7753 386.215 40.0329C386.215 41.298 386.056 42.3776 385.738 43.2715C385.42 44.1617 384.96 44.8416 384.357 45.3113C383.755 45.7772 383.026 46.0102 382.17 46.0102ZM382.17 44.7602C383.018 44.7602 383.677 44.3511 384.147 43.5329C384.617 42.7147 384.852 41.548 384.852 40.0329C384.852 39.0253 384.744 38.1674 384.528 37.459C384.316 36.7507 384.009 36.2109 383.607 35.8397C383.21 35.4685 382.73 35.2829 382.17 35.2829C381.329 35.2829 380.672 35.6977 380.198 36.5272C379.725 37.353 379.488 38.5215 379.488 40.0329C379.488 41.0405 379.594 41.8965 379.806 42.6011C380.018 43.3056 380.323 43.8416 380.721 44.209C381.122 44.5765 381.605 44.7602 382.17 44.7602ZM392.346 46.0102C391.49 46.0102 390.761 45.7772 390.159 45.3113C389.557 44.8416 389.096 44.1617 388.778 43.2715C388.46 42.3776 388.301 41.298 388.301 40.0329C388.301 38.7753 388.46 37.7015 388.778 36.8113C389.1 35.9174 389.562 35.2355 390.165 34.7658C390.771 34.2924 391.498 34.0556 392.346 34.0556C393.195 34.0556 393.92 34.2924 394.522 34.7658C395.129 35.2355 395.591 35.9174 395.909 36.8113C396.231 37.7015 396.392 38.7753 396.392 40.0329C396.392 41.298 396.233 42.3776 395.915 43.2715C395.596 44.1617 395.136 44.8416 394.534 45.3113C393.932 45.7772 393.202 46.0102 392.346 46.0102ZM392.346 44.7602C393.195 44.7602 393.854 44.3511 394.324 43.5329C394.793 42.7147 395.028 41.548 395.028 40.0329C395.028 39.0253 394.92 38.1674 394.704 37.459C394.492 36.7507 394.185 36.2109 393.784 35.8397C393.386 35.4685 392.907 35.2829 392.346 35.2829C391.505 35.2829 390.848 35.6977 390.375 36.5272C389.901 37.353 389.665 38.5215 389.665 40.0329C389.665 41.0405 389.771 41.8965 389.983 42.6011C390.195 43.3056 390.5 43.8416 390.897 44.209C391.299 44.5765 391.782 44.7602 392.346 44.7602Z" fill="white"/>
<defs>
<linearGradient id="paint0_linear_737_728" x1="6.73313" y1="68.4956" x2="9.02568" y2="51.8239" gradientUnits="userSpaceOnUse">
<stop stop-color="#FF7D00"/>
<stop offset="0.1362" stop-color="#FC771C"/>
<stop offset="0.470306" stop-color="#F56565"/>
<stop offset="0.92371" stop-color="#EA4AD8"/>
<stop offset="0.981571" stop-color="#E640FF"/>
</linearGradient>
</defs>
</svg>