<svg width="96" height="96" viewBox="0 0 96 96" fill="none" xmlns="http://www.w3.org/2000/svg">
  <path opacity=".6" d="M81.1792 61.7812h-1.7606v-3.4598c0-2.294-.9275-4.4939-2.5783-6.116-1.6509-1.6221-3.8898-2.5335-6.2245-2.5335-2.3346 0-4.5737.9114-6.2245 2.5335-1.6509 1.6221-2.5783 3.822-2.5783 6.116v3.4598h-1.7606c-.9339 0-1.8295.3645-2.4898 1.0133-.6604.6489-1.0314 1.5291-1.0314 2.4467v17.299c.0001.9176.371 1.7976 1.0314 2.4464.6603.6489 1.5559 1.0134 2.4898 1.0134h21.0828c.9338 0 1.8294-.3645 2.4897-1.0134.6604-.6488 1.0313-1.5288 1.0313-2.4464v-17.299c.0001-.9102-.3648-1.7838-1.0156-2.4314-.6509-.6476-1.5352-1.0173-2.4614-1.0286Zm-15.8231-3.4598c.0866-1.3157.6795-2.5496 1.6584-3.4513.979-.9017 2.2705-1.4035 3.6123-1.4035 1.3418 0 2.6333.5018 3.6122 1.4035.979.9017 1.5719 2.1356 1.6585 3.4513v3.4598H65.3561v-3.4598Z" fill="#FF7D00"/>
  <path d="M68.505 22.3728c-.5605-.001-1.1156.1087-1.6336.3226-.518.2139-.9886.5279-1.3849.9239-.3963.3961-.7105.8664-.9246 1.384-.214.5177-.3237 1.0724-.3228 1.6325v14.2194c0 .3775-.1501.7395-.4172 1.0064-.2671.267-.6293.4169-1.0071.4169-.3777 0-.74-.1499-1.0071-.4169-.2671-.2669-.4172-.6289-.4172-1.0064V18.1028c-.0446-1.1017-.5139-2.1435-1.3097-2.9072-.7958-.7638-1.8563-1.1903-2.9597-1.1903-1.1033 0-2.1639.4265-2.9597 1.1903-.7958.7637-1.2651 1.8055-1.3097 2.9072v22.7524c0 .3775-.15.7395-.4171 1.0064-.2671.267-.6294.4169-1.0072.4169-.3777 0-.74-.1499-1.0071-.4169-.2671-.2669-.4172-.6289-.4172-1.0064V15.2631c0-1.1306-.4494-2.2149-1.2494-3.0144-.8-.7995-1.8851-1.2487-3.0165-1.2487-1.1314 0-2.2164.4492-3.0164 1.2487-.8.7995-1.2495 1.8838-1.2495 3.0144v25.5641c0 .3775-.15.7396-.4171 1.0065-.2672.2669-.6294.4169-1.0072.4169-.3777 0-.74-.15-1.0071-.4169-.2671-.2669-.4172-.629-.4172-1.0065V23.7961c.0233-.5748-.0699-1.1483-.274-1.6863-.204-.5379-.5148-1.0291-.9135-1.444-.3988-.4149-.8773-.745-1.4069-.9705-.5296-.2255-1.0993-.3417-1.675-.3417-.5756 0-1.1454.1162-1.6749.3417-.5296.2255-1.0082.5556-1.4069.9705-.3987.4149-.7095.9061-.9135 1.444-.2041.538-.2973 1.1115-.2741 1.6863v32.4507l-11.6945-6.6842c-.8937-.5159-1.9444-.69-2.9568-.4899-1.0124.2001-1.9177.7609-2.5476 1.5779-.6298.817-.9413 1.8349-.8766 2.8642.0647 1.0293.5012 2.0001 1.2284 2.732l19.2698 19.5917c1.0528 1.0834 2.313 1.9438 3.7057 2.53 1.3926.5862 2.8891.8861 4.4002.8819h20.778c1.4948.0009 2.975-.2927 4.3562-.8639 1.3811-.5712 2.6361-1.4089 3.693-2.4651 1.057-1.0562 1.8952-2.3103 2.4668-3.6905.5716-1.3802.8653-2.8595.8644-4.3533V26.6358c.0009-.5601-.1088-1.1148-.3229-1.6325-.214-.5176-.5282-.9879-.9245-1.384-.3963-.396-.8669-.71-1.3849-.9239-.518-.2139-1.0731-.3236-1.6336-.3226Z" fill="url(#a)" style="mix-blend-mode:multiply"/>
  <defs>
    <linearGradient id="a" x1="17.7732" y1="85.9731" x2="96.3127" y2="39.6003" gradientUnits="userSpaceOnUse">
      <stop stop-color="#FF7D00"/>
      <stop offset=".1362" stop-color="#FC771C"/>
      <stop offset=".470306" stop-color="#F56565"/>
      <stop offset=".92371" stop-color="#EA4AD8"/>
      <stop offset=".981571" stop-color="#E640FF"/>
    </linearGradient>
  </defs>
</svg>