<svg width="90" height="60" viewBox="0 0 90 60" fill="none" xmlns="http://www.w3.org/2000/svg">
  <path fill="#333E67" d="M24.3174 6.69385h10.67v24.7879h-10.67zM53.3682 0H66.468v36.7111H53.3682z"/>
  <path fill="#333E67" d="M41.1133 21.3364h18.9102v24.3695H41.1133z" style="mix-blend-mode:multiply"/>
  <path fill="#333E67" d="M30.792 18.3264h19.2158V42.539H30.792z" style="mix-blend-mode:multiply"/>
  <path d="M.676758 50.7442H5.2407c.56049 0 .95735.1011 1.19059.3033.25182.2218.37772.6101.37772 1.165 0 .4285-.05222.7484-.15665.9598-.10908.2126-.29185.3682-.5483.467.2843.1218.47403.2465.56918.374.09052.1264.13577.3429.13577.6497v1.1287H5.2407v-.903c0-.1321-.03829-.2453-.11488-.3395-.08935-.1126-.22222-.1688-.39861-.1688h-2.4804v1.4113H.676758v-5.0475Zm1.570052 1.3063v1.0236h2.51522c.17174 0 .29532-.0373.37075-.112.07195-.0712.10792-.2033.10792-.3964 0-.193-.03829-.3268-.11488-.4015-.07543-.0758-.19669-.1137-.36379-.1137H2.24681ZM7.61736 55.7917v-5.0475h5.48994v1.2218H9.18567v.698H12.928v1.2149H9.18567v.691h3.92163v1.2218H7.61736ZM13.6128 55.7848v-5.0406h4.3916c.8936 0 1.483.177 1.7685.5308.2657.3286.3986.9943.3986 1.9973 0 .9972-.1305 1.6584-.3916 1.9835-.2855.3527-.8773.529-1.7755.529h-4.3916Zm1.5683-1.3062h2.5605c.3365 0 .5645-.0845.6841-.2533.1183-.1701.1775-.4877.1775-.953 0-.4664-.0592-.7864-.1775-.9599-.1196-.1746-.3476-.2619-.6841-.2619h-2.5605v2.4281ZM22.8542 50.7597v5.0389h1.5701v-3.5362c0-.0425-.0076-.0965-.0227-.1619-.0324-.1505-.0487-.2281-.0487-.2327 0-.0333.0139-.05.0418-.05.0197 0 .0412.0236.0644.0707.0244.0471.0505.1011.0783.162l1.953 3.7481h1.2846l1.8102-3.7343c.0186-.0471.0424-.0988.0714-.1551.029-.0517.0528-.0776.0714-.0776.029 0 .0435.019.0435.0569 0 .0184-.0122.0724-.0366.162-.0232.0896-.0348.1648-.0348.2257v3.5224h1.5683v-5.0389h-2.6736l-1.3403 2.8297c-.029.1838-.0504.3297-.0644.4377-.0197.1126-.0388.1689-.0574.1689-.0232 0-.0447-.0942-.0644-.2827-.0232-.1826-.0424-.2906-.0574-.3239l-1.3403-2.8297h-2.8164ZM31.8905 55.7917v-5.0475h5.49v1.2218h-3.9216v.698h3.7423v1.2149h-3.7423v.691h3.9216v1.2218h-5.49ZM44.7946 52.5726h-1.5683c0-.2964-.0737-.4704-.2211-.5221-.1474-.0471-.6562-.0707-1.5265-.0707-.8692 0-1.3775.0546-1.5248.1637-.1474.108-.2211.4866-.2211 1.1357 0 .6445.0737 1.0184.2211 1.1218.1427.108.6533.162 1.5317.162.875 0 1.3838-.0207 1.5266-.062.1427-.0425.2141-.1982.2141-.467h-1.9391v-1.1288h3.5074c0 1.096-.0407 1.7899-.1219 2.0817-.1137.409-.3986.6658-.8546.7704-.3377.0746-1.1152.112-2.3325.112-1.5967 0-2.5494-.127-2.8581-.3809-.3087-.2493-.463-.988-.463-2.2161s.1497-1.9645.4491-2.2093c.3179-.2596 1.2753-.3894 2.872-.3894 1.5306 0 2.4555.0873 2.7746.2619.3562.193.5344.7387.5344 1.6371ZM47.5228 50.7511h2.6945l2.524 5.0406h-1.8312l-.4856-.8392h-3.1088l-.4839.8392h-1.8329l2.5239-5.0406Zm1.4691 1.1374H48.75l-.8494 1.7577h1.939l-.8477-1.7577ZM54.0584 53.3843c0 .88.0952 1.405.2855 1.5751.1903.1689.7723.2533 1.7459.2533.9086 0 1.4627-.0494 1.6623-.1482.232-.1172.3481-.4348.3481-.953h.7276c0 .7675-.159 1.25-.477 1.4476-.3237.2022-1.0774.3033-2.261.3033-1.2022 0-1.9629-.1413-2.282-.424-.318-.2826-.477-.9673-.477-2.0541 0-1.0914.159-1.7807.477-2.0679.3145-.2827 1.0751-.424 2.282-.424 1.1882 0 1.9413.0988 2.2593.2964.3191.1976.4787.6825.4787 1.4545h-.7276c0-.517-.1068-.8301-.3203-.9392-.2135-.1034-.7769-.1551-1.6901-.1551-.9794 0-1.5614.0827-1.7459.2482-.1903.1688-.2855.6979-.2855 1.5871ZM59.3559 50.9631h4.6701v.6497h-3.9425v1.4044h3.8067v.6497h-3.8067v1.4751h3.9425v.6497h-4.6701v-4.8286ZM64.7386 50.9562h1.0618l4.1845 4.2358v-4.2358h.7276v4.8355h-1.0984l-4.1496-4.1996v4.1996h-.7259v-4.8355ZM71.3816 50.9631h5.0983v.6497h-2.1828v4.1789h-.7275v-4.1789h-2.188v-.6497ZM81.5097 50.9631c.4131 0 .7317.139.9556.417.2228.2826.3342.6566.3342 1.1219 0 .3998-.0638.6985-.1914.8961-.0905.1413-.2356.2545-.4352.3395.1764.0712.3145.1631.4143.2757.1416.1597.2123.3573.2123.5928v1.1856h-.7188v-1.1856c0-.1597-.0761-.2941-.2281-.4032-.1566-.1034-.3446-.1551-.5639-.1551h-3.4291v1.7439h-.7276v-4.8286h4.3777Zm-3.6501 2.4281h3.3577c.2669 0 .4642-.0471.5918-.1413.181-.131.2716-.3803.2716-.7479 0-.3665-.0929-.6181-.2785-.7548-.123-.0896-.318-.1344-.5849-.1344h-3.3577v1.7784ZM86.5288 55.8624c-1.0131 0-1.7215-.0661-2.1253-.1982-.4039-.1264-.6603-.3711-.7694-.7341-.0766-.2493-.1149-.7646-.1149-1.5458 0-.795.036-1.3103.1079-1.5458.1091-.3665.3679-.6158.7764-.7479.4084-.1321 1.1169-.1982 2.1253-.1982 1.0119 0 1.7197.0638 2.1236.1913.3991.1321.6562.3814.7711.7479.0754.2493.1131.7669.1131 1.5527 0 .7904-.0354 1.3034-.1062 1.5389-.1091.3676-.3661.6146-.7711.741-.4038.1321-1.114.1982-2.1305.1982Zm0-.6497c1.121 0 1.7812-.0821 1.9808-.2464.2008-.1655.3012-.6928.3012-1.582 0-.8938-.0975-1.4229-.2925-1.5871-.1996-.1655-.8627-.2482-1.9895-.2482s-1.7876.0827-1.9826.2482c-.1996.1642-.2994.6933-.2994 1.5871 0 .8846.0998 1.4096.2994 1.5751.1996.1689.8605.2533 1.9826.2533Z" fill="#333E67"/>
  <path d="M.790039 57.9998H90.0001" stroke="#333E67" stroke-width="2.88691"/>
</svg>