<svg width="96" height="96" viewBox="0 0 96 96" fill="none" xmlns="http://www.w3.org/2000/svg">
  <path opacity=".6" d="M85.2975 75v-4.4207c0-1.1046.8954-2 2-2h3.3087c1.5238 0 2.4879-1.6359 1.7497-2.9689L82.1525 47.1856c-.7643-1.3803-2.7512-1.3734-3.5059.0122L68.6105 65.6226c-.7259 1.3327.2388 2.9567 1.7564 2.9567h3.1124c1.1046 0 2 .8954 2 2V75c0 1.1046.8955 2 2 2h5.8182c1.1046 0 2-.8954 2-2Z" fill="#FF7D00"/>
  <path d="M77.3247 63.5705h-3.2441V24.5196c-.0035-1.7257-.6934-3.3799-1.9191-4.6014C70.9358 18.6967 69.274 18.007 67.5388 18H15.097c-1.7351.007-3.3969.6967-4.6226 1.9182-1.22571 1.2215-1.91567 2.8757-1.9192 4.6014v39.0509H5.27091c-.8675 0-1.69947.3427-2.31288.9528C2.34461 65.1333 2 65.9608 2 66.8236s.34461 1.6902.95803 2.3003c.61341.6101 1.44538.9529 2.31288.9529H77.2711c.8675 0 1.6995-.3428 2.3129-.9529s.958-1.4375.958-2.3003-.3446-1.6903-.958-2.3003c-.6134-.6101-1.4454-.9528-2.3129-.9528h.0536Z" fill="url(#a)" style="mix-blend-mode:multiply"/>
  <defs>
    <linearGradient id="a" x1="9.46149" y1="75.2064" x2="77.9016" y2="6.7595" gradientUnits="userSpaceOnUse">
      <stop stop-color="#FF7D00"/>
      <stop offset=".1362" stop-color="#FC771C"/>
      <stop offset=".470306" stop-color="#F56565"/>
      <stop offset=".92371" stop-color="#EA4AD8"/>
      <stop offset=".981571" stop-color="#E640FF"/>
    </linearGradient>
  </defs>
</svg>