<svg width="119" height="30" viewBox="0 0 119 30" fill="none" xmlns="http://www.w3.org/2000/svg">
  <path d="M103.289 25.774h6.116V12.6414c0-3.29779-2.702-5.97075-6.033-5.97075h-.083V25.774ZM82.8906 29.6831h6.3144L100.18 1.0249h-6.315L82.8906 29.6831ZM15.4088 11.0567c-1.7306-.2686-7.71758-1.07927-8.89554-1.25812-.0331.30922-.04174 1.91852-.04174 1.91852 0 1.7689 1.30677 3.2721 3.07407 3.5329 1.62701.2401 3.51011.5136 4.62051.6803 1.5298.2365 2.4854 1.1833 2.4854 2.6024 0 2.698-3.0597 3.124-5.0659 3.124-1.72051 0-2.82004-.3321-3.77709-1.0879-.76348-.6155-1.33699-1.7988-1.33699-2.8874H.878906c0 2.3189 1.195234 4.3535 2.629364 5.7256 2.05442 1.94 4.87447 2.839 8.02843 2.839 3.3943 0 6.5007-.8513 8.5076-2.839 1.291-1.2773 2.1502-3.0291 2.1502-5.3943 0-3.8798-2.8669-6.3405-6.7857-6.956M41.4566 10.3034h2.2602c2.1437 0 3.7023-2.02465 3.1259-4.07-.077-.27357-.1669-.54353-.272-.80713-1.4341-3.69028-5.0673-5.016114-9.32-5.016114-5.5437 0-9.9893 2.460674-10.3239 7.996844h5.7833c.1432-2.27191 1.768-3.50222 4.5406-3.50222 3.3935 0 4.2059 1.56161 4.2059 3.88122M103.289 6.67029h15.563V1.02588h-9.862c-3.149 0-5.701 2.52616-5.701 5.64441M87.7081 17.0879 81.3146 1.02515h-6.4367L80.01 13.9198c.7613 1.9114 2.6265 3.1681 4.7011 3.1681h2.997ZM41.4565 15.259v.2088c0 3.6425-2.3904 5.7854-6.3568 5.7854-2.0256 0-3.5367-1.3371-3.5367-3.2307 0-1.048.4929-1.635 1.229-2.1373.8311-.567 2.0069-.6262 3.0345-.6262h5.63v-4.9555H34.773c-.7893.0057-1.5802.1211-2.3487.2985-3.875.8926-6.6929 3.832-6.6929 7.9327 0 4.0201 3.059 7.7111 8.9862 7.7111 2.8784 0 5.3142-1.1285 6.7389-2.6203v2.148h5.42V15.259h-5.42Z" fill="#333E67"/>
  <path d="M19.4722 3.29599C17.3774 1.05971 14.1105.286775 11.1271.407885 8.10487.530418 4.90775 1.57978 3.01596 4.04329c-.5512.71743-.94769 1.53385-1.17724 2.40516-.22163.84201-.35044 1.71047-.35044 2.57887 1.07578.16106 4.94787.76301 5.02631.7723.00359-.03135.06404-.55784.08275-.6818.03598-.24148.07915-.48016.13456-.71594.10794-.46666.26265-.92404.48932-1.34721.44686-.83135 1.16141-1.46545 2.04578-1.81379.8513-.33626 1.7946-.42887 2.7035-.35335.9002.07409 1.832.29778 2.5783.82001.8109.56708 1.3715 1.49321 1.4298 2.47913l.0057.1724h5.6862c-.0029-2.92156-2.1983-5.06308-2.1983-5.06308M57.4448 10.3032c-3.8123 0-6.4165 2.8204-6.0178 6.1531.0172.1468.0532.3833.0597.4168.4044 2.0738 1.1909 3.8948 2.3991 5.3986 1.7205 2.0824 4.8752 3.8798 8.6508 3.8798 3.7757 0 6.7864-1.7511 8.507-3.8798 1.1477-1.4675 1.8162-3.406 1.9126-5.3473h-5.879c-.0475.8998-.3346 1.6563-.7174 2.2711-.7167 1.0886-2.0069 1.8459-3.8232 1.8459-1.6248 0-2.82-.7103-3.6324-1.5616-1.4335-1.5623-1.6731-3.8805-1.6731-6.1987 0-1.0059.0454-2.0226.2137-2.9779" fill="#333E67"/>
  <path d="M58.9037 7.03507c.8124-.85204 2.0076-1.51458 3.6324-1.51458 1.8163 0 3.1065.75732 3.8239 1.84582.3821.61484.6685 1.37216.7153 2.27117h5.8797c-.0957-1.93987-.7642-3.87978-1.9112-5.34729C69.3233 2.16077 66.3118.4104 62.5361.4104c-3.7756 0-6.9303 1.79813-8.6508 3.87979-1.3248 1.64846-2.1415 3.68526-2.5035 6.01341h6.0625c.2195-1.24243.6484-2.38582 1.4594-3.26853" fill="#333E67"/>
</svg>