<svg width="85" height="46" viewBox="0 0 85 46" fill="none" xmlns="http://www.w3.org/2000/svg">
  <path d="M83.8553 22.4589c.3922.712.169 1.2575-.5978 1.498l-4.3243 1.3408c-.6529.2127-1.2236.037-1.4944-.5549L70.602 10.4011c-.1859-.3421-.4857-.2496-.4391.1295l2.335 15.748c.0943.6464-.2429 1.1087-.8966 1.3131l-3.1289.97c-.6444.2043-1.187.0194-1.485-.5549l-7.2103-14.2305c-.1858-.3421-.4763-.2497-.439.1294l2.7076 15.6362c.1224.6372-.2521 1.1096-.905 1.313l-4.3159 1.3509c-.7658.2312-1.2693-.0841-1.3626-.8886L52.5947 6.88737c-.084-.64728.2522-1.1096.906-1.31302l5.1174-1.59964c.6547-.20344 1.1581 0 1.4953.56405l4.8091 8.22024c.1877.3329.4763.2497.4399-.1387l-.8229-9.4593c-.0457-.65653.2532-1.10961.8976-1.31303L70.5647.248289c.6529-.203418 1.1862-.009242 1.4944.564046L83.8553 22.4589ZM.189694 23.5131c-.392264-.712-.1681067-1.2575.597752-1.498l4.324344-1.3407c.65378-.2034 1.22353-.0277 1.49438.5548L13.443 35.5801c.1868.3329.4763.2404.439-.1378l-2.3351-15.748c-.084-.6473.2429-1.1096.8967-1.3131l3.1195-.9709c.6537-.2034 1.1956-.0185 1.5037.5641l7.201 14.2316c.1868.3319.4763.2404.439-.1387l-2.7086-15.6362c-.1215-.638.2522-1.1096.906-1.313l4.3243-1.3408c.7566-.2404 1.2609.074 1.3543.8784l2.8673 24.4391c.0841.6371-.2522 1.0994-.9059 1.3038l-5.1183 1.5997c-.6538.2025-1.1487 0-1.4944-.5641l-4.81-8.2202c-.1868-.3329-.4764-.2414-.439.1377l.8219 9.4687c.0467.6565-.2522 1.1003-.906 1.3028l-5.1182 1.5997c-.6538.2044-1.1862.0185-1.4944-.5631L.189694 23.5132v-.0001Z" fill="#333E67"/>
  <path fill-rule="evenodd" clip-rule="evenodd" d="M32.2825 21.0902c-.2895-2.5244-.5604-9.4317 8.051-12.12247 8.602-2.68155 9.8899 3.91137 10.1804 6.43567l1.0928 9.5334c.2904 2.516.5604 9.4326-8.05 12.1141-8.602 2.6806-9.8825-3.9104-10.172-6.4264l-1.1022-9.5343Zm7.1077 5.5674c.3362 2.9312.7285 4.6687 3.4184 3.8272 2.6805-.8313 2.6618-2.6806 2.3256-5.622l-.6351-5.4916c-.3363-2.9404-.7285-4.6788-3.4091-3.8374-2.6899.8415-2.6618 2.6908-2.3256 5.6312l.6258 5.4925v.0001Z" fill="#333E67"/>
</svg>